SplineFontDB: 3.0
FontName: Vazir-Light
FullName: Vazir Light
FamilyName: Vazir
Weight: Light
Copyright: Copyright (c) 2003 by Bitstream, Inc. All Rights Reserved.\nDejaVu changes are in public domain\nChanges by Saber Rastikerdar are in public domain.\nNon-Arabic(Latin) glyphs and data in extended version are imported from Roboto font under the Apache License, Version 2.0.
Version: 14.0.0
ItalicAngle: 0
UnderlinePosition: -500
UnderlineWidth: 100
Ascent: 1638
Descent: 410
InvalidEm: 0
LayerCount: 2
Layer: 0 1 "Back" 1
Layer: 1 1 "Fore" 0
PreferredKerning: 4
XUID: [1021 502 1027637223 12602068]
UniqueID: 4041861
UseUniqueID: 1
FSType: 0
OS2Version: 1
OS2_WeightWidthSlopeOnly: 0
OS2_UseTypoMetrics: 1
CreationTime: 1431850356
ModificationTime: 1503375227
PfmFamily: 33
TTFWeight: 300
TTFWidth: 5
LineGap: 0
VLineGap: 0
Panose: 2 11 6 3 3 8 4 2 2 4
OS2TypoAscent: 2350
OS2TypoAOffset: 0
OS2TypoDescent: -1100
OS2TypoDOffset: 0
OS2TypoLinegap: 0
OS2WinAscent: 2350
OS2WinAOffset: 0
OS2WinDescent: 1100
OS2WinDOffset: 0
HheadAscent: 2350
HheadAOffset: 0
HheadDescent: -1100
HheadDOffset: 0
OS2SubXSize: 1331
OS2SubYSize: 1433
OS2SubXOff: 0
OS2SubYOff: 286
OS2SupXSize: 1331
OS2SupYSize: 1433
OS2SupXOff: 0
OS2SupYOff: 983
OS2StrikeYSize: 102
OS2StrikeYPos: 530
OS2CapHeight: 1638
OS2XHeight: 1082
OS2Vendor: 'PfEd'
OS2CodePages: 00000041.20080000
OS2UnicodeRanges: 80002003.80000000.00000008.00000000
Lookup: 1 9 0 "'fina' Terminal Forms in Arabic lookup 9" { "'fina' Terminal Forms in Arabic lookup 9 subtable"  } ['fina' ('arab' <'KUR ' 'SND ' 'URD ' 'dflt' > ) ]
Lookup: 1 9 0 "'medi' Medial Forms in Arabic lookup 11" { "'medi' Medial Forms in Arabic lookup 11 subtable"  } ['medi' ('arab' <'KUR ' 'SND ' 'URD ' 'dflt' > ) ]
Lookup: 1 9 0 "'init' Initial Forms in Arabic lookup 13" { "'init' Initial Forms in Arabic lookup 13 subtable"  } ['init' ('arab' <'KUR ' 'SND ' 'URD ' 'dflt' > ) ]

StartChar: exclam
Encoding: 33 33 1
GlifName: exclam
Width: 641
VWidth: 2764
GlyphClass: 2
Flags: W
LayerCount: 2
Fore
SplineSet
200.091796875 140.493164062 m 0,0,1
 200.091796875 165.634095091 200.091796875 165.634095091 208.793770384 186.596232983 c 128,-1,2
 217.495743894 207.558370876 217.495743894 207.558370876 235.354779191 225.416966382 c 0,3,4
 270.61663194 260.6796875 270.61663194 260.6796875 320.278320312 260.6796875 c 128,-1,5
 369.940985247 260.6796875 369.940985247 260.6796875 405.202837993 225.416966385 c 128,-1,6
 440.463867188 190.155068821 440.463867188 190.155068821 440.463867188 140.493164062 c 128,-1,7
 440.463867188 90.831259304 440.463867188 90.831259304 405.202837996 55.5693617429 c 128,-1,8
 369.940985247 20.306640625 369.940985247 20.306640625 320.278320312 20.306640625 c 0,9,10
 311.447468003 20.306640625 311.447468003 20.306640625 303.177840231 21.3714170222 c 128,-1,11
 294.908212458 22.4361934194 294.908212458 22.4361934194 287.142762798 24.5693386619 c 128,-1,12
 279.377313137 26.7024839045 279.377313137 26.7024839045 272.068962731 29.9291800171 c 128,-1,13
 264.760612326 33.1558761297 264.760612326 33.1558761297 257.899317031 37.4555233529 c 128,-1,14
 251.038021737 41.7551705762 251.038021737 41.7551705762 244.529700416 47.1771431424 c 0,15,16
 219.947018712 67.6562907927 219.947018712 67.6562907927 208.839101361 94.4169821974 c 0,17,18
 204.472529666 104.935803854 204.472529666 104.935803854 202.282163271 116.41025287 c 128,-1,19
 200.091796875 127.884701886 200.091796875 127.884701886 200.091796875 140.493164062 c 0,0,1
228.565848561 1451.07128906 m 1,20,-1
 415.227068112 1451.07128906 l 1,21,-1
 391.470317059 514.32421875 l 1,22,-1
 253.508260773 514.32421875 l 1,23,-1
 228.565848561 1451.07128906 l 1,20,-1
EndSplineSet
EndChar

StartChar: period
Encoding: 46 46 2
GlifName: period
Width: 641
VWidth: 2764
GlyphClass: 2
Flags: W
LayerCount: 2
Fore
SplineSet
200.091796875 140.493164062 m 0,0,1
 200.091796875 165.634095091 200.091796875 165.634095091 208.793770384 186.596232983 c 128,-1,2
 217.495743894 207.558370876 217.495743894 207.558370876 235.354779191 225.416966382 c 0,3,4
 270.61663194 260.6796875 270.61663194 260.6796875 320.278320312 260.6796875 c 128,-1,5
 369.940985247 260.6796875 369.940985247 260.6796875 405.202837993 225.416966385 c 128,-1,6
 440.463867188 190.155068821 440.463867188 190.155068821 440.463867188 140.493164062 c 128,-1,7
 440.463867188 90.831259304 440.463867188 90.831259304 405.202837996 55.5693617429 c 128,-1,8
 369.940985247 20.306640625 369.940985247 20.306640625 320.278320312 20.306640625 c 0,9,10
 311.447468003 20.306640625 311.447468003 20.306640625 303.177840231 21.3714170222 c 128,-1,11
 294.908212458 22.4361934194 294.908212458 22.4361934194 287.142762798 24.5693386619 c 128,-1,12
 279.377313137 26.7024839045 279.377313137 26.7024839045 272.068962731 29.9291800171 c 128,-1,13
 264.760612326 33.1558761297 264.760612326 33.1558761297 257.899317031 37.4555233529 c 128,-1,14
 251.038021737 41.7551705762 251.038021737 41.7551705762 244.529700416 47.1771431424 c 0,15,16
 219.947018712 67.6562907927 219.947018712 67.6562907927 208.839101361 94.4169821974 c 0,17,18
 204.472529666 104.935803854 204.472529666 104.935803854 202.282163271 116.41025287 c 128,-1,19
 200.091796875 127.884701886 200.091796875 127.884701886 200.091796875 140.493164062 c 0,0,1
EndSplineSet
EndChar

StartChar: colon
Encoding: 58 58 3
GlifName: colon
Width: 641
VWidth: 2764
GlyphClass: 2
Flags: W
LayerCount: 2
Fore
SplineSet
200.091796875 1010.49316406 m 0,0,1
 200.091796875 1060.15485244 200.091796875 1060.15485244 235.354779191 1095.41696638 c 0,2,3
 244.299710404 1104.36211788 244.299710404 1104.36211788 253.958244254 1110.97734997 c 128,-1,4
 263.616778104 1117.59258207 263.616778104 1117.59258207 274.182885902 1121.97800294 c 128,-1,5
 284.748993699 1126.36342381 284.748993699 1126.36342381 296.219359141 1128.52155565 c 128,-1,6
 307.689724583 1130.6796875 307.689724583 1130.6796875 320.278320312 1130.6796875 c 0,7,8
 345.419641459 1130.6796875 345.419641459 1130.6796875 366.382110581 1121.97767598 c 128,-1,9
 387.344579702 1113.27566446 387.344579702 1113.27566446 405.202837993 1095.41696639 c 0,10,11
 414.147531393 1086.4720527 414.147531393 1086.4720527 420.762436865 1076.81351463 c 128,-1,12
 427.377342337 1067.15497656 427.377342337 1067.15497656 431.762564407 1056.58883695 c 128,-1,13
 436.147786478 1046.02269735 436.147786478 1046.02269735 438.305826833 1034.55226385 c 128,-1,14
 440.463867188 1023.08183035 440.463867188 1023.08183035 440.463867188 1010.49316406 c 0,15,16
 440.463867188 960.831259304 440.463867188 960.831259304 405.202837996 925.569361743 c 0,17,18
 387.343925909 907.710009856 387.343925909 907.710009856 366.38124217 899.008325241 c 128,-1,19
 345.418558432 890.306640625 345.418558432 890.306640625 320.278320312 890.306640625 c 0,20,21
 309.241327814 890.306640625 309.241327814 890.306640625 299.077376346 891.966306576 c 128,-1,22
 288.913424878 893.625972526 288.913424878 893.625972526 279.486744926 896.981398464 c 128,-1,23
 270.060064974 900.336824401 270.060064974 900.336824401 261.363595468 905.367407881 c 128,-1,24
 252.667125963 910.397991362 252.667125963 910.397991362 244.529700417 917.177143142 c 0,25,26
 238.301303502 922.365847189 238.301303502 922.365847189 232.970865329 927.907771217 c 128,-1,27
 227.640427155 933.449695245 227.640427155 933.449695245 223.200606295 939.350385206 c 128,-1,28
 218.760785435 945.251075168 218.760785435 945.251075168 215.18499371 951.497228199 c 128,-1,29
 211.609201986 957.74338123 211.609201986 957.74338123 208.839101361 964.416982197 c 0,30,31
 205.931852913 971.420377556 205.931852913 971.420377556 203.994682181 978.811899045 c 128,-1,32
 202.057511449 986.203420533 202.057511449 986.203420533 201.074654162 994.136880497 c 128,-1,33
 200.091796875 1002.07034046 200.091796875 1002.07034046 200.091796875 1010.49316406 c 0,0,1
200.091796875 140.493164062 m 0,34,35
 200.091796875 165.634095091 200.091796875 165.634095091 208.793770384 186.596232983 c 128,-1,36
 217.495743894 207.558370876 217.495743894 207.558370876 235.354779191 225.416966382 c 0,37,38
 270.61663194 260.6796875 270.61663194 260.6796875 320.278320312 260.6796875 c 128,-1,39
 369.940985247 260.6796875 369.940985247 260.6796875 405.202837993 225.416966385 c 128,-1,40
 440.463867188 190.155068821 440.463867188 190.155068821 440.463867188 140.493164062 c 128,-1,41
 440.463867188 90.831259304 440.463867188 90.831259304 405.202837996 55.5693617429 c 128,-1,42
 369.940985247 20.306640625 369.940985247 20.306640625 320.278320312 20.306640625 c 0,43,44
 311.447468003 20.306640625 311.447468003 20.306640625 303.177840231 21.3714170222 c 128,-1,45
 294.908212458 22.4361934194 294.908212458 22.4361934194 287.142762798 24.5693386619 c 128,-1,46
 279.377313137 26.7024839045 279.377313137 26.7024839045 272.068962731 29.9291800171 c 128,-1,47
 264.760612326 33.1558761297 264.760612326 33.1558761297 257.899317031 37.4555233529 c 128,-1,48
 251.038021737 41.7551705762 251.038021737 41.7551705762 244.529700416 47.1771431424 c 0,49,50
 219.947018712 67.6562907927 219.947018712 67.6562907927 208.839101361 94.4169821974 c 0,51,52
 204.472529666 104.935803854 204.472529666 104.935803854 202.282163271 116.41025287 c 128,-1,53
 200.091796875 127.884701886 200.091796875 127.884701886 200.091796875 140.493164062 c 0,34,35
EndSplineSet
EndChar

StartChar: afii57388
Encoding: 1548 1548 5
GlifName: afii57388
Width: 739
VWidth: 2772
GlyphClass: 2
Flags: W
LayerCount: 2
Fore
SplineSet
250.205318538 287.041325561 m 0,0,1
 297.498636819 521.119365541 297.498636819 521.119365541 483.06677135 666.212435157 c 1,2,-1
 505.817555859 652.060444891 l 1,3,4
 356.708038847 508.475139209 356.708038847 508.475139209 341.028810618 290.274299755 c 2,5,-1
 339.857912594 273.979433187 l 1,6,-1
 356.193296484 274.200593287 l 2,7,8
 398.934967815 274.779260575 398.934967815 274.779260575 430.472375129 268.078343583 c 128,-1,9
 462.009782444 261.377426591 462.009782444 261.377426591 480.96560756 248.921116548 c 128,-1,10
 499.921432675 236.464806504 499.921432675 236.464806504 509.230161848 218.172272438 c 0,11,12
 526.915026727 182.64384607 526.915026727 182.64384607 526.089618972 148.292758858 c 0,13,14
 524.51605993 43.4850378298 524.51605993 43.4850378298 436.820269439 27.2996425672 c 0,15,16
 417.864140516 24.0010445715 417.864140516 24.0010445715 395.937289035 23.9070954731 c 0,17,18
 382.567294925 23.8511986353 382.567294925 23.8511986353 370.386118469 24.9166494716 c 128,-1,19
 358.204942014 25.9821003079 358.204942014 25.9821003079 347.235970097 28.1430670501 c 0,20,21
 275.813597385 42.2137906559 275.813597385 42.2137906559 251.069754376 105.034701274 c 128,-1,22
 226.325911366 167.855611892 226.325911366 167.855611892 250.205318538 287.041325561 c 0,0,1
EndSplineSet
EndChar

StartChar: uni0615
Encoding: 1557 1557 6
GlifName: uni0615
Width: -29
VWidth: 2714
GlyphClass: 4
Flags: W
AnchorPoint: "Anchor-10" 658.199 1624.46 mark 0
AnchorPoint: "Anchor-9" 658.199 1624.46 mark 0
AnchorPoint: "Anchor-1" 672.366 2447.86 basemark 0
AnchorPoint: "Anchor-1" 658.199 1624.46 mark 0
LayerCount: 2
Fore
SplineSet
541.2421875 1790.00390625 m 1,0,-1
 677.703125 1790.00390625 l 2,1,2
 781.798204784 1790.00390625 781.798204784 1790.00390625 845.899102392 1824.50195312 c 128,-1,3
 910 1859 910 1859 912.581054688 1912.3965269 c 128,-1,4
 915.162109375 1965.79305381 915.162109375 1965.79305381 882.439453125 1983.51855469 c 0,5,6
 775.123475479 2043.41282427 775.123475479 2043.41282427 541.2421875 1790.00390625 c 1,0,-1
991.1328125 1928.79980469 m 0,7,8
 991.00004589 1714.07421875 991.00004589 1714.07421875 668.384765625 1714.07421875 c 6,9,-1
 354.936523438 1714.07421875 l 1,10,-1
 354.936523438 1790.00390625 l 1,11,-1
 462.987304688 1790.00390625 l 1,12,-1
 462.987304688 2322.15039062 l 1,13,-1
 540.234375 2321.18359375 l 1,14,-1
 539.275390625 1893.90234375 l 1,15,16
 747 2130 747 2130 912.387695312 2066.69433594 c 0,17,18
 991 2037 991 2037 991.1328125 1928.79980469 c 0,7,8
EndSplineSet
EndChar

StartChar: uni061B
Encoding: 1563 1563 7
GlifName: uni061B_
Width: 739
VWidth: 2772
GlyphClass: 2
Flags: W
LayerCount: 2
Fore
SplineSet
277.091796875 140.493164062 m 0,0,1
 277.091796875 157.276596962 277.091796875 157.276596962 280.949497371 172.13346267 c 128,-1,2
 284.807197866 186.990328378 284.807197866 186.990328378 292.619067004 200.241872672 c 128,-1,3
 300.430936142 213.493416965 300.430936142 213.493416965 312.354779191 225.416966382 c 0,4,5
 347.61663194 260.6796875 347.61663194 260.6796875 397.278320312 260.6796875 c 128,-1,6
 446.940985247 260.6796875 446.940985247 260.6796875 482.202837993 225.416966385 c 128,-1,7
 517.463867188 190.155068821 517.463867188 190.155068821 517.463867188 140.493164062 c 128,-1,8
 517.463867188 90.831259304 517.463867188 90.831259304 482.202837996 55.5693617429 c 128,-1,9
 446.940985247 20.306640625 446.940985247 20.306640625 397.278320312 20.306640625 c 0,10,11
 353.783988371 20.306640625 353.783988371 20.306640625 321.529700416 47.1771431424 c 0,12,13
 296.947018712 67.6562907927 296.947018712 67.6562907927 285.839101361 94.4169821974 c 0,14,15
 277.091796875 115.488738785 277.091796875 115.488738785 277.091796875 140.493164062 c 0,0,1
250.205318538 767.041325561 m 0,16,17
 297.498636819 1001.11936554 297.498636819 1001.11936554 483.06677135 1146.21243516 c 1,18,-1
 505.817555859 1132.06044489 l 1,19,20
 356.708038847 988.475139209 356.708038847 988.475139209 341.028810618 770.274299755 c 2,21,-1
 339.857912594 753.979433187 l 1,22,-1
 356.193296484 754.200593287 l 2,23,24
 388.407888958 754.636737459 388.407888958 754.636737459 414.240288354 751.010041892 c 128,-1,25
 440.072687749 747.383346325 440.072687749 747.383346325 458.69642312 740.001799694 c 128,-1,26
 477.320158491 732.620253063 477.320158491 732.620253063 489.804876898 722.215697906 c 128,-1,27
 502.289595304 711.811142748 502.289595304 711.811142748 509.230161848 698.172272438 c 0,28,29
 526.914999544 662.643900679 526.914999544 662.643900679 526.089328107 628.29280061 c 0,30,31
 525.767073559 606.82587135 525.767073559 606.82587135 522.173541752 589.395046552 c 128,-1,32
 518.580009946 571.964221754 518.580009946 571.964221754 511.4900462 558.079299991 c 128,-1,33
 504.400082454 544.194378228 504.400082454 544.194378228 493.820105465 534.059291964 c 128,-1,34
 483.240128476 523.924205701 483.240128476 523.924205701 468.831078124 517.196687075 c 128,-1,35
 454.422027773 510.46916845 454.422027773 510.46916845 436.31182189 507.195354123 c 128,-1,36
 418.201616007 503.921539795 418.201616007 503.921539795 395.937289035 503.907095473 c 0,37,38
 382.567294925 503.851198635 382.567294925 503.851198635 370.386118469 504.916649471 c 128,-1,39
 358.204942014 505.982100307 358.204942014 505.982100307 347.235970097 508.14306705 c 0,40,41
 275.813597385 522.213790656 275.813597385 522.213790656 251.069754376 585.034701274 c 128,-1,42
 226.325911366 647.855611892 226.325911366 647.855611892 250.205318538 767.041325561 c 0,16,17
EndSplineSet
EndChar

StartChar: uni061F
Encoding: 1567 1567 8
GlifName: uni061F_
Width: 974
VWidth: 2764
GlyphClass: 2
Flags: W
LayerCount: 2
Fore
SplineSet
433.091796875 140.493164062 m 0,0,1
 433.091796875 157.276596962 433.091796875 157.276596962 436.949497371 172.13346267 c 128,-1,2
 440.807197866 186.990328378 440.807197866 186.990328378 448.619067004 200.241872672 c 128,-1,3
 456.430936142 213.493416965 456.430936142 213.493416965 468.354779191 225.416966382 c 0,4,5
 503.61663194 260.6796875 503.61663194 260.6796875 553.278320312 260.6796875 c 128,-1,6
 602.940985247 260.6796875 602.940985247 260.6796875 638.202837993 225.416966385 c 128,-1,7
 673.463867188 190.155068821 673.463867188 190.155068821 673.463867188 140.493164062 c 0,8,9
 673.463867188 123.709727481 673.463867188 123.709727481 669.606291479 108.852700314 c 128,-1,10
 665.74871577 93.995673148 665.74871577 93.995673148 657.937278627 80.7441660024 c 128,-1,11
 650.125841483 67.4926588567 650.125841483 67.4926588567 638.202837996 55.5693617429 c 0,12,13
 620.343925909 37.7100098565 620.343925909 37.7100098565 599.38124217 29.0083252407 c 128,-1,14
 578.418558432 20.306640625 578.418558432 20.306640625 553.278320312 20.306640625 c 0,15,16
 509.783988371 20.306640625 509.783988371 20.306640625 477.529700416 47.1771431424 c 0,17,18
 452.947018712 67.6562907927 452.947018712 67.6562907927 441.839101361 94.4169821974 c 0,19,20
 433.091796875 115.488738785 433.091796875 115.488738785 433.091796875 140.493164062 c 0,0,1
464.920195028 511.333007812 m 1,21,22
 446.050309368 585.89262622 446.050309368 585.89262622 289.999045954 737.922223553 c 0,23,24
 116.138231987 907.19639106 116.138231987 907.19639106 119.99691932 1084.69600839 c 0,25,26
 122.886201263 1227.23391756 122.886201263 1227.23391756 203.247813624 1319.07576026 c 0,27,28
 319.71711458 1449.98340431 319.71711458 1449.98340431 508.887241415 1449.5167296 c 0,29,30
 626.944586663 1449.02893346 626.944586663 1449.02893346 704.594526136 1408.6058576 c 128,-1,31
 782.244465609 1368.18278174 782.244465609 1368.18278174 821.126163686 1286.766723 c 128,-1,32
 860.007861763 1205.35066425 860.007861763 1205.35066425 860.983274707 1081.24981692 c 1,33,-1
 730.756051325 1081.24822922 l 1,34,35
 728.951104696 1182.29958955 728.951104696 1182.29958955 674.625833433 1234.12435136 c 128,-1,36
 620.300562169 1285.94911318 620.300562169 1285.94911318 517.614038512 1285.89452522 c 0,37,38
 392.961657631 1286.00631829 392.961657631 1286.00631829 332.892320123 1213.63153811 c 0,39,40
 308.922706339 1185.01374813 308.922706339 1185.01374813 296.845951893 1148.6868015 c 128,-1,41
 284.769197446 1112.35985487 284.769197446 1112.35985487 284.510903874 1069.06964591 c 0,42,43
 284.372738248 1039.3125214 284.372738248 1039.3125214 293.540590607 1007.65599564 c 128,-1,44
 302.708442966 975.999469884 302.708442966 975.999469884 321.045602958 942.647389966 c 128,-1,45
 339.38276295 909.295310048 339.38276295 909.295310048 366.18545673 874.430289039 c 128,-1,46
 392.988150509 839.56526803 392.988150509 839.56526803 428.728839453 802.379399902 c 0,47,48
 618.004950853 603.868068399 618.004950853 603.868068399 637.901842763 511.333007812 c 1,49,-1
 464.920195028 511.333007812 l 1,21,22
EndSplineSet
EndChar

StartChar: uni0621
Encoding: 1569 1569 9
GlifName: uni0621
Width: 938
VWidth: 2952
GlyphClass: 2
Flags: W
AnchorPoint: "Anchor-7" 465.326 -239.646 basechar 0
AnchorPoint: "Anchor-10" 483.848 1372.06 basechar 0
LayerCount: 2
Fore
SplineSet
132.76953125 37.2604042888 m 1,0,-1
 132.76953125 201.511852433 l 1,1,2
 255.679975052 278.33231354 255.679975052 278.33231354 362.819255041 312.282782789 c 2,3,-1
 397.26774547 323.198876448 l 1,4,-1
 365.215085084 339.88679291 l 2,5,6
 141.978650798 456.112744881 141.978650798 456.112744881 141.554034497 639.268750045 c 0,7,8
 141.767595731 698.507466755 141.767595731 698.507466755 161.733887117 751.368945209 c 128,-1,9
 181.700178504 804.230423664 181.700178504 804.230423664 221.712504424 851.338556928 c 0,10,11
 315.883986256 960.992618903 315.883986256 960.992618903 488.59080702 960.806652084 c 0,12,13
 633.613741718 960.985914056 633.613741718 960.985914056 745.645193397 870.094812244 c 1,14,-1
 700.100899775 767.199959222 l 1,15,16
 603.678346175 815.017382852 603.678346175 815.017382852 500.300595288 815.437110602 c 0,17,18
 393.417467769 815.209560775 393.417467769 815.209560775 336.715229958 770.713245386 c 128,-1,19
 280.012992146 726.216929997 280.012992146 726.216929997 280.028300994 639.270637138 c 0,20,21
 280.023047547 616.01725882 280.023047547 616.01725882 286.766009763 593.680596887 c 128,-1,22
 293.508971978 571.343934953 293.508971978 571.343934953 306.854750433 550.220630339 c 128,-1,23
 320.200528888 529.097325726 320.200528888 529.097325726 339.698411562 508.952964483 c 128,-1,24
 359.196294236 488.80860324 359.196294236 488.80860324 385.091756623 469.573109891 c 128,-1,25
 410.98721901 450.337616541 410.98721901 450.337616541 442.412615843 432.16774131 c 128,-1,26
 473.838012677 413.997866078 473.838012677 413.997866078 511.429694371 396.456817074 c 2,27,-1
 515.903104784 394.369432107 l 1,28,-1
 520.741866352 395.346654295 l 1,29,-1
 787.920683363 449.305309728 l 1,30,-1
 811.261028487 287.717800428 l 1,31,32
 520.873604581 249.658993834 520.873604581 249.658993834 132.76953125 37.2604042888 c 1,0,-1
EndSplineSet
EndChar

StartChar: uni0627
Encoding: 1575 1575 15
GlifName: uni0627
Width: 497
VWidth: 2952
GlyphClass: 2
Flags: W
AnchorPoint: "Anchor-10" 249.871 1633.46 basechar 0
AnchorPoint: "Anchor-7" 253.587 -236.365 basechar 0
LayerCount: 2
Fore
SplineSet
185.890625 1453.15039062 m 1,0,-1
 329.205078125 1453.15039062 l 1,1,-1
 329.205078125 15.751953125 l 1,2,-1
 185.890625 15.751953125 l 1,3,-1
 185.890625 1453.15039062 l 1,0,-1
EndSplineSet
Substitution2: "'fina' Terminal Forms in Arabic lookup 9 subtable" uniFE8E
EndChar

StartChar: uni062C
Encoding: 1580 1580 20
GlifName: uni062C_
Width: 1386
VWidth: 2703
GlyphClass: 2
Flags: W
AnchorPoint: "Anchor-7" 536.833 -922.619 basechar 0
AnchorPoint: "Anchor-10" 633.478 1366.07 basechar 0
LayerCount: 2
Fore
SplineSet
776.528320312 -686.249023438 m 1,0,-1
 806.528320312 -686.249023438 l 1,1,-1
 806.528320312 -716.249023438 l 1,2,-1
 776.528320312 -716.249023438 l 1,3,-1
 776.528320312 -686.249023438 l 1,0,-1
EndSplineSet
Refer: 21 1581 N 1 0 0 1 0 0 2
Refer: 264 -1 N 1.07 0 0 1.07 701.95 -174.716 2
Substitution2: "'fina' Terminal Forms in Arabic lookup 9 subtable" uniFE9E
Substitution2: "'medi' Medial Forms in Arabic lookup 11 subtable" uniFEA0
Substitution2: "'init' Initial Forms in Arabic lookup 13 subtable" uniFE9F
EndChar

StartChar: uni062D
Encoding: 1581 1581 21
GlifName: uni062D_
Width: 1386
VWidth: 2952
GlyphClass: 2
Flags: W
AnchorPoint: "Anchor-7" 536.833 -922.619 basechar 0
AnchorPoint: "Anchor-10" 633.478 1366.07 basechar 0
LayerCount: 2
Fore
SplineSet
119.987304698 -164.852240353 m 0,0,1
 119.987304698 129.287793669 119.987304698 129.287793669 300.005258407 315.821613254 c 0,2,3
 480.023212116 502.355432839 480.023212116 502.355432839 844.247748275 583.132182979 c 2,4,-1
 854.247748275 585.349956416 l 1,5,-1
 902.8232028 596.12289169 l 1,6,-1
 856.387434384 613.99326741 l 2,7,8
 847.817452825 617.2913455 847.817452825 617.2913455 832.273296747 623.403144186 c 0,9,10
 816.72914067 629.514942871 816.72914067 629.514942871 794.2222539 638.436511334 c 0,11,12
 771.71536713 647.358079797 771.71536713 647.358079797 742.507187659 658.986261356 c 0,13,14
 544.89080966 739.012605716 544.89080966 739.012605716 469.539547519 738.687663144 c 0,15,16
 349.182105412 739.021759214 349.182105412 739.021759214 271.790213212 639.335307083 c 2,17,-1
 251.270924154 612.904952839 l 1,18,-1
 123.048538882 676.207598892 l 1,19,-1
 131.279728076 689.800278625 l 2,20,21
 252.473537766 890.031275235 252.473537766 890.031275235 471.123024232 890.840948993 c 0,22,23
 594.558668269 890.995674535 594.558668269 890.995674535 768.420795875 806.544874533 c 0,24,25
 1069.08694961 660.042386307 1069.08694961 660.042386307 1241.81522261 646.63010275 c 1,26,-1
 1230.93360927 501.063060826 l 1,27,28
 1062.49292702 489.903555455 1062.49292702 489.903555455 949.330527321 464.185346582 c 0,29,30
 259.993293408 304.928114246 259.993293408 304.928114246 260.249026859 -149.292603161 c 0,31,32
 260.119599195 -340.919649381 260.119599195 -340.919649381 398.50469557 -436.906276254 c 0,33,34
 536.889791944 -532.892903128 536.889791944 -532.892903128 806.369878159 -532.782714593 c 0,35,36
 920.959679459 -532.887939642 920.959679459 -532.887939642 1027.74519665 -510.579698842 c 0,37,38
 1134.53071384 -488.271458041 1134.53071384 -488.271458041 1232.37367137 -443.926409049 c 1,39,-1
 1262.35425578 -592.605749757 l 1,40,41
 1197.69164306 -622.792225521 1197.69164306 -622.792225521 1124.08220071 -642.886556174 c 0,42,43
 1050.47275837 -662.980886826 1050.47275837 -662.980886826 967.385759749 -673.074918795 c 0,44,45
 884.298761132 -683.168950764 884.298761132 -683.168950764 791.538009226 -683.249026567 c 0,46,47
 412.556065653 -683.004231616 412.556065653 -683.004231616 245.005922903 -502.114993994 c 0,48,49
 119.987304698 -367.107833391 119.987304698 -367.107833391 119.987304698 -164.852240353 c 0,0,1
EndSplineSet
Substitution2: "'fina' Terminal Forms in Arabic lookup 9 subtable" uniFEA2
Substitution2: "'medi' Medial Forms in Arabic lookup 11 subtable" uniFEA4
Substitution2: "'init' Initial Forms in Arabic lookup 13 subtable" uniFEA3
EndChar

StartChar: uni062F
Encoding: 1583 1583 23
GlifName: uni062F_
Width: 1000
VWidth: 2952
GlyphClass: 2
Flags: W
AnchorPoint: "Anchor-10" 424.137 1375.03 basechar 0
AnchorPoint: "Anchor-7" 437.24 -239.316 basechar 0
LayerCount: 2
Fore
SplineSet
115.982421875 196.889667693 m 1,0,1
 234.060391769 174.006619221 234.060391769 174.006619221 341.658734959 174.107422506 c 0,2,3
 727.003881256 173.995647264 727.003881256 173.995647264 726.954101199 366.377559215 c 0,4,5
 727.001071311 579.867707867 727.001071311 579.867707867 317.933492117 840.503268092 c 1,6,-1
 401.833777552 967.793320173 l 1,7,8
 883.01871338 674.603966752 883.01871338 674.603966752 883.479140985 368.916233508 c 0,9,10
 883.249307063 193.398570555 883.249307063 193.398570555 752.956426043 105.511701084 c 128,-1,11
 622.663545024 17.6248316124 622.663545024 17.6248316124 354.783524328 17.2598108866 c 0,12,13
 218.112596363 17.0179214491 218.112596363 17.0179214491 115.982421875 37.9813573739 c 1,14,-1
 115.982421875 196.889667693 l 1,0,1
EndSplineSet
Substitution2: "'fina' Terminal Forms in Arabic lookup 9 subtable" uniFEAA
EndChar

StartChar: uni0631
Encoding: 1585 1585 25
GlifName: uni0631
Width: 830
VWidth: 2144
GlyphClass: 2
Flags: W
AnchorPoint: "Anchor-10" 459.256 1370.2 basechar 0
AnchorPoint: "Anchor-7" 364.969 -769.998 basechar 0
LayerCount: 2
Fore
SplineSet
630.891044043 512.903344827 m 1,0,1
 718.018062575 309.148662364 718.018062575 309.148662364 718.375003363 134.003208825 c 0,2,3
 718.32958622 66.1811035233 718.32958622 66.1811035233 707.846416579 5.48337383581 c 128,-1,4
 697.363246937 -55.2143558517 697.363246937 -55.2143558517 676.362454878 -109.009429809 c 128,-1,5
 655.36166282 -162.804503766 655.36166282 -162.804503766 623.804303082 -209.53416132 c 128,-1,6
 592.246943344 -256.263818875 592.246943344 -256.263818875 550.052351185 -296.090867962 c 128,-1,7
 507.857759026 -335.917917049 507.857759026 -335.917917049 454.987836995 -368.742436409 c 128,-1,8
 402.117914964 -401.566955769 402.117914964 -401.566955769 338.491150508 -427.488913925 c 128,-1,9
 274.864386051 -453.410872081 274.864386051 -453.410872081 200.443529531 -472.393187185 c 128,-1,10
 126.02267301 -491.375502289 126.02267301 -491.375502289 40.7254170484 -503.459230915 c 1,11,-1
 5.46264471422 -362.406523649 l 1,12,13
 567.995491865 -280.046909099 567.995491865 -280.046909099 568.250972242 122.267057735 c 0,14,15
 568.005238988 279.65620212 568.005238988 279.65620212 485.537075856 463.172804363 c 1,16,-1
 630.891044043 512.903344827 l 1,0,1
EndSplineSet
PairPos2: "'kern' Horizontal Kerning lookup 15-2" uniFBFE dx=60 dy=0 dh=60 dv=0 dx=0 dy=0 dh=0 dv=0
PairPos2: "'kern' Horizontal Kerning lookup 15-1" uniFEE7 dx=-178 dy=0 dh=-178 dv=0 dx=0 dy=0 dh=0 dv=0
PairPos2: "'kern' Horizontal Kerning lookup 15-2" uniFB90 dx=-226 dy=0 dh=-226 dv=0 dx=0 dy=0 dh=0 dv=0
PairPos2: "'kern' Horizontal Kerning lookup 15-2" uniFB8E dx=-226 dy=0 dh=-226 dv=0 dx=0 dy=0 dh=0 dv=0
PairPos2: "'kern' Horizontal Kerning lookup 15-2" uni06A9 dx=-226 dy=0 dh=-226 dv=0 dx=0 dy=0 dh=0 dv=0
PairPos2: "'kern' Horizontal Kerning lookup 15-2" uni064A dx=-60 dy=0 dh=-60 dv=0 dx=0 dy=0 dh=0 dv=0
PairPos2: "'kern' Horizontal Kerning lookup 15-2" afii57414 dx=-60 dy=0 dh=-60 dv=0 dx=0 dy=0 dh=0 dv=0
PairPos2: "'kern' Horizontal Kerning lookup 15-2" uni0649 dx=-60 dy=0 dh=-60 dv=0 dx=0 dy=0 dh=0 dv=0
PairPos2: "'kern' Horizontal Kerning lookup 15-2" uniFEEB dx=-178 dy=0 dh=-178 dv=0 dx=0 dy=0 dh=0 dv=0
PairPos2: "'kern' Horizontal Kerning lookup 15-2" uni0647 dx=-178 dy=0 dh=-178 dv=0 dx=0 dy=0 dh=0 dv=0
PairPos2: "'kern' Horizontal Kerning lookup 15-2" uni0646 dx=-60 dy=0 dh=-60 dv=0 dx=0 dy=0 dh=0 dv=0
PairPos2: "'kern' Horizontal Kerning lookup 15-2" uniFEE3 dx=-178 dy=0 dh=-178 dv=0 dx=0 dy=0 dh=0 dv=0
PairPos2: "'kern' Horizontal Kerning lookup 15-2" uni0645 dx=-178 dy=0 dh=-178 dv=0 dx=0 dy=0 dh=0 dv=0
PairPos2: "'kern' Horizontal Kerning lookup 15-2" uniFEFB dx=-143 dy=0 dh=-143 dv=0 dx=0 dy=0 dh=0 dv=0
PairPos2: "'kern' Horizontal Kerning lookup 15-2" uniFEDF dx=-143 dy=0 dh=-143 dv=0 dx=0 dy=0 dh=0 dv=0
PairPos2: "'kern' Horizontal Kerning lookup 15-2" uni0644 dx=-60 dy=0 dh=-60 dv=0 dx=0 dy=0 dh=0 dv=0
PairPos2: "'kern' Horizontal Kerning lookup 15-2" uniFEDB dx=-226 dy=0 dh=-226 dv=0 dx=0 dy=0 dh=0 dv=0
PairPos2: "'kern' Horizontal Kerning lookup 15-2" uni0643 dx=-143 dy=0 dh=-143 dv=0 dx=0 dy=0 dh=0 dv=0
PairPos2: "'kern' Horizontal Kerning lookup 15-2" uniFED7 dx=-178 dy=0 dh=-178 dv=0 dx=0 dy=0 dh=0 dv=0
PairPos2: "'kern' Horizontal Kerning lookup 15-2" uni0642 dx=-60 dy=0 dh=-60 dv=0 dx=0 dy=0 dh=0 dv=0
PairPos2: "'kern' Horizontal Kerning lookup 15-2" uniFED3 dx=-178 dy=0 dh=-178 dv=0 dx=0 dy=0 dh=0 dv=0
PairPos2: "'kern' Horizontal Kerning lookup 15-2" uni0641 dx=-178 dy=0 dh=-178 dv=0 dx=0 dy=0 dh=0 dv=0
PairPos2: "'kern' Horizontal Kerning lookup 15-2" uniFECF dx=-178 dy=0 dh=-178 dv=0 dx=0 dy=0 dh=0 dv=0
PairPos2: "'kern' Horizontal Kerning lookup 15-2" uniFECB dx=-178 dy=0 dh=-178 dv=0 dx=0 dy=0 dh=0 dv=0
PairPos2: "'kern' Horizontal Kerning lookup 15-2" uniFEC7 dx=-178 dy=0 dh=-178 dv=0 dx=0 dy=0 dh=0 dv=0
PairPos2: "'kern' Horizontal Kerning lookup 15-2" uni0638 dx=-178 dy=0 dh=-178 dv=0 dx=0 dy=0 dh=0 dv=0
PairPos2: "'kern' Horizontal Kerning lookup 15-2" uniFEC3 dx=-178 dy=0 dh=-178 dv=0 dx=0 dy=0 dh=0 dv=0
PairPos2: "'kern' Horizontal Kerning lookup 15-2" uni0637 dx=-178 dy=0 dh=-178 dv=0 dx=0 dy=0 dh=0 dv=0
PairPos2: "'kern' Horizontal Kerning lookup 15-2" uniFEBF dx=-178 dy=0 dh=-178 dv=0 dx=0 dy=0 dh=0 dv=0
PairPos2: "'kern' Horizontal Kerning lookup 15-2" uni0636 dx=-178 dy=0 dh=-178 dv=0 dx=0 dy=0 dh=0 dv=0
PairPos2: "'kern' Horizontal Kerning lookup 15-2" uniFEBB dx=-178 dy=0 dh=-178 dv=0 dx=0 dy=0 dh=0 dv=0
PairPos2: "'kern' Horizontal Kerning lookup 15-2" uni0635 dx=-178 dy=0 dh=-178 dv=0 dx=0 dy=0 dh=0 dv=0
PairPos2: "'kern' Horizontal Kerning lookup 15-2" uniFEB7 dx=-178 dy=0 dh=-178 dv=0 dx=0 dy=0 dh=0 dv=0
PairPos2: "'kern' Horizontal Kerning lookup 15-2" uni0634 dx=-178 dy=0 dh=-178 dv=0 dx=0 dy=0 dh=0 dv=0
PairPos2: "'kern' Horizontal Kerning lookup 15-2" uniFEB3 dx=-178 dy=0 dh=-178 dv=0 dx=0 dy=0 dh=0 dv=0
PairPos2: "'kern' Horizontal Kerning lookup 15-2" uni0633 dx=-178 dy=0 dh=-178 dv=0 dx=0 dy=0 dh=0 dv=0
PairPos2: "'kern' Horizontal Kerning lookup 15-2" uni0630 dx=-178 dy=0 dh=-178 dv=0 dx=0 dy=0 dh=0 dv=0
PairPos2: "'kern' Horizontal Kerning lookup 15-2" uni062F dx=-178 dy=0 dh=-178 dv=0 dx=0 dy=0 dh=0 dv=0
PairPos2: "'kern' Horizontal Kerning lookup 15-2" uniFEA7 dx=-178 dy=0 dh=-178 dv=0 dx=0 dy=0 dh=0 dv=0
PairPos2: "'kern' Horizontal Kerning lookup 15-2" uniFEA3 dx=-178 dy=0 dh=-178 dv=0 dx=0 dy=0 dh=0 dv=0
PairPos2: "'kern' Horizontal Kerning lookup 15-2" uniFE9F dx=-178 dy=0 dh=-178 dv=0 dx=0 dy=0 dh=0 dv=0
PairPos2: "'kern' Horizontal Kerning lookup 15-2" uniFE9B dx=-178 dy=0 dh=-178 dv=0 dx=0 dy=0 dh=0 dv=0
PairPos2: "'kern' Horizontal Kerning lookup 15-2" uni062B dx=-178 dy=0 dh=-178 dv=0 dx=0 dy=0 dh=0 dv=0
PairPos2: "'kern' Horizontal Kerning lookup 15-2" uniFE97 dx=-178 dy=0 dh=-178 dv=0 dx=0 dy=0 dh=0 dv=0
PairPos2: "'kern' Horizontal Kerning lookup 15-2" uni062A dx=-178 dy=0 dh=-178 dv=0 dx=0 dy=0 dh=0 dv=0
PairPos2: "'kern' Horizontal Kerning lookup 15-2" uni0629 dx=-178 dy=0 dh=-178 dv=0 dx=0 dy=0 dh=0 dv=0
PairPos2: "'kern' Horizontal Kerning lookup 15-2" uni0628 dx=-178 dy=0 dh=-178 dv=0 dx=0 dy=0 dh=0 dv=0
PairPos2: "'kern' Horizontal Kerning lookup 15-2" uni0627 dx=-143 dy=0 dh=-143 dv=0 dx=0 dy=0 dh=0 dv=0
PairPos2: "'kern' Horizontal Kerning lookup 15-2" uni0623 dx=-143 dy=0 dh=-143 dv=0 dx=0 dy=0 dh=0 dv=0
PairPos2: "'kern' Horizontal Kerning lookup 15-2" uni0622 dx=-143 dy=0 dh=-143 dv=0 dx=0 dy=0 dh=0 dv=0
PairPos2: "'kern' Horizontal Kerning lookup 15-2" uni0621 dx=-178 dy=0 dh=-178 dv=0 dx=0 dy=0 dh=0 dv=0
PairPos2: "'kern' Horizontal Kerning lookup 15-2" uniFB94 dx=-226 dy=0 dh=-226 dv=0 dx=0 dy=0 dh=0 dv=0
PairPos2: "'kern' Horizontal Kerning lookup 15-2" uniFB92 dx=-226 dy=0 dh=-226 dv=0 dx=0 dy=0 dh=0 dv=0
PairPos2: "'kern' Horizontal Kerning lookup 15-2" uni06AF dx=-226 dy=0 dh=-226 dv=0 dx=0 dy=0 dh=0 dv=0
PairPos2: "'kern' Horizontal Kerning lookup 15-2" afii57506 dx=-178 dy=0 dh=-178 dv=0 dx=0 dy=0 dh=0 dv=0
PairPos2: "'kern' Horizontal Kerning lookup 15-2" afii57440 dx=-178 dy=0 dh=-178 dv=0 dx=0 dy=0 dh=0 dv=0
PairPos2: "'kern' Horizontal Kerning lookup 15-2" uniFE8B dx=-178 dy=0 dh=-178 dv=0 dx=0 dy=0 dh=0 dv=0
Substitution2: "'fina' Terminal Forms in Arabic lookup 9 subtable" uniFEAE
EndChar

StartChar: uni0633
Encoding: 1587 1587 27
GlifName: uni0633
Width: 2506
VWidth: 2952
GlyphClass: 2
Flags: W
AnchorPoint: "Anchor-10" 1794.53 1377.1 basechar 0
AnchorPoint: "Anchor-7" 595.902 -800.086 basechar 0
LayerCount: 2
Fore
SplineSet
1552.80861729 14.9189476553 m 0,0,1
 1497.61750671 14.9189476553 1497.61750671 14.9189476553 1454.43765598 28.1825690063 c 0,2,3
 1411.25780525 41.4461903573 1411.25780525 41.4461903573 1379.45389446 67.6301054931 c 2,4,-1
 1355.13483791 87.6517977045 l 1,5,-1
 1354.92026986 56.1519781643 l 2,6,7
 1354.02288426 -75.589371937 1354.02288426 -75.589371937 1290.31865133 -210.551110468 c 0,8,9
 1148.522578 -508.994214296 1148.522578 -508.994214296 707.32813685 -508.724610927 c 0,10,11
 508.631939964 -508.815005623 508.631939964 -508.815005623 377.609915739 -448.132885026 c 0,12,13
 246.587891514 -387.450764429 246.587891514 -387.450764429 181.710866198 -265.547464136 c 0,14,15
 116.833840883 -143.644163842 116.833840883 -143.644163842 116.753176697 41.0255659794 c 0,16,17
 116.989095199 236.935474559 116.989095199 236.935474559 211.26836085 470.64544802 c 1,18,-1
 346.188809275 416.403570358 l 1,19,20
 267.004466603 210.184132921 267.004466603 210.184132921 267.268668165 42.8703701945 c 0,21,22
 267.176423212 -89.613180824 267.176423212 -89.613180824 317.718302039 -179.03088635 c 0,23,24
 368.260180867 -268.448591876 368.260180867 -268.448591876 467.796260573 -313.291428306 c 0,25,26
 567.332340278 -358.134264736 567.332340278 -358.134264736 714.368359842 -358.203455631 c 0,27,28
 956.664102168 -358.099593825 956.664102168 -358.099593825 1080.71093537 -242.146437074 c 0,29,30
 1204.75776858 -126.193280324 1204.75776858 -126.193280324 1205.55488882 101.897377653 c 0,31,32
 1205.98975517 281.744914448 1205.98975517 281.744914448 1121.19590528 463.128897554 c 1,33,-1
 1263.54423089 512.862440167 l 1,34,-1
 1318.71677025 342.418586685 l 2,35,36
 1373.05842025 173.000501392 1373.05842025 173.000501392 1554.50157907 172.992187512 c 0,37,38
 1656.95804574 172.996302911 1656.95804574 172.996302911 1710.31430146 225.499714931 c 0,39,40
 1763.67055719 278.003126951 1763.67055719 278.003126951 1763.30165939 378.754533224 c 0,41,42
 1762.9961092 463.101219023 1762.9961092 463.101219023 1760.15878861 495.000809006 c 2,43,-1
 1756.05047997 541.189936086 l 1,44,-1
 1890.66993932 556.989540285 l 1,45,-1
 1905.64801187 341.545056332 l 2,46,47
 1911.16730513 259.41216016 1911.16730513 259.41216016 1955.16688197 216.312059863 c 0,48,49
 1999.16645881 173.211959566 1999.16645881 173.211959566 2077.98973683 173.457136319 c 0,50,51
 2157.83081793 173.755973335 2157.83081793 173.755973335 2197.77629369 232.080388672 c 0,52,53
 2237.72176944 290.40480401 2237.72176944 290.40480401 2237.42272438 399.379152953 c 0,54,55
 2237.01275902 498.932563901 2237.01275902 498.932563901 2197.0007498 643.58051498 c 1,56,-1
 2343.3061802 681.831442971 l 1,57,58
 2401.11432286 493.572549425 2401.11432286 493.572549425 2387.63019725 408.245821044 c 0,59,60
 2386.97981166 404.014833015 2386.97981166 404.014833015 2387.4289617 399.387329638 c 0,61,62
 2385.73731208 179.547661026 2385.73731208 179.547661026 2270.89648798 78.4449423978 c 0,63,64
 2199.36873617 15.9959966183 2199.36873617 15.9959966183 2081.16922941 15.9121076852 c 0,65,66
 1905.96729802 15.9952705272 1905.96729802 15.9952705272 1850.98286227 146.775500488 c 2,67,-1
 1840.59494595 171.48311213 l 1,68,-1
 1824.96844553 149.707268566 l 2,69,70
 1728.2433865 14.9189476553 1728.2433865 14.9189476553 1552.80861729 14.9189476553 c 0,0,1
1724.81738281 569.387695312 m 1,71,-1
 1754.81738281 569.387695312 l 1,72,-1
 1754.81738281 539.387695312 l 1,73,-1
 1724.81738281 539.387695312 l 1,74,-1
 1724.81738281 569.387695312 l 1,71,-1
EndSplineSet
Substitution2: "'fina' Terminal Forms in Arabic lookup 9 subtable" uniFEB2
Substitution2: "'medi' Medial Forms in Arabic lookup 11 subtable" uniFEB4
Substitution2: "'init' Initial Forms in Arabic lookup 13 subtable" uniFEB3
EndChar

StartChar: uni0635
Encoding: 1589 1589 29
GlifName: uni0635
Width: 2655
VWidth: 2952
GlyphClass: 2
Flags: W
AnchorPoint: "Anchor-7" 595.902 -800.086 basechar 0
AnchorPoint: "Anchor-10" 2064.53 1372.1 basechar 0
LayerCount: 2
Fore
SplineSet
1326.72081481 316.40599626 m 2,0,1
 1361.25428454 209.068293187 1361.25428454 209.068293187 1432.33982418 202.177406283 c 2,2,-1
 1441.8250918 201.25792383 l 1,3,-1
 1446.68756653 209.453781877 l 2,4,5
 1806.53396474 815.986496153 1806.53396474 815.986496153 2161.31704693 815.425812481 c 0,6,7
 2362.16712074 815.01595274 2362.16712074 815.01595274 2467.97480921 663.459160105 c 0,8,9
 2529.02238316 576.240055511 2529.02238316 576.240055511 2529.56470731 461.726151487 c 0,10,11
 2529.98623267 389.321138374 2529.98623267 389.321138374 2509.71300207 326.598945666 c 0,12,13
 2410.04911523 15 2410.04911523 15 1773.15136719 15 c 2,14,-1
 1722.34082031 15 l 2,15,16
 1486.51352202 15 1486.51352202 15 1376.58147362 69.4894374379 c 2,17,-1
 1355.08370452 80.1451230266 l 1,18,-1
 1354.92026986 56.1519781643 l 2,19,20
 1354.02288426 -75.589371937 1354.02288426 -75.589371937 1290.31865133 -210.551110468 c 0,21,22
 1148.522578 -508.994214296 1148.522578 -508.994214296 707.32813685 -508.724610927 c 0,23,24
 116.993426217 -508.99317735 116.993426217 -508.99317735 116.753176697 41.0255659794 c 0,25,26
 116.989095199 236.935474559 116.989095199 236.935474559 211.26836085 470.64544802 c 1,27,-1
 346.188809275 416.403570358 l 1,28,29
 267.004466603 210.184132921 267.004466603 210.184132921 267.268668165 42.8703701945 c 0,30,31
 267.176423212 -89.613180824 267.176423212 -89.613180824 317.718302039 -179.03088635 c 128,-1,32
 368.260180867 -268.448591876 368.260180867 -268.448591876 467.796260573 -313.291428306 c 128,-1,33
 567.332340278 -358.134264736 567.332340278 -358.134264736 714.368359842 -358.203455631 c 0,34,35
 956.664102168 -358.099593825 956.664102168 -358.099593825 1080.71093537 -242.146437074 c 128,-1,36
 1204.75776858 -126.193280324 1204.75776858 -126.193280324 1205.55488882 101.897377653 c 0,37,38
 1205.98975517 281.744914448 1205.98975517 281.744914448 1121.19590528 463.128897554 c 1,39,-1
 1263.51832491 512.853389158 l 1,40,-1
 1326.72081481 316.40599626 l 2,0,1
1624.65625 173.416992188 m 1,41,-1
 1778.731305 173.417007775 l 2,42,43
 2074.93889997 172.989980968 2074.93889997 172.989980968 2222.7161625 238.298497736 c 0,44,45
 2379.14865513 307.758181553 2379.14865513 307.758181553 2377.6681475 451.298260144 c 0,46,47
 2376.94816578 521.102853071 2376.94816578 521.102853071 2339.86591928 570.118943221 c 0,48,49
 2308.29633878 611.350631991 2308.29633878 611.350631991 2263.48546978 632.310379639 c 128,-1,50
 2218.67460077 653.270127288 2218.67460077 653.270127288 2162.14133603 653.573333647 c 0,51,52
 2030.20930478 653.273359202 2030.20930478 653.273359202 1893.23173513 538.512973574 c 128,-1,53
 1756.25416548 423.752587947 1756.25416548 423.752587947 1611.9917096 196.454990479 c 2,54,-1
 1597.36982953 173.416992187 l 1,55,-1
 1624.65625 173.416992188 l 1,41,-1
EndSplineSet
Substitution2: "'fina' Terminal Forms in Arabic lookup 9 subtable" uniFEBA
Substitution2: "'medi' Medial Forms in Arabic lookup 11 subtable" uniFEBC
Substitution2: "'init' Initial Forms in Arabic lookup 13 subtable" uniFEBB
EndChar

StartChar: uni0637
Encoding: 1591 1591 31
GlifName: uni0637
Width: 1524
VWidth: 2952
GlyphClass: 2
Flags: W
AnchorPoint: "Anchor-10" 475.36 1632.58 basechar 0
AnchorPoint: "Anchor-7" 641.602 -236.453 basechar 0
LayerCount: 2
Fore
SplineSet
1037.84436854 805.42380281 m 0,0,1
 1140.72341662 805.218276759 1140.72341662 805.218276759 1217.59039617 767.12453039 c 0,2,3
 1294.45737572 729.030784022 1294.45737572 729.030784022 1347.16104045 652.531452024 c 0,4,5
 1404.98690562 568.362869099 1404.98690562 568.362869099 1404.67383193 457.781304852 c 0,6,7
 1404.77851062 310.861630071 1404.77851062 310.861630071 1323.95712 212.907242825 c 0,8,9
 1243.13572938 114.95285558 1243.13572938 114.95285558 1076.82900431 64.9764277898 c 0,10,11
 910.522279235 15 910.522279235 15 658.228515625 15 c 2,12,-1
 116.302734375 15 l 1,13,-1
 116.302734375 173.232237666 l 1,14,-1
 321.834651245 173.376955522 l 1,15,-1
 323.562190308 173.377932085 l 1,16,-1
 332.20174334 173.38281595 l 1,17,-1
 336.532782959 180.85837588 l 1,18,-1
 337.266189295 182.124266636 l 2,19,20
 340.718585592 187.6178727 340.718585592 187.6178727 407.863866983 293.102497406 c 2,21,-1
 410.6328125 297.45248556 l 1,22,-1
 410.6328125 302.692382812 l 1,23,-1
 410.6328125 1453.87402344 l 1,24,-1
 553.946289062 1453.87402344 l 1,25,-1
 553.946289062 548.209960938 l 1,26,-1
 553.946289062 505.543421665 l 1,27,-1
 580.646255227 538.823226056 l 2,28,29
 794.206265735 805.012154227 794.206265735 805.012154227 1037.84436854 805.42380281 c 0,0,1
663.833007812 173.534179688 m 2,30,31
 966.004733091 173.534179688 966.004733091 173.534179688 1096.96789119 229.856689282 c 0,32,33
 1253.01935417 298.202460817 1253.01935417 298.202460817 1252.73820952 439.32763387 c 0,34,35
 1253.02061473 530.642515729 1253.02061473 530.642515729 1189.0480733 588.466881851 c 0,36,37
 1128.83131871 644.029257175 1128.83131871 644.029257175 1037.37192864 643.573306167 c 0,38,39
 779.742285695 644.014152248 779.742285695 644.014152248 497.074243438 196.545210659 c 2,40,-1
 482.538076856 173.534179688 l 1,41,-1
 509.755859375 173.534179688 l 1,42,-1
 663.833007812 173.534179688 l 2,30,31
EndSplineSet
Substitution2: "'fina' Terminal Forms in Arabic lookup 9 subtable" uniFEC2
Substitution2: "'medi' Medial Forms in Arabic lookup 11 subtable" uniFEC4
Substitution2: "'init' Initial Forms in Arabic lookup 13 subtable" uniFEC3
EndChar

StartChar: uni0639
Encoding: 1593 1593 33
GlifName: uni0639
Width: 1350
VWidth: 2952
GlyphClass: 2
Flags: W
AnchorPoint: "Anchor-10" 743.478 1366.07 basechar 0
AnchorPoint: "Anchor-7" 536.833 -922.619 basechar 0
LayerCount: 2
Fore
SplineSet
657.562677312 448.438670041 m 2,0,1
 835.308075844 479.004768665 835.308075844 479.004768665 981.276850334 479.547444578 c 0,2,3
 1009.34061665 479.682902104 1009.34061665 479.682902104 1037.61638954 478.811633358 c 0,4,5
 1065.89216243 477.940364611 1065.89216243 477.940364611 1093.26254436 476.126644328 c 0,6,7
 1120.63292629 474.312924046 1120.63292629 474.312924046 1146.92792775 471.593488066 c 1,8,-1
 1128.24522167 325.191072336 l 1,9,10
 1089.21594097 326.605192772 1089.21594097 326.605192772 1064.19419479 327.087062238 c 0,11,12
 1039.17244862 327.568931704 1039.17244862 327.568931704 1024.62307019 327.167428966 c 0,13,14
 259.992158212 306.601770795 259.992158212 306.601770795 260.240237484 -154.844835057 c 0,15,16
 260.11548521 -348.617064154 260.11548521 -348.617064154 398.201774704 -445.874202171 c 0,17,18
 536.288064197 -543.131340188 536.288064197 -543.131340188 805.321511647 -543.266592127 c 0,19,20
 920.410772473 -543.137506802 920.410772473 -543.137506802 1027.46791664 -520.81788407 c 0,21,22
 1134.5250608 -498.498261338 1134.5250608 -498.498261338 1232.3662213 -454.372861151 c 1,23,-1
 1262.3637544 -603.136253629 l 1,24,25
 1069.68061434 -693.989526234 1069.68061434 -693.989526234 793.046922287 -693.733399564 c 0,26,27
 453.297729712 -693.865043057 453.297729712 -693.865043057 286.642615953 -561.505608679 c 0,28,29
 119.987502193 -429.146174301 119.987502193 -429.146174301 119.975585909 -162.312452173 c 0,30,31
 119.99939399 222.211874664 119.99939399 222.211874664 488.856433977 384.506569672 c 2,32,-1
 507.442266535 392.684214937 l 1,33,-1
 494.163337875 408.045761329 l 2,34,35
 454.873640165 453.497508949 454.873640165 453.497508949 428.794676143 500.581031378 c 0,36,37
 402.715712121 547.664553806 402.715712121 547.664553806 389.804779384 596.151234833 c 0,38,39
 376.893846647 644.63791586 376.893846647 644.63791586 376.843711462 695.036310547 c 0,40,41
 376.993564471 761.143965471 376.993564471 761.143965471 403.294376102 828.119484642 c 0,42,43
 411.789363515 849.270091727 411.789363515 849.270091727 423.177725815 869.438946888 c 0,44,45
 434.566088115 889.607802049 434.566088115 889.607802049 448.936750815 908.895688106 c 0,46,47
 463.307413515 928.183574164 463.307413515 928.183574164 480.602084482 946.46679062 c 0,48,49
 577.464527414 1049 577.464527414 1049 754 1049 c 0,50,51
 897.85841787 1049 897.85841787 1049 1066.79400947 936.328972022 c 1,52,-1
 1011.48648601 813.661993505 l 1,53,54
 867.6672441 895.997436831 867.6672441 895.997436831 763.966307287 895.802716821 c 0,55,56
 626.521132595 896.012989056 626.521132595 896.012989056 563.062464715 790.398092237 c 0,57,58
 547.191615283 764.580860405 547.191615283 764.580860405 539.143487576 737.337926147 c 0,59,60
 531.095359868 710.09499189 531.095359868 710.09499189 531.206893939 682.170438049 c 0,61,62
 530.983965506 633.536286847 530.983965506 633.536286847 556.107128461 582.572989967 c 0,63,64
 567.882437798 558.850319462 567.882437798 558.850319462 589.526232428 526.946420006 c 0,65,66
 611.170027059 495.042520551 611.170027059 495.042520551 643.193925975 453.994981359 c 2,67,-1
 648.715698005 446.917293711 l 1,68,-1
 657.562677312 448.438670041 l 2,0,1
EndSplineSet
Substitution2: "'fina' Terminal Forms in Arabic lookup 9 subtable" uniFECA
Substitution2: "'medi' Medial Forms in Arabic lookup 11 subtable" uniFECC
Substitution2: "'init' Initial Forms in Arabic lookup 13 subtable" uniFECB
EndChar

StartChar: afii57440
Encoding: 1600 1600 35
GlifName: afii57440
Width: 286
VWidth: 2952
GlyphClass: 2
Flags: W
AnchorPoint: "Anchor-10" 143.774 1376.11 basechar 0
AnchorPoint: "Anchor-7" 147.7 -234.739 basechar 0
LayerCount: 2
Fore
SplineSet
-6.9384765625 15 m 2,0,1
 -39.9067846907 15 -39.9067846907 15 -54.8425525016 31.9500101536 c 128,-1,2
 -69.7783203125 48.9000203072 -69.7783203125 48.9000203072 -69.7783203125 88.3134765625 c 2,3,-1
 -69.778376755 107.233532185 l 2,4,5
 -69.8751106826 142.495392576 -69.8751106826 142.495392576 -55.1727951833 157.747208007 c 128,-1,6
 -40.4704796841 172.999023438 -40.4704796841 172.999023438 -6.9384765625 172.999023438 c 2,7,-1
 292.049773899 172.999023438 l 1,8,9
 299.771484375 158.687731571 299.771484375 158.687731571 299.771484375 107.174804688 c 2,10,-1
 299.771484375 88.2667526951 l 2,11,12
 300.061196187 31.2148144018 300.061196187 31.2148144018 291.982747862 15 c 1,13,-1
 -6.9384765625 15 l 2,0,1
EndSplineSet
EndChar

StartChar: uni0643
Encoding: 1603 1603 38
GlifName: uni0643
Width: 1981
VWidth: 2952
GlyphClass: 2
Flags: W
AnchorPoint: "Anchor-7" 750.268 -236.468 basechar 0
AnchorPoint: "Anchor-10" 943.11 1606.05 basechar 0
LayerCount: 2
Fore
SplineSet
950.371866212 173.215855157 m 0,0,1
 965.949955791 173.17954604 965.949955791 173.17954604 982.192386358 173.45198081 c 0,2,3
 998.434816925 173.724415579 998.434816925 173.724415579 1015.33323235 174.305374142 c 0,4,5
 1032.23164777 174.886332706 1032.23164777 174.886332706 1049.78952148 175.774840768 c 0,6,7
 1067.3473952 176.66334883 1067.3473952 176.66334883 1085.57105497 177.860027677 c 0,8,9
 1103.79471473 179.056706524 1103.79471473 179.056706524 1122.67197118 180.559684392 c 0,10,11
 1141.54922762 182.062662259 1141.54922762 182.062662259 1161.10109239 183.873401811 c 0,12,13
 1408.82040261 206.799823972 1408.82040261 206.799823972 1534.43262783 303.998853549 c 0,14,15
 1660.04485305 401.197883127 1660.04485305 401.197883127 1656.82910156 572.104973106 c 2,16,-1
 1656.82910156 1449.56640625 l 1,17,-1
 1804.70996094 1449.56640625 l 1,18,-1
 1804.70996977 574.322593522 l 2,19,20
 1804.99235198 314.041306622 1804.99235198 314.041306622 1642.88808465 179.616766106 c 0,21,22
 1445.56467077 15 1445.56467077 15 952.133789062 15 c 0,23,24
 465.907140478 15 465.907140478 15 284.49918404 147.927213768 c 0,25,26
 124.974168741 263.667869631 124.974168741 263.667869631 124.161121881 504.548382342 c 0,27,28
 124.087697774 565.3671278 124.087697774 565.3671278 134.024618093 620.138971799 c 0,29,30
 143.961538411 674.910815799 143.961538411 674.910815799 163.584695101 723.138265655 c 1,31,-1
 298.482319227 665.98018775 l 1,32,33
 276.104310103 599.480451745 276.104310103 599.480451745 277.454279157 516.687793195 c 0,34,35
 278.257496077 431.592436996 278.257496077 431.592436996 310.670166547 368.090943523 c 0,36,37
 343.082837016 304.58945005 343.082837016 304.58945005 406.69944751 264.778721781 c 0,38,39
 552.703637695 174.008534215 552.703637695 174.008534215 950.371866212 173.215855157 c 0,0,1
741.16015625 755.380968647 m 1,40,41
 769.844121904 752.510838949 769.844121904 752.510838949 795.371759326 750.569542653 c 0,42,43
 820.899396748 748.628246358 820.899396748 748.628246358 843.986403682 747.56185141 c 0,44,45
 867.073410617 746.495456461 867.073410617 746.495456461 888.44296311 746.266802523 c 0,46,47
 943.216260367 746.129634386 943.216260367 746.129634386 984.298747594 751.679510692 c 0,48,49
 1025.38123482 757.229386998 1025.38123482 757.229386998 1054.23424302 769.041363689 c 0,50,51
 1074.03894313 777.221613069 1074.03894313 777.221613069 1088.00733151 789.077076637 c 0,52,53
 1101.97571989 800.932540205 1101.97571989 800.932540205 1109.71031326 816.794858138 c 0,54,55
 1117.44490664 832.657176072 1117.44490664 832.657176072 1117.74636961 851.478711178 c 0,56,57
 1117.81797179 863.752819019 1117.81797179 863.752819019 1115.5684351 875.103133965 c 0,58,59
 1113.3188984 886.45344891 1113.3188984 886.45344891 1108.83755123 896.603079783 c 0,60,61
 1104.35620406 906.752710657 1104.35620406 906.752710657 1097.59654232 915.669084719 c 0,62,63
 1090.83688058 924.585458782 1090.83688058 924.585458782 1081.97654089 931.93808056 c 0,64,65
 1048.50504751 961.241172853 1048.50504751 961.241172853 983.250849155 970.2944618 c 0,66,67
 880.486487537 985.91834226 880.486487537 985.91834226 832.286602476 1034.78883081 c 0,68,69
 784.086717415 1083.65931936 784.086717415 1083.65931936 785.926146603 1168.12407969 c 0,70,71
 790.550699269 1356.51290744 790.550699269 1356.51290744 1148.61035156 1387.3158382 c 1,72,-1
 1148.61035156 1288.60378253 l 1,73,74
 1021.50927357 1275.63111786 1021.50927357 1275.63111786 955.282664664 1245.16357342 c 0,75,76
 889.056055763 1214.69602898 889.056055763 1214.69602898 889.139674829 1160.47345024 c 0,77,78
 889.096686898 1137.55697483 889.096686898 1137.55697483 899.561394021 1119.06094448 c 0,79,80
 910.026101145 1100.56491413 910.026101145 1100.56491413 930.071507675 1087.14324297 c 0,81,82
 950.116914204 1073.7215718 950.116914204 1073.7215718 977.579274557 1064.54791522 c 0,83,84
 1005.04163491 1055.37425863 1005.04163491 1055.37425863 1040.63128712 1049.93185649 c 0,85,86
 1102.22374593 1040.43963114 1102.22374593 1040.43963114 1142.11165353 1016.05187666 c 0,87,88
 1181.99956112 991.664122194 1181.99956112 991.664122194 1201.28183938 952.024927263 c 0,89,90
 1220.56411763 912.385732333 1220.56411763 912.385732333 1220.36432564 856.17206152 c 0,91,92
 1220.02674026 743.914513573 1220.02674026 743.914513573 1109.20152985 683.39944257 c 0,93,94
 1037.17049693 644.002500645 1037.17049693 644.002500645 905.983337413 644.088857933 c 0,95,96
 832.410701701 644.007130518 832.410701701 644.007130518 741.16015625 657.285586885 c 1,97,-1
 741.16015625 755.380968647 l 1,40,41
EndSplineSet
Substitution2: "'fina' Terminal Forms in Arabic lookup 9 subtable" uniFEDA
Substitution2: "'medi' Medial Forms in Arabic lookup 11 subtable" uniFEDC
Substitution2: "'init' Initial Forms in Arabic lookup 13 subtable" uniFEDB
EndChar

StartChar: uni0644
Encoding: 1604 1604 39
GlifName: uni0644
Width: 1441
VWidth: 2952
GlyphClass: 2
Flags: W
AnchorPoint: "Anchor-7" 595.902 -800.086 basechar 0
AnchorPoint: "Anchor-10" 593.908 1221.66 basechar 0
LayerCount: 2
Fore
SplineSet
1127.6044674 99.775314268 m 2,0,-1
 1130.88071991 1452.99316406 l 1,1,-1
 1272.87675243 1452.99316406 l 1,2,-1
 1272.18555945 299.340708374 l 2,3,4
 1272.09316355 227.971687429 1272.09316355 227.971687429 1269.76954847 160.490066033 c 0,5,6
 1267.44593338 93.0084446371 1267.44593338 93.0084446371 1262.90224249 29.6263839088 c 0,7,8
 1249.19371132 -151.30966122 1249.19371132 -151.30966122 1180.5619544 -270.761643517 c 0,9,10
 1111.93019749 -390.213625814 1111.93019749 -390.213625814 987.494420784 -449.517500649 c 0,11,12
 863.058644083 -508.821375485 863.058644083 -508.821375485 681.422822974 -508.734376571 c 0,13,14
 396.375781272 -508.864824103 396.375781272 -508.864824103 256.63127628 -372.553046052 c 0,15,16
 116.886771287 -236.241268002 116.886771287 -236.241268002 117.740117651 40.6926383463 c 0,17,18
 117.868064262 90.5593242735 117.868064262 90.5593242735 122.97308718 140.000698212 c 0,19,20
 128.078110099 189.44207215 128.078110099 189.44207215 138.15068617 238.384621224 c 0,21,22
 147.950555431 285.511717883 147.950555431 285.511717883 162.304521511 333.320513467 c 0,23,24
 176.658487591 381.129309052 176.658487591 381.129309052 194.67213088 426.951667015 c 1,25,-1
 329.546003759 372.728196463 l 1,26,27
 267.006585603 206.393854863 267.006585603 206.393854863 267.246445413 38.1962882683 c 0,28,29
 267.119645479 -157.932536226 267.119645479 -157.932536226 371.968637474 -258.021518855 c 0,30,31
 476.817629468 -358.110501484 476.817629468 -358.110501484 681.79307366 -358.22677144 c 0,32,33
 902.332004176 -358.110521635 902.332004176 -358.110521635 1014.81359994 -242.441731896 c 0,34,35
 1127.29519571 -126.772942156 1127.29519571 -126.772942156 1127.6044674 99.775314268 c 2,0,-1
EndSplineSet
Substitution2: "'fina' Terminal Forms in Arabic lookup 9 subtable" uniFEDE
Substitution2: "'medi' Medial Forms in Arabic lookup 11 subtable" uniFEE0
Substitution2: "'init' Initial Forms in Arabic lookup 13 subtable" uniFEDF
EndChar

StartChar: uni0645
Encoding: 1605 1605 40
GlifName: uni0645
Width: 1242
VWidth: 2622
GlyphClass: 2
Flags: W
AnchorPoint: "Anchor-7" 724.983 -346.909 basechar 0
AnchorPoint: "Anchor-10" 697.239 1374.48 basechar 0
LayerCount: 2
Fore
SplineSet
841.942308546 147 m 0,0,1
 870.160749574 146.782935069 870.160749574 146.782935069 893.302569009 153.134779524 c 0,2,3
 916.444388443 159.486623979 916.444388443 159.486623979 933.889820857 172.135374975 c 0,4,5
 951.335253272 184.78412597 951.335253272 184.78412597 963.252757979 203.394736551 c 0,6,7
 975.170262687 222.005347131 975.170262687 222.005347131 981.225880758 246.505718677 c 0,8,9
 987.28149883 271.006090222 987.28149883 271.006090222 987.357883081 300.861271552 c 0,10,11
 985.888345701 361.994026556 985.888345701 361.994026556 964.416755645 416.42741578 c 0,12,13
 917.171031199 532.82520509 917.171031199 532.82520509 792.020154995 535.003264249 c 0,14,15
 717.956769275 536.091374311 717.956769275 536.091374311 661.790965902 480.717763675 c 0,16,17
 605.625162529 425.344153039 605.625162529 425.344153039 567.235894353 317.637607628 c 2,18,-1
 563.805891288 308.014246767 l 1,19,-1
 571.504506868 301.298197822 l 2,20,21
 748.376730338 147 748.376730338 147 841.942308546 147 c 0,0,1
1128.39252956 313.018700697 m 0,22,23
 1128.01324913 171.948082585 1128.01324913 171.948082585 1062.35423231 82.8534502074 c 0,24,25
 1041.37939061 53.9388831041 1041.37939061 53.9388831041 1012.18774531 34.2807814073 c 0,26,27
 982.996100014 14.6226797105 982.996100014 14.6226797105 944.406292228 3.9374581403 c 0,28,29
 905.816484442 -6.74776342988 905.816484442 -6.74776342988 857.961133896 -8.04995625692 c 0,30,31
 758.052370029 -10.8792293316 758.052370029 -10.8792293316 614.687396206 77.4152595968 c 0,32,33
 566.34628532 107.091144051 566.34628532 107.091144051 511.029741212 135.340259518 c 0,34,35
 474.411550132 154.106745733 474.411550132 154.106745733 428.062040776 152.744492955 c 0,36,37
 341.654543926 151.733849224 341.654543926 151.733849224 303.011708119 20.1637485175 c 0,38,39
 264.368872313 -111.406352189 264.368872313 -111.406352189 264.751487756 -368.019019702 c 0,40,41
 264.98823605 -554.731808874 264.98823605 -554.731808874 277.5116356 -709.813476562 c 1,42,-1
 124.312549672 -709.813476562 l 1,43,44
 113.044030393 -527.950365224 113.044030393 -527.950365224 114.061057993 -364.118165632 c 0,45,46
 116.971799684 5.36126624657 116.971799684 5.36126624657 191.364942751 152.189838089 c 0,47,48
 267.875764161 302.342325106 267.875764161 302.342325106 394.944854627 321.882272046 c 2,49,-1
 403.438012966 323.188300623 l 1,50,-1
 406.60744004 331.175426591 l 2,51,52
 550.207973057 693.056460418 550.207973057 693.056460418 788.972246057 694.381945026 c 0,53,54
 943.926841571 694.972915106 943.926841571 694.972915106 1035.40389944 583.485250825 c 0,55,56
 1053.94601817 560.88704363 1053.94601817 560.88704363 1068.76499843 536.597330617 c 0,57,58
 1083.5839787 512.307617603 1083.5839787 512.307617603 1094.73719543 486.200587848 c 0,59,60
 1105.89041216 460.093558093 1105.89041216 460.093558093 1113.33714927 432.189078356 c 0,61,62
 1120.78388637 404.28459862 1120.78388637 404.28459862 1124.55004103 374.49709736 c 0,63,64
 1128.31619569 344.7095961 1128.31619569 344.7095961 1128.39252956 313.018700697 c 0,22,23
EndSplineSet
Substitution2: "'init' Initial Forms in Arabic lookup 13 subtable" uniFEE3
Substitution2: "'medi' Medial Forms in Arabic lookup 11 subtable" uniFEE4
Substitution2: "'fina' Terminal Forms in Arabic lookup 9 subtable" uniFEE2
EndChar

StartChar: uni0647
Encoding: 1607 1607 42
GlifName: uni0647
Width: 942
VWidth: 2952
GlyphClass: 2
Flags: W
AnchorPoint: "Anchor-10" 430.775 1379.01 basechar 0
AnchorPoint: "Anchor-7" 450.63 -240.576 basechar 0
LayerCount: 2
Fore
SplineSet
451.988500448 655.454664319 m 2,0,1
 257.006204343 484.811057594 257.006204343 484.811057594 256.884557184 350.978704993 c 0,2,3
 256.915766 306.917598352 256.915766 306.917598352 271.343328092 273.320359648 c 128,-1,4
 285.770890184 239.723120943 285.770890184 239.723120943 313.642950258 217.585530675 c 128,-1,5
 341.515010332 195.447940408 341.515010332 195.447940408 382.12214474 184.221074726 c 128,-1,6
 422.729279148 172.994209045 422.729279148 172.994209045 475.346275737 172.992187511 c 0,7,8
 582.009563262 172.996259289 582.009563262 172.996259289 638.602246282 218.283677101 c 128,-1,9
 695.194929302 263.571094913 695.194929302 263.571094913 695.423821373 352.201556449 c 0,10,11
 694.974058692 477.238849627 694.974058692 477.238849627 471.226492604 655.888912166 c 2,12,-1
 461.425962306 663.714093826 l 1,13,-1
 451.988500448 655.454664319 l 2,0,1
375.651467645 949.929657787 m 1,14,15
 835.99161906 611.834307428 835.99161906 611.834307428 835.791836946 346.360634555 c 0,16,17
 835.892812846 255.471547406 835.892812846 255.471547406 796.817842414 186.149768466 c 128,-1,18
 757.742871982 116.827989527 757.742871982 116.827989527 678.326802382 67.2304895024 c 0,19,20
 640.826103932 43.8102812046 640.826103932 43.8102812046 590.229449532 31.6979669114 c 128,-1,21
 539.632795131 19.5856526183 539.632795131 19.5856526183 476.026700155 19.1943166075 c 0,22,23
 358.531490269 19.005688814 358.531490269 19.005688814 276.156812403 60.2170058558 c 0,24,25
 116.015816737 140.263829712 116.015816737 140.263829712 116.368318982 345.815528318 c 0,26,27
 116.011317453 545.677490103 116.011317453 545.677490103 348.368019155 771.77398066 c 2,28,-1
 360.234110271 783.320372644 l 1,29,-1
 347.575924911 793.992468484 l 1,30,-1
 293.333627786 839.724062472 l 1,31,-1
 375.651467645 949.929657787 l 1,14,15
EndSplineSet
Substitution2: "'fina' Terminal Forms in Arabic lookup 9 subtable" uniFEEA
Substitution2: "'medi' Medial Forms in Arabic lookup 11 subtable" uniFEEC
Substitution2: "'init' Initial Forms in Arabic lookup 13 subtable" uniFEEB
EndChar

StartChar: uni0648
Encoding: 1608 1608 43
GlifName: uni0648
Width: 910
VWidth: 2144
GlyphClass: 2
Flags: W
AnchorPoint: "Anchor-7" 364.969 -769.998 basechar 0
AnchorPoint: "Anchor-10" 459.256 1370.2 basechar 0
LayerCount: 2
Fore
SplineSet
645.597647833 206.585397286 m 2,0,1
 623.047997694 549.98982371 623.047997694 549.98982371 437.387789809 550.124013249 c 0,2,3
 320.231267596 549.987458413 320.231267596 549.987458413 276.232482253 419.778715203 c 0,4,5
 256.99195755 363.468391618 256.99195755 363.468391618 257.159190341 312.580376976 c 0,6,7
 257.070717706 238.345865867 257.070717706 238.345865867 311.951474661 201.500961267 c 0,8,9
 366.832231616 164.656056667 366.832231616 164.656056667 469.069104238 165.36372211 c 0,10,11
 511.68172813 165.690436098 511.68172813 165.690436098 553.213633377 172.173997562 c 0,12,13
 594.745538623 178.657559026 594.745538623 178.657559026 635.109099607 191.286931604 c 2,14,-1
 646.370838395 194.81062207 l 1,15,-1
 645.597647833 206.585397286 l 2,0,1
468.151522574 12.8115404758 m 0,16,17
 289.977002114 12.9034996742 289.977002114 12.9034996742 203.989773032 83.6947110827 c 0,18,19
 118.002543951 154.485922491 118.002543951 154.485922491 118.0048828 298.354122706 c 0,20,21
 118.00013719 415.610561117 118.00013719 415.610561117 168.183975528 520.969964933 c 0,22,23
 213.764177024 615.92860009 213.764177024 615.92860009 283.484143769 662.484389044 c 0,24,25
 353.204110514 709.040177998 353.204110514 709.040177998 449.099793137 709.077149512 c 0,26,27
 642.691903608 709.003899244 642.691903608 709.003899244 726.989121708 489.555858393 c 0,28,29
 786.983416041 334.246460686 786.983416041 334.246460686 785.833346755 140.264899823 c 0,30,31
 783.973181015 -136.436768237 783.973181015 -136.436768237 619.501052652 -296.809030083 c 0,32,33
 455.028924289 -457.181291928 455.028924289 -457.181291928 124.6037593 -503.489351254 c 1,34,-1
 89.3169830591 -362.34224629 l 1,35,36
 329.818499206 -326.338323767 329.818499206 -326.338323767 469.140130892 -233.74404295 c 0,37,38
 608.461762578 -141.149762133 608.461762578 -141.149762133 644.879309145 9.58176976975 c 2,39,-1
 649.985645832 30.7168000999 l 1,40,-1
 628.414711011 27.9856918267 l 2,41,42
 589.075020419 23.0048713228 589.075020419 23.0048713228 557.722147434 19.6275518363 c 0,43,44
 526.36927445 16.2502323497 526.36927445 16.2502323497 504.053552463 14.5607876309 c 0,45,46
 481.737830477 12.8713429121 481.737830477 12.8713429121 468.151522574 12.8115404758 c 0,16,17
EndSplineSet
Substitution2: "'fina' Terminal Forms in Arabic lookup 9 subtable" uniFEEE
EndChar

StartChar: uni0649
Encoding: 1609 1609 44
GlifName: uni0649
Width: 1524
VWidth: 2952
GlyphClass: 2
Flags: MW
AnchorPoint: "Anchor-10" 717.6 1368.22 basechar 0
AnchorPoint: "Anchor-7" 595.902 -800.086 basechar 0
LayerCount: 2
Fore
SplineSet
1266.80733781 -50.7513170098 m 0,0,1
 1266.92644037 -15.0652902769 1266.92644037 -15.0652902769 1241.88461813 3.37219446796 c 128,-1,2
 1216.84279588 21.8096792128 1216.84279588 21.8096792128 1173.63750811 22.0144799208 c 2,3,-1
 1030.46886143 22.6931181295 l 2,4,5
 1020.11985682 22.751813361 1020.11985682 22.751813361 1010.2907397 23.2556900258 c 0,6,7
 910.995686849 28.3459193373 910.995686849 28.3459193373 866.073594502 77.2868749556 c 128,-1,8
 821.151502156 126.227830574 821.151502156 126.227830574 826.237519463 223.474916637 c 0,9,10
 835.692355601 400.829633367 835.692355601 400.829633367 942.054596499 516.861168892 c 0,11,12
 1092.18322696 680.549804688 1092.18322696 680.549804688 1367 680.549804688 c 2,13,-1
 1373.35217797 680.549804688 l 1,14,-1
 1373.09407339 517.740234375 l 1,15,-1
 1366.024353 517.740214606 l 2,16,17
 1201.29470637 518.007658979 1201.29470637 518.007658979 1099.40451159 446.906270266 c 0,18,19
 1060.99916731 420.05253345 1060.99916731 420.05253345 1034.52325332 389.611673398 c 128,-1,20
 1008.04733933 359.170813345 1008.04733933 359.170813345 993.608232012 324.720287318 c 128,-1,21
 979.169124696 290.269761291 979.169124696 290.269761291 977.581575991 252.67071696 c 0,22,23
 975.674407502 210.061216942 975.674407502 210.061216942 998.465197875 191.789831922 c 0,24,25
 1019.36045368 174.125850741 1019.36045368 174.125850741 1070.02664294 174.215843974 c 2,26,-1
 1181.09693485 174.413130074 l 2,27,28
 1297.60851715 174.695772219 1297.60851715 174.695772219 1352.6315393 128.991357342 c 128,-1,29
 1407.65456144 83.2869424649 1407.65456144 83.2869424649 1407.34963674 -10.9283815227 c 0,30,31
 1407.01144898 -187.991396781 1407.01144898 -187.991396781 1294.10697502 -306.632633893 c 0,32,33
 1259.11004084 -343.600644025 1259.11004084 -343.600644025 1216.59360258 -373.425867091 c 128,-1,34
 1174.07716432 -403.251090156 1174.07716432 -403.251090156 1123.76143018 -426.069179079 c 0,35,36
 957.725409571 -502.003343675 957.725409571 -502.003343675 755.991128785 -502.208985143 c 0,37,38
 433.975016294 -502.105925809 433.975016294 -502.105925809 275.926564849 -370.179003162 c 128,-1,39
 117.878113404 -238.252080514 117.878113404 -238.252080514 117.761709537 27.9931406068 c 0,40,41
 117.991382708 235.216700569 117.991382708 235.216700569 250.351434858 538.007035561 c 1,42,-1
 385.065035482 483.847673987 l 1,43,44
 267.002656672 211.215697072 267.002656672 211.215697072 267.268558765 31.244458157 c 0,45,46
 267.12932452 -157.595151159 267.12932452 -157.595151159 391.712188078 -252.946313606 c 128,-1,47
 516.295051637 -348.297476053 516.295051637 -348.297476053 758.843913852 -348.605427934 c 0,48,49
 931.280602844 -349.007693914 931.280602844 -349.007693914 1075.3121293 -282.470492672 c 0,50,51
 1112.95391541 -265.009215218 1112.95391541 -265.009215218 1144.97682402 -242.734542934 c 128,-1,52
 1176.99973264 -220.45987065 1176.99973264 -220.45987065 1203.17119337 -193.477293304 c 0,53,54
 1265.9319935 -129.176663706 1265.9319935 -129.176663706 1266.80733781 -50.7513170098 c 0,0,1
EndSplineSet
Substitution2: "'fina' Terminal Forms in Arabic lookup 9 subtable" uniFEF0
Substitution2: "'medi' Medial Forms in Arabic lookup 11 subtable" uniFBE9
Substitution2: "'init' Initial Forms in Arabic lookup 13 subtable" uniFBE8
EndChar

StartChar: uni064B
Encoding: 1611 1611 46
GlifName: uni064B_
Width: -26
VWidth: 2316
GlyphClass: 4
Flags: W
AnchorPoint: "Anchor-10" 593.551 1113.65 mark 0
AnchorPoint: "Anchor-9" 593.551 1113.65 mark 0
AnchorPoint: "Anchor-1" 553.285 1666.25 basemark 0
AnchorPoint: "Anchor-1" 593.551 1113.65 mark 0
LayerCount: 2
Fore
SplineSet
334.200195312 1087.57189003 m 1,0,-1
 334.200195312 1174.94241474 l 1,1,-1
 774.599609375 1355.10679873 l 1,2,-1
 774.599609375 1267.73532962 l 1,3,-1
 334.200195312 1087.57189003 l 1,0,-1
334.200195312 1339.57189003 m 1,4,-1
 334.200195312 1426.94241474 l 1,5,-1
 774.599609375 1607.10679873 l 1,6,-1
 774.599609375 1519.73532962 l 1,7,-1
 334.200195312 1339.57189003 l 1,4,-1
EndSplineSet
EndChar

StartChar: uni064C
Encoding: 1612 1612 47
GlifName: uni064C_
Width: -26
VWidth: 2316
GlyphClass: 4
Flags: W
AnchorPoint: "Anchor-10" 680.906 1218.67 mark 0
AnchorPoint: "Anchor-9" 680.906 1218.67 mark 0
AnchorPoint: "Anchor-1" 571.739 1915.46 basemark 0
AnchorPoint: "Anchor-1" 680.906 1218.67 mark 0
LayerCount: 2
Fore
SplineSet
581.975600334 1722.04572428 m 0,0,1
 560.526308342 1696.78568216 560.526308342 1696.78568216 560.213690478 1664.11018006 c 0,2,3
 560.314977475 1643.54615409 560.314977475 1643.54615409 568.477132853 1626.34312455 c 128,-1,4
 576.63928823 1609.14009501 576.63928823 1609.14009501 592.235822987 1595.83796014 c 128,-1,5
 607.832357745 1582.53582526 607.832357745 1582.53582526 630.675238958 1572.93190832 c 0,6,7
 635.50078295 1570.90308703 635.50078295 1570.90308703 641.393996509 1568.6763154 c 128,-1,8
 647.287210067 1566.44954378 647.287210067 1566.44954378 654.223756187 1564.03174205 c 128,-1,9
 661.160302307 1561.61394032 661.160302307 1561.61394032 669.202834588 1558.98276075 c 128,-1,10
 677.24536687 1556.35158118 677.24536687 1556.35158118 686.326430953 1553.52622728 c 128,-1,11
 695.407495036 1550.70087338 695.407495036 1550.70087338 705.632861876 1547.64671413 c 2,12,-1
 711.258110466 1545.96653921 l 1,13,-1
 714.23990757 1551.02374155 l 2,14,15
 728.31392922 1574.89363369 728.31392922 1574.89363369 735.407431756 1599.38451517 c 128,-1,16
 742.500934292 1623.87539666 742.500934292 1623.87539666 742.501953124 1648.8204617 c 0,17,18
 742.500932611 1700.11956512 742.500932611 1700.11956512 720.130482541 1727.14701177 c 128,-1,19
 697.76003247 1754.17445841 697.76003247 1754.17445841 654.247687743 1753.79376423 c 0,20,21
 639.226363768 1753.68937964 639.226363768 1753.68937964 626.135218502 1750.14682587 c 128,-1,22
 613.044073237 1746.60427209 613.044073237 1746.60427209 601.92147975 1739.55361864 c 128,-1,23
 590.798886262 1732.50296518 590.798886262 1732.50296518 581.975600334 1722.04572428 c 0,0,1
311.468026132 1506.97949219 m 1,24,25
 317.994283777 1280.45035176 317.994283777 1280.45035176 452.613152912 1281.77577614 c 0,26,27
 471.435708644 1281.96663044 471.435708644 1281.96663044 490.472039056 1286.94691099 c 128,-1,28
 509.508369469 1291.92719154 509.508369469 1291.92719154 528.650393138 1301.63883793 c 128,-1,29
 547.792416806 1311.35048433 547.792416806 1311.35048433 567.027211739 1325.60714882 c 128,-1,30
 586.262006671 1339.86381332 586.262006671 1339.86381332 605.774335288 1358.76270021 c 0,31,32
 651.137295455 1403.51930751 651.137295455 1403.51930751 691.318626486 1482.79277627 c 2,33,-1
 695.729460988 1491.49488101 l 1,34,-1
 686.185868904 1493.52020518 l 1,35,-1
 656.618510893 1499.79490444 l 2,36,37
 559.281809504 1520.75002605 559.281809504 1520.75002605 524.298467218 1566.55906304 c 0,38,39
 493.5 1607.50575555 493.5 1607.50575555 493.5 1655.09960938 c 0,40,41
 493.5 1671.56512321 493.5 1671.56512321 495.349150762 1686.1757283 c 128,-1,42
 497.198301524 1700.7863334 497.198301524 1700.7863334 500.796646057 1713.25287465 c 128,-1,43
 504.39499059 1725.7194159 504.39499059 1725.7194159 509.737016114 1736.26624116 c 0,44,45
 551.583080953 1817.5183969 551.583080953 1817.5183969 650.235986353 1817.91431205 c 0,46,47
 718.994911151 1818.47523545 718.994911151 1818.47523545 759.974937 1778.89153996 c 0,48,49
 782.668474981 1756.92345722 782.668474981 1756.92345722 794.184658507 1724.92793143 c 128,-1,50
 805.700842033 1692.93240565 805.700842033 1692.93240565 805.890877278 1650.30560003 c 0,51,52
 806.03624919 1640.67284707 806.03624919 1640.67284707 804.792731767 1629.18586898 c 128,-1,53
 803.549214343 1617.69889089 803.549214343 1617.69889089 800.911694499 1604.34885262 c 128,-1,54
 798.274174656 1590.99881435 798.274174656 1590.99881435 794.18442599 1575.71358012 c 128,-1,55
 790.094677323 1560.42834588 790.094677323 1560.42834588 784.59890088 1543.42588544 c 2,56,-1
 781.59773189 1534.14107235 l 1,57,-1
 791.342115849 1533.62945667 l 1,58,-1
 821.472021147 1532.04752704 l 2,59,60
 846.704300302 1530.71621813 846.704300302 1530.71621813 872.997070312 1530.15707962 c 1,61,-1
 872.997070312 1466.70216528 l 1,62,63
 867.489966856 1466.84823932 867.489966856 1466.84823932 862.569367636 1466.9981807 c 128,-1,64
 857.648768416 1467.14812209 857.648768416 1467.14812209 853.453049771 1467.29716542 c 128,-1,65
 849.257331125 1467.44620876 849.257331125 1467.44620876 845.693530349 1467.59595782 c 128,-1,66
 842.129729573 1467.74570688 842.129729573 1467.74570688 839.276604535 1467.89330302 c 128,-1,67
 836.423479496 1468.04089916 836.423479496 1468.04089916 834.251660526 1468.1859123 c 128,-1,68
 832.079841556 1468.33092544 832.079841556 1468.33092544 830.60846805 1468.47240366 c 2,69,-1
 754.43659305 1475.79662241 l 1,70,-1
 748.895555396 1476.32941449 l 1,71,-1
 746.780958919 1471.18009925 l 2,72,73
 701.04686967 1361.28730462 701.04686967 1361.28730462 615.096303189 1286.77463389 c 0,74,75
 537.177526682 1218.49873379 537.177526682 1218.49873379 453.640755366 1218.46376614 c 0,76,77
 365.825276396 1218.00791413 365.825276396 1218.00791413 320.049075503 1289.50506056 c 128,-1,78
 274.272874611 1361.00220699 274.272874611 1361.00220699 270.797613128 1506.97949219 c 1,79,-1
 311.468026132 1506.97949219 l 1,24,25
EndSplineSet
EndChar

StartChar: uni064D
Encoding: 1613 1613 48
GlifName: uni064D_
Width: -26
VWidth: 2316
GlyphClass: 4
Flags: W
AnchorPoint: "Anchor-7" 546.278 61.7109 mark 0
AnchorPoint: "Anchor-6" 546.278 61.7109 mark 0
AnchorPoint: "Anchor-0" 592.022 -447.025 basemark 0
AnchorPoint: "Anchor-0" 546.278 61.7109 mark 0
LayerCount: 2
Fore
SplineSet
339.599609375 -474.82850966 m 1,0,-1
 339.599609375 -387.457979969 l 1,1,-1
 780 -207.293582825 l 1,2,-1
 780 -294.665056912 l 1,3,-1
 339.599609375 -474.82850966 l 1,0,-1
339.599609375 -222.82850966 m 1,4,-1
 339.599609375 -135.457979969 l 1,5,-1
 780 44.7064171749 l 1,6,-1
 780 -42.6650569121 l 1,7,-1
 339.599609375 -222.82850966 l 1,4,-1
EndSplineSet
EndChar

StartChar: uni064E
Encoding: 1614 1614 49
GlifName: uni064E_
Width: -26
VWidth: 2316
GlyphClass: 4
Flags: W
AnchorPoint: "Anchor-10" 581.66 1364.63 mark 0
AnchorPoint: "Anchor-9" 581.66 1364.63 mark 0
AnchorPoint: "Anchor-1" 541.396 1691.77 basemark 0
AnchorPoint: "Anchor-1" 581.66 1364.63 mark 0
LayerCount: 2
Fore
SplineSet
303.599609375 1360.27112189 m 1,0,-1
 303.599609375 1447.64260597 l 1,1,-1
 744 1627.80700311 l 1,2,-1
 744 1540.43551903 l 1,3,-1
 303.599609375 1360.27112189 l 1,0,-1
EndSplineSet
EndChar

StartChar: uni064F
Encoding: 1615 1615 50
GlifName: uni064F_
Width: -26
VWidth: 2316
GlyphClass: 4
Flags: W
AnchorPoint: "Anchor-10" 611.295 1299.37 mark 0
AnchorPoint: "Anchor-9" 611.295 1299.37 mark 0
AnchorPoint: "Anchor-1" 580.134 1920.4 basemark 0
AnchorPoint: "Anchor-1" 611.295 1299.37 mark 0
LayerCount: 2
Fore
SplineSet
815.15234375 1481.52133426 m 1,0,1
 786.606464094 1481.69427024 786.606464094 1481.69427024 764.82830504 1482.88985803 c 128,-1,2
 743.050145985 1484.08544583 743.050145985 1484.08544583 724.967327194 1486.43735693 c 2,3,-1
 693.649944382 1490.51059912 l 1,4,-1
 689.179031975 1491.09210075 l 1,5,-1
 686.568153161 1487.41643568 l 2,6,7
 557.41763739 1305.59488311 557.41763739 1305.59488311 326.07421875 1290.61884306 c 1,8,-1
 326.07421875 1353.78652144 l 1,9,10
 513.978014126 1364.463747 513.978014126 1364.463747 612.030573166 1503.17169651 c 2,11,-1
 618.703726722 1512.61173005 l 1,12,-1
 607.363561559 1514.85803052 l 2,13,14
 565.589452002 1523.13279554 565.589452002 1523.13279554 520.168375363 1548.00112852 c 0,15,16
 437.512559286 1594.38442817 437.512559286 1594.38442817 437.749492191 1675.46545963 c 0,17,18
 438.468792386 1737.27470059 438.468792386 1737.27470059 471.971686978 1778.02098699 c 0,19,20
 515.520750423 1830.49826308 515.520750423 1830.49826308 592.975623596 1830.45996255 c 0,21,22
 651.358041213 1830.49826509 651.358041213 1830.49826509 694.007132762 1796.15840595 c 0,23,24
 724.711353884 1771.4345618 724.711353884 1771.4345618 738.709359787 1734.58418291 c 0,25,26
 748.48217346 1707.7268502 748.48217346 1707.7268502 748.046226077 1675.47049391 c 0,27,28
 747.781046173 1647.10146243 747.781046173 1647.10146243 741.500496858 1618.02648382 c 128,-1,29
 735.219947543 1588.95150521 735.219947543 1588.95150521 722.877211964 1559.11501103 c 2,30,-1
 718.975119118 1549.6823557 l 1,31,-1
 729.142846067 1548.77756635 l 1,32,-1
 748.95506651 1547.01454919 l 2,33,34
 783.888918436 1543.92300421 783.888918436 1543.92300421 815.15234375 1544.55488205 c 1,35,-1
 815.15234375 1481.52133426 l 1,0,1
656.814530897 1566.79653351 m 1,36,-1
 662.97601904 1581.00584066 l 2,37,38
 684.493858794 1630.42387915 684.493858794 1630.42387915 684.658148056 1673.74553774 c 0,39,40
 684.486391937 1718.5654029 684.486391937 1718.5654029 656.910205135 1741.12596873 c 0,41,42
 648.034701644 1748.77426258 648.034701644 1748.77426258 638.395423197 1754.01344243 c 128,-1,43
 628.75614475 1759.25262228 628.75614475 1759.25262228 618.346360916 1762.02631545 c 128,-1,44
 607.936577081 1764.80000863 607.936577081 1764.80000863 597.029568346 1764.9711615 c 0,45,46
 581.055396085 1765.15895001 581.055396085 1765.15895001 567.259637 1761.40076569 c 128,-1,47
 553.463877914 1757.64258137 553.463877914 1757.64258137 541.910394478 1749.86542347 c 128,-1,48
 530.356911042 1742.08826556 530.356911042 1742.08826556 521.407550566 1730.4103982 c 0,49,50
 502.984436432 1705.47925691 502.984436432 1705.47925691 502.367970003 1672.08605406 c 0,51,52
 502.513464805 1620.18644195 502.513464805 1620.18644195 572.582363561 1587.98635009 c 0,53,54
 596.396612811 1576.9400176 596.396612811 1576.9400176 647.916851446 1562.55651054 c 2,55,-1
 654.213663485 1560.79855594 l 1,56,-1
 656.814530897 1566.79653351 l 1,36,-1
EndSplineSet
EndChar

StartChar: uni0650
Encoding: 1616 1616 51
GlifName: uni0650
Width: -26
VWidth: 2316
GlyphClass: 4
Flags: W
AnchorPoint: "Anchor-7" 571.144 -21.8242 mark 0
AnchorPoint: "Anchor-6" 571.144 -21.8242 mark 0
AnchorPoint: "Anchor-0" 619.091 -334.624 basemark 0
AnchorPoint: "Anchor-0" 571.144 -21.8242 mark 0
LayerCount: 2
Fore
SplineSet
350.400390625 -334.428109964 m 1,0,-1
 350.400390625 -247.057585257 l 1,1,-1
 790.799804688 -66.8932012707 l 1,2,-1
 790.799804688 -154.264670376 l 1,3,-1
 350.400390625 -334.428109964 l 1,0,-1
EndSplineSet
EndChar

StartChar: uni0651
Encoding: 1617 1617 52
GlifName: uni0651
Width: -26
VWidth: 2393
GlyphClass: 4
Flags: W
AnchorPoint: "Anchor-10" 598.801 1463.71 mark 0
AnchorPoint: "Anchor-9" 598.801 1463.71 mark 0
AnchorPoint: "Anchor-1" 570.087 1849.1 basemark 0
AnchorPoint: "Anchor-1" 598.801 1463.71 mark 0
LayerCount: 2
Fore
SplineSet
608.421875 1768.46289062 m 1,0,1
 610.200195312 1727.09960938 610.200195312 1727.09960938 610.623046875 1685.90234375 c 0,2,3
 610.200195312 1593.90039062 610.200195312 1593.90039062 676.689453125 1594.25195312 c 0,4,5
 747 1594.79980469 747 1594.79980469 747.626953125 1695.16894531 c 0,6,7
 747.900390625 1733.40039062 747.900390625 1733.40039062 731.092773438 1812.90917969 c 1,8,-1
 819.168945312 1826.859375 l 1,9,10
 837 1764.90039062 837 1764.90039062 836.52734375 1705.04003906 c 0,11,12
 837 1503 837 1503 690.397460938 1501.66601562 c 4,13,14
 626.400390625 1501.20019531 626.400390625 1501.20019531 583.87890625 1555.26660156 c 1,15,16
 553.5 1438.20019531 553.5 1438.20019531 431.985351562 1437.88964844 c 0,17,18
 297 1438.20019531 297 1438.20019531 294.302734375 1606.5 c 0,19,20
 293.400390625 1665.90039062 293.400390625 1665.90039062 307.078125 1715.74121094 c 1,21,-1
 385.392578125 1702.72070312 l 1,22,23
 375.299804688 1656 375.299804688 1656 375.577148438 1619.63378906 c 0,24,25
 376.200195312 1536.29980469 376.200195312 1536.29980469 443.658203125 1535.90234375 c 0,26,27
 525.599609375 1535.40039062 525.599609375 1535.40039062 529.950195312 1649.21582031 c 0,28,29
 531.900390625 1700.09960938 531.900390625 1700.09960938 531.095703125 1768.46289062 c 1,30,-1
 608.421875 1768.46289062 l 1,0,1
EndSplineSet
EndChar

StartChar: uni0652
Encoding: 1618 1618 53
GlifName: uni0652
Width: -26
VWidth: 2316
GlyphClass: 4
Flags: W
AnchorPoint: "Anchor-10" 603.219 1222.43 mark 0
AnchorPoint: "Anchor-9" 603.219 1222.43 mark 0
AnchorPoint: "Anchor-1" 577.537 1799.66 basemark 0
AnchorPoint: "Anchor-1" 603.219 1222.43 mark 0
LayerCount: 2
Fore
SplineSet
405.639648438 1461.671875 m 128,-1,1
 405.639648438 1501.24284598 405.639648438 1501.24284598 419.216919554 1534.43177883 c 128,-1,2
 432.794190669 1567.62071167 432.794190669 1567.62071167 460.142122376 1594.96911441 c 0,3,4
 514.645626383 1649.47167969 514.645626383 1649.47167969 593.439453125 1649.47167969 c 128,-1,5
 672.232303305 1649.47167969 672.232303305 1649.47167969 726.735761641 1594.96916008 c 0,6,7
 754.085478067 1567.61944365 754.085478067 1567.61944365 767.662367939 1534.43078834 c 128,-1,8
 781.239257812 1501.24213304 781.239257812 1501.24213304 781.239257812 1461.671875 c 0,9,10
 781.239257812 1441.87246245 781.239257812 1441.87246245 777.850346107 1423.70260278 c 128,-1,11
 774.461434403 1405.53274311 774.461434403 1405.53274311 767.654191943 1388.89751018 c 128,-1,12
 760.846949484 1372.26227726 760.846949484 1372.26227726 750.630433466 1357.15799977 c 128,-1,13
 740.413917447 1342.05372229 740.413917447 1342.05372229 726.735761641 1328.37556648 c 0,14,15
 672.23226547 1273.87207031 672.23226547 1273.87207031 593.439453125 1273.87207031 c 128,-1,16
 514.645664217 1273.87207031 514.645664217 1273.87207031 460.142213718 1328.37552081 c 0,17,18
 432.79296454 1355.72524104 432.79296454 1355.72524104 419.216306489 1388.9136674 c 128,-1,0
 405.639648438 1422.10209377 405.639648438 1422.10209377 405.639648438 1461.671875 c 128,-1,1
477.038865894 1460.77237709 m 0,19,20
 476.677500824 1410.78840231 476.677500824 1410.78840231 511.635866461 1376.26903658 c 0,21,22
 545.870015941 1341.59483804 545.870015941 1341.59483804 596.127982662 1341.67188407 c 0,23,24
 645.683059917 1341.59480419 645.683059917 1341.59480419 680.664080408 1376.29096804 c 0,25,26
 697.696057388 1393.46457121 697.696057388 1393.46457121 706.377899414 1414.68961884 c 128,-1,27
 715.059741441 1435.91466647 715.059741441 1435.91466647 715.239454418 1460.77254479 c 0,28,29
 714.878097318 1510.60129391 714.878097318 1510.60129391 680.642373094 1545.27498848 c 0,30,31
 645.683372295 1579.79498139 645.683372295 1579.79498139 596.128150866 1579.8720615 c 0,32,33
 545.870736605 1579.79501631 545.870736605 1579.79501631 511.657957606 1545.2966966 c 0,34,35
 476.677501469 1510.60213591 476.677501469 1510.60213591 477.038865894 1460.77237709 c 0,19,20
EndSplineSet
EndChar

StartChar: uni0653
Encoding: 1619 1619 54
GlifName: uni0653
Width: -30
VWidth: 2673
GlyphClass: 4
Flags: W
AnchorPoint: "Anchor-10" 461.017 1539.11 mark 0
AnchorPoint: "Anchor-9" 461.017 1539.11 mark 0
AnchorPoint: "Anchor-1" 461.017 1975.25 basemark 0
AnchorPoint: "Anchor-1" 461.017 1539.11 mark 0
LayerCount: 2
Fore
SplineSet
401.371167979 1644.23465532 m 2,0,1
 380.510252946 1647.10559901 380.510252946 1647.10559901 357.080897025 1645.46738546 c 0,2,3
 335 1644 335 1644 314.437484602 1636.8680391 c 0,4,5
 294 1630 294 1630 273.479578348 1618.6110534 c 0,6,7
 253 1607 253 1607 234.245825902 1590.87086555 c 0,8,9
 215 1575 215 1575 196.774874899 1553.82191272 c 1,10,-1
 105.37109375 1640.00488281 l 5,11,12
 219.959777326 1800.94350767 219.959777326 1800.94350767 382.564453125 1774.75390625 c 6,13,-1
 531.27734375 1750.80175781 l 6,14,15
 629 1735 629 1735 748.543945312 1793.63476562 c 5,16,-1
 807.965844544 1680.13149369 l 1,17,18
 684.455029797 1605.27577813 684.455029797 1605.27577813 541.891675792 1624.89578813 c 2,19,-1
 401.371167979 1644.23465532 l 2,0,1
EndSplineSet
EndChar

StartChar: uni0657
Encoding: 1623 1623 57
GlifName: uni0657
Width: -26
VWidth: 2316
GlyphClass: 4
Flags: W
AnchorPoint: "Anchor-10" 573.285 1350.55 mark 0
AnchorPoint: "Anchor-9" 573.285 1350.55 mark 0
AnchorPoint: "Anchor-1" 573.285 2089.85 basemark 0
AnchorPoint: "Anchor-1" 573.285 1350.55 mark 0
LayerCount: 2
Fore
SplineSet
272.029296875 1796.92616024 m 1,0,1
 328.362717854 1795.00119007 328.362717854 1795.00119007 393.744874589 1788.14249138 c 2,2,-1
 398.130327187 1787.68244999 l 1,3,-1
 400.664749013 1791.29084833 l 1,4,-1
 401.883091173 1793.02547116 l 2,5,6
 546.466079677 1999.03338415 546.466079677 1999.03338415 777.173828125 2024.40933981 c 1,7,-1
 777.173828125 1960.94896256 l 1,8,9
 593.688655886 1929.09955262 593.688655886 1929.09955262 480.350089914 1782.78428169 c 2,10,-1
 473.624776548 1774.10218801 l 1,11,-1
 484.158945527 1770.99737329 l 2,12,13
 514.428493918 1762.07580202 514.428493918 1762.07580202 540.07126167 1749.91606534 c 128,-1,14
 565.714029421 1737.75632865 565.714029421 1737.75632865 586.637799343 1722.45678467 c 0,15,16
 650.498894797 1674.26470988 650.498894797 1674.26470988 650.476562922 1598.86857796 c 0,17,18
 650.498979345 1532.04148336 650.498979345 1532.04148336 607.855807291 1488.13432729 c 0,19,20
 566.810303584 1445.50063492 566.810303584 1445.50063492 501.357019453 1445.51367175 c 0,21,22
 430.058535315 1445.50056248 430.058535315 1445.50056248 378.978366023 1495.48575562 c 0,23,24
 359.287571001 1515.24387749 359.287571001 1515.24387749 349.299381962 1542.10474914 c 128,-1,25
 339.311192923 1568.96562079 339.311192923 1568.96562079 339.135901847 1603.26721773 c 0,26,27
 339.49054627 1645.83405646 339.49054627 1645.83405646 362.536958944 1720.20481283 c 2,28,-1
 365.286107384 1729.07631278 l 1,29,-1
 356.034613097 1729.89556972 l 2,30,31
 337.577455037 1731.53002513 337.577455037 1731.53002513 315.977377726 1732.52590146 c 128,-1,32
 294.377300414 1733.52177779 294.377300414 1733.52177779 272.029296875 1733.80321426 c 1,33,-1
 272.029296875 1796.92616024 l 1,0,1
501.459864642 1508.9032547 m 0,34,35
 523.275183026 1509.2239372 523.275183026 1509.2239372 540.045480874 1516.8901563 c 128,-1,36
 556.815778721 1524.5563754 556.815778721 1524.5563754 567.850701696 1539.64880925 c 0,37,38
 573.4499739 1547.72179512 573.4499739 1547.72179512 577.19055475 1556.77772405 c 128,-1,39
 580.931135601 1565.83365298 580.931135601 1565.83365298 582.816394957 1575.75074622 c 128,-1,40
 584.701654313 1585.66783945 584.701654313 1585.66783945 584.813679187 1596.61521725 c 0,41,42
 584.727759153 1612.88675864 584.727759153 1612.88675864 579.285249504 1627.35559248 c 128,-1,43
 573.842739855 1641.82442631 573.842739855 1641.82442631 563.26762804 1654.20157365 c 128,-1,44
 552.692516226 1666.578721 552.692516226 1666.578721 537.358778211 1676.9904646 c 128,-1,45
 522.025040196 1687.4022082 522.025040196 1687.4022082 501.900450072 1695.91645786 c 0,46,47
 486.105727461 1702.54005122 486.105727461 1702.54005122 470.351934583 1707.6155062 c 128,-1,48
 454.598141705 1712.69096118 454.598141705 1712.69096118 438.889828652 1716.21284788 c 2,49,-1
 432.798893541 1717.57846768 l 1,50,-1
 430.350194526 1711.83666647 l 2,51,52
 402.499113659 1646.5304084 402.499113659 1646.5304084 402.523442187 1604.97322832 c 0,53,54
 402.510951844 1593.80061633 402.510951844 1593.80061633 404.344366829 1583.90494234 c 128,-1,55
 406.177781815 1574.00926835 406.177781815 1574.00926835 409.913767924 1565.45083504 c 0,56,57
 421.107756386 1539.74588287 421.107756386 1539.74588287 448.23389194 1524.03073769 c 0,58,59
 475.038013796 1508.46654741 475.038013796 1508.46654741 501.459864642 1508.9032547 c 0,34,35
EndSplineSet
EndChar

StartChar: uni065A
Encoding: 1626 1626 58
GlifName: uni065A_
Width: 1135
VWidth: 2316
GlyphClass: 4
Flags: W
AnchorPoint: "Anchor-10" 573.285 1350.55 mark 0
AnchorPoint: "Anchor-9" 573.285 1350.55 mark 0
AnchorPoint: "Anchor-1" 571.012 1862.38 basemark 0
AnchorPoint: "Anchor-1" 573.285 1350.55 mark 0
LayerCount: 2
Fore
SplineSet
506.620319031 1451.92578125 m 1,0,-1
 321.749963189 1760.99023438 l 1,1,-1
 408.908905581 1760.99023438 l 1,2,-1
 567.044720579 1523.77928934 l 1,3,-1
 573.285137249 1514.41837932 l 1,4,-1
 579.525580228 1523.7792718 l 1,5,-1
 737.662369923 1760.99023438 l 1,6,-1
 824.822199826 1760.99023438 l 1,7,-1
 639.949049905 1451.92578125 l 1,8,-1
 506.620319031 1451.92578125 l 1,0,-1
EndSplineSet
EndChar

StartChar: afii57392
Encoding: 1632 1632 59
GlifName: afii57392
Width: 1077
VWidth: 2952
GlyphClass: 2
Flags: W
LayerCount: 2
Fore
SplineSet
384.290039062 593.262695312 m 0,0,1
 384.290039062 527.473006935 384.290039062 527.473006935 429.79353657 481.972752187 c 0,2,3
 452.460862708 459.304347476 452.460862708 459.304347476 480.86076956 447.745414159 c 0,4,5
 509.110231679 436.247273997 509.110231679 436.247273997 542.593940881 435.966258819 c 0,6,7
 575.517929918 436.247701594 575.517929918 436.247701594 603.660424758 447.817146378 c 0,8,9
 631.802919599 459.386591163 631.802919599 459.386591163 654.38882828 481.972499844 c 0,10,11
 677.042649707 504.626321272 677.042649707 504.626321272 688.482491123 532.651979808 c 0,12,13
 699.890625 560.602611144 699.890625 560.602611144 699.890625 593.262695312 c 0,14,15
 699.890625 625.923650549 699.890625 625.923650549 688.482491123 653.875363942 c 0,16,17
 684.666731964 663.224209131 684.666731964 663.224209131 679.570089767 672.01509348 c 0,18,19
 674.47344757 680.80597783 674.47344757 680.80597783 668.179069093 688.93296798 c 0,20,21
 661.884690616 697.05995813 661.884690616 697.05995813 654.388702264 704.555946483 c 0,22,23
 631.796173555 727.14793836 631.796173555 727.14793836 603.381923796 738.714184767 c 0,24,25
 574.967674036 750.280431175 574.967674036 750.280431175 541.586968683 750.561084783 c 0,26,27
 508.569984093 750.279430435 508.569984093 750.279430435 480.554777495 738.760843911 c 0,28,29
 466.500457594 732.982342894 466.500457594 732.982342894 453.776355544 724.398046109 c 0,30,31
 441.052253494 715.813749325 441.052253494 715.813749325 429.793914888 704.555946447 c 0,32,33
 384.290039062 659.053151551 384.290039062 659.053151551 384.290039062 593.262695312 c 0,0,1
324.236373419 806.85715436 m 0,34,35
 331.690621931 814.311090533 331.690621931 814.311090533 339.375721683 821.131333484 c 0,36,37
 347.060821435 827.951576434 347.060821435 827.951576434 354.94858758 834.118301318 c 0,38,39
 362.836353725 840.285026203 362.836353725 840.285026203 370.958575838 845.828179087 c 0,40,41
 395.259847774 862.413302916 395.259847774 862.413302916 421.694856692 873.440403907 c 0,42,43
 474.623330876 895.51953125 474.623330876 895.51953125 536.678710938 895.51953125 c 0,44,45
 557.440256089 895.51953125 557.440256089 895.51953125 577.11773822 893.0589806 c 0,46,47
 596.795220352 890.598429949 596.795220352 890.598429949 615.438348516 885.688041935 c 0,48,49
 627.849653618 882.419126695 627.849653618 882.419126695 639.810252198 878.065467448 c 0,50,51
 651.770850777 873.711808202 651.770850777 873.711808202 663.303865139 868.264062241 c 0,52,53
 674.8368795 862.816316281 674.8368795 862.816316281 685.956458818 856.267253416 c 0,54,55
 702.664236582 846.427665822 702.664236582 846.427665822 718.44982747 834.085225139 c 0,56,57
 734.235418359 821.742784456 734.235418359 821.742784456 749.120937344 806.85726547 c 0,58,59
 793.601229082 762.376973732 793.601229082 762.376973732 815.700276943 709.40351864 c 0,60,61
 837.784179688 656.466367788 837.784179688 656.466367788 837.784179688 594.4140625 c 0,62,63
 837.784179688 470.634101874 837.784179688 470.634101874 749.120937344 381.97085953 c 0,64,65
 726.814055315 359.663977501 726.814055315 359.663977501 702.415886594 343.050891801 c 0,66,67
 678.125594676 326.510964999 678.125594676 326.510964999 651.703833805 315.562358075 c 0,68,69
 625.279468316 304.612103981 625.279468316 304.612103981 596.630562462 299.20682498 c 0,70,71
 587.029733696 297.395717184 587.029733696 297.395717184 577.218411866 296.208184756 c 0,72,73
 567.407090036 295.020652328 567.407090036 295.020652328 557.26063585 294.44828929 c 0,74,75
 547.114181664 293.875926253 547.114181664 293.875926253 536.624905583 293.923986003 c 0,76,77
 505.408527302 293.780565861 505.408527302 293.780565861 476.759798598 299.185991157 c 0,78,79
 448.111069893 304.591416454 448.111069893 304.591416454 421.639048654 315.563861284 c 0,80,81
 412.838884161 319.211456301 412.838884161 319.211456301 404.278687151 323.477081551 c 0,82,83
 395.71849014 327.742706801 395.71849014 327.742706801 387.390244529 332.631337361 c 0,84,85
 370.70594336 342.424922754 370.70594336 342.424922754 354.943134542 354.732232105 c 0,86,87
 339.12319952 367.08414454 339.12319952 367.08414454 324.236595727 381.970748331 c 0,88,89
 313.065123611 393.142454689 313.065123611 393.142454689 303.323058792 404.821485062 c 0,90,91
 293.580993973 416.500515434 293.580993973 416.500515434 285.271930729 428.679676819 c 0,92,93
 276.962867485 440.858838204 276.962867485 440.858838204 270.068918551 453.531100371 c 0,94,95
 263.174969618 466.203362538 263.174969618 466.203362538 257.660160849 479.423423094 c 0,96,97
 235.577148438 532.360664175 235.577148438 532.360664175 235.577148438 594.415039062 c 0,98,99
 235.577148438 656.472488745 235.577148438 656.472488745 257.655328295 709.400916137 c 0,100,101
 268.694463555 735.864501229 268.694463555 735.864501229 285.306168697 760.201578004 c 0,102,103
 301.917873839 784.538654778 301.917873839 784.538654778 324.236373419 806.85715436 c 0,34,35
EndSplineSet
EndChar

StartChar: afii57393
Encoding: 1633 1633 60
GlifName: afii57393
Width: 756
VWidth: 2952
GlyphClass: 2
Flags: W
LayerCount: 2
Fore
SplineSet
301.713343905 1397.28632371 m 1,0,1
 499.115234375 954.786331213 499.115234375 954.786331213 499.115234375 308.771484375 c 2,2,-1
 499.115234375 26.5537109375 l 1,3,-1
 349.796631157 26.5537109375 l 1,4,-1
 349.791991445 311.913249038 l 2,5,6
 349.996850335 962.987502839 349.996850335 962.987502839 165.711556551 1349.34754276 c 1,7,-1
 301.713343905 1397.28632371 l 1,0,1
EndSplineSet
EndChar

StartChar: afii57394
Encoding: 1634 1634 61
GlifName: afii57394
Width: 1217
VWidth: 2952
GlyphClass: 2
Flags: W
LayerCount: 2
Fore
SplineSet
397.123844528 1129.22599355 m 2,0,1
 418.422395687 1068.82879838 418.422395687 1068.82879838 458.175873164 1028.13815577 c 128,-1,2
 497.929350641 987.447513163 497.929350641 987.447513163 554.80122739 967.148074019 c 128,-1,3
 611.673104139 946.848634875 611.673104139 946.848634875 685.05954867 946.769077004 c 0,4,5
 822.165250558 947.016516417 822.165250558 947.016516417 874.630627093 1049.12139478 c 0,6,7
 881.613478943 1062.65325708 881.613478943 1062.65325708 887.710329271 1078.15075256 c 128,-1,8
 893.807179599 1093.64824805 893.807179599 1093.64824805 898.998314423 1111.06346743 c 128,-1,9
 904.189449246 1128.47868682 904.189449246 1128.47868682 908.521749529 1147.80226154 c 128,-1,10
 912.854049811 1167.12583626 912.854049811 1167.12583626 916.320951278 1188.43399263 c 128,-1,11
 919.787852746 1209.74214901 919.787852746 1209.74214901 922.422210006 1232.89310716 c 128,-1,12
 925.056567266 1256.04406531 925.056567266 1256.04406531 926.865842401 1281.24646288 c 128,-1,13
 928.675117536 1306.44886044 928.675117536 1306.44886044 929.678138797 1333.42850622 c 128,-1,14
 930.681160058 1360.408152 930.681160058 1360.408152 930.898539237 1389.49781924 c 1,15,-1
 1080.51703477 1389.03691439 l 1,16,17
 1079.5523348 1322.59503678 1079.5523348 1322.59503678 1075.79147208 1264.69800029 c 0,18,19
 1069.6285786 1180.69095307 1069.6285786 1180.69095307 1055.63560253 1112.24367625 c 128,-1,20
 1041.64262646 1043.79639944 1041.64262646 1043.79639944 1020.48808723 992.371325683 c 128,-1,21
 999.333547993 940.946251927 999.333547993 940.946251927 971.022771879 905.449847145 c 0,22,23
 877.810715682 789.020930851 877.810715682 789.020930851 689.291308478 789.56814491 c 0,24,25
 558.365603965 789.986138802 558.365603965 789.986138802 461.389864245 851.291087355 c 5,26,-1
 465.557377114 819.555744318 l 1,27,-1
 466.393412668 813.189398919 l 2,28,29
 499.115234375 563.14212155 499.115234375 563.14212155 499.115234375 308.771484375 c 2,30,-1
 499.115234375 26.5537109375 l 1,31,-1
 349.796631157 26.5537109375 l 1,32,-1
 349.791991445 311.913249038 l 2,33,34
 349.996850335 962.987502839 349.996850335 962.987502839 165.711440834 1349.34778536 c 1,35,-1
 300.44644864 1396.84245309 l 1,36,-1
 397.123844528 1129.22599355 l 2,0,1
EndSplineSet
EndChar

StartChar: afii57395
Encoding: 1635 1635 62
GlifName: afii57395
Width: 1492
VWidth: 2952
GlyphClass: 2
Flags: W
LayerCount: 2
Fore
SplineSet
466.216019004 814.476092388 m 2,0,1
 499.115234375 566.294632747 499.115234375 566.294632747 499.115234375 308.771484375 c 2,2,-1
 499.115234375 26.5537109375 l 1,3,-1
 349.796631157 26.5537109375 l 1,4,-1
 349.791991445 311.912272483 l 2,5,6
 349.996850334 962.987482886 349.996850334 962.987482886 165.711443464 1349.34777948 c 1,7,-1
 300.262801802 1396.77765222 l 1,8,-1
 404.99835341 1096.68990168 l 2,9,10
 451.316835117 964.097981809 451.316835117 964.097981809 610.463032728 962.631953662 c 0,11,12
 669.375187751 962.398548902 669.375187751 962.398548902 708.008241192 994.62989458 c 128,-1,13
 746.641294633 1026.86124026 746.641294633 1026.86124026 764.012101249 1087.11609768 c 128,-1,14
 781.382907865 1147.3709551 781.382907865 1147.3709551 779.361235513 1234.90688468 c 2,15,-1
 777.001436887 1337.08326659 l 1,16,-1
 905.708614161 1341.18065197 l 1,17,-1
 909.015395283 1212.02484523 l 2,18,19
 912.097046233 1088.3327123 912.097046233 1088.3327123 954.793746686 1022.41781643 c 128,-1,20
 997.490447139 956.502920548 997.490447139 956.502920548 1080.34664778 955.892873597 c 0,21,22
 1158.4620269 954.875493801 1158.4620269 954.875493801 1191.22775238 1024.52865874 c 0,23,24
 1200.60986802 1045.12799434 1200.60986802 1045.12799434 1206.76845541 1070.1641119 c 128,-1,25
 1212.9270428 1095.20022946 1212.9270428 1095.20022946 1216.21752034 1125.56459274 c 0,26,27
 1220.29648797 1171.56766081 1220.29648797 1171.56766081 1222.36559368 1212.1019315 c 128,-1,28
 1224.43469939 1252.63620219 1224.43469939 1252.63620219 1224.51851318 1288.26256299 c 2,29,-1
 1224.79583999 1406.14465678 l 1,30,-1
 1371.56710779 1406.28004116 l 1,31,-1
 1371.05469403 1290.62922924 l 2,32,33
 1371.00057526 1232.62356887 1371.00057526 1232.62356887 1363.75711246 1144.72212008 c 0,34,35
 1349.71485575 969.849738775 1349.71485575 969.849738775 1280.7773208 885.888986695 c 128,-1,36
 1211.83978586 801.928234615 1211.83978586 801.928234615 1086.79723683 802.768047022 c 0,37,38
 943.481413829 803.947181682 943.481413829 803.947181682 851.160460266 910.985408662 c 2,39,-1
 848.826475892 913.69146335 l 1,40,-1
 837.15348213 927.225298385 l 1,41,-1
 825.849289591 913.381935168 l 1,42,-1
 823.58925633 910.614248581 l 2,43,44
 734.880894897 801.996602015 734.880894897 801.996602015 623.109246531 801.943356875 c 0,45,46
 530.175413975 801.997014356 530.175413975 801.997014356 460.179777235 860.011624957 c 5,47,-1
 465.210159629 822.063983013 l 1,48,-1
 466.216019004 814.476092388 l 2,0,1
EndSplineSet
EndChar

StartChar: afii57396
Encoding: 1636 1636 63
GlifName: afii57396
Width: 1056
VWidth: 2952
GlyphClass: 2
Flags: W
LayerCount: 2
Fore
SplineSet
154.301722174 312.30966243 m 0,0,1
 146.308462384 551.03843162 146.308462384 551.03843162 508.579086288 738.76492455 c 2,2,-1
 539.085578041 754.573208 l 1,3,-1
 506.752872251 766.198353204 l 2,4,5
 236.033829801 863.534722093 236.033829801 863.534722093 236.663016896 1059.91152015 c 0,6,7
 236.985736677 1166.27621855 236.985736677 1166.27621855 281.84527425 1230.77788634 c 0,8,9
 415.68168143 1426.28468972 415.68168143 1426.28468972 804.125892505 1384.1032039 c 1,10,-1
 793.573939824 1231.84170299 l 1,11,12
 750.884727821 1236.06612925 750.884727821 1236.06612925 714.094441352 1236.4588308 c 0,13,14
 417.109581315 1237.0285948 417.109581315 1237.0285948 415.830277275 1062.1622556 c 0,15,16
 414.945963191 890.552264341 414.945963191 890.552264341 772.93850701 857.93158604 c 1,17,-1
 774.92275172 698.163771096 l 1,18,19
 659.901187099 651.354165156 659.901187099 651.354165156 575.342102648 607.738974769 c 0,20,21
 490.783018197 564.123784381 490.783018197 564.123784381 432.227099103 520.725416743 c 0,22,23
 373.67118001 477.327049106 373.67118001 477.327049106 345.769563086 434.536542733 c 0,24,25
 317.867946163 391.74603636 317.867946163 391.74603636 320.5502435 349.260593482 c 0,26,27
 332.001221407 178.573287496 332.001221407 178.573287496 723.925996666 181.054011407 c 2,28,-1
 902.936257024 182.187073314 l 1,29,-1
 904.814482325 15.0531534664 l 1,30,-1
 717.121486712 15.4686955083 l 2,31,32
 163.539401454 16.9608638548 163.539401454 16.9608638548 154.301722174 312.30966243 c 0,0,1
EndSplineSet
EndChar

StartChar: afii57397
Encoding: 1637 1637 64
GlifName: afii57397
Width: 1257
VWidth: 2952
GlyphClass: 2
Flags: W
LayerCount: 2
Fore
SplineSet
589.637513418 1080.89263784 m 2,0,1
 295.006243008 765.928892834 295.006243008 765.928892834 294.721707235 493.195862202 c 0,2,3
 295.013955651 340.703714721 295.013955651 340.703714721 407.454649535 252.256379039 c 0,4,5
 453.851485208 215.964707779 453.851485208 215.964707779 515.668297057 198.053143034 c 0,6,7
 577.485108906 180.141578289 577.485108906 180.141578289 654.054378378 180.291043886 c 0,8,9
 810.958946426 179.986463138 810.958946426 179.986463138 896.697435857 281.618554015 c 0,10,11
 962.029802294 358.52381085 962.029802294 358.52381085 961.259760279 500.321257357 c 0,12,13
 960.9937218 815.442836694 960.9937218 815.442836694 609.671009715 1082.58568763 c 2,14,-1
 598.889912331 1090.78354388 l 1,15,-1
 589.637513418 1080.89263784 l 2,0,1
417.118526735 1234.54410796 m 1,16,-1
 506.608195529 1378.84270368 l 1,17,18
 1121.01851305 979.467365077 1121.01851305 979.467365077 1121.70606343 477.247477364 c 0,19,20
 1121.84959233 344.30538045 1121.84959233 344.30538045 1074.82339124 249.726404506 c 0,21,22
 1027.79719014 155.147428563 1027.79719014 155.147428563 933.254510819 96.7214463078 c 0,23,24
 893.182875679 71.8787849341 893.182875679 71.8787849341 847.483455479 55.4594407416 c 0,25,26
 801.784035279 39.0400965492 801.784035279 39.0400965492 749.939268657 30.9871373977 c 0,27,28
 698.094502035 22.9341782462 698.094502035 22.9341782462 640.298846579 23.3880942341 c 0,29,30
 466.924100985 23.9865442598 466.924100985 23.9865442598 342.313112134 93.490848226 c 0,31,32
 131.084987218 209.816733463 131.084987218 209.816733463 133.628198669 475.799617822 c 0,33,34
 136.944112045 817.173476275 136.944112045 817.173476275 463.131672605 1178.88419739 c 2,35,-1
 474.015320443 1190.95311903 l 1,36,-1
 461.114721024 1200.83680227 l 1,37,-1
 417.118526735 1234.54410796 l 1,16,-1
EndSplineSet
EndChar

StartChar: afii57398
Encoding: 1638 1638 65
GlifName: afii57398
Width: 1305
VWidth: 2952
GlyphClass: 2
Flags: W
LayerCount: 2
Fore
SplineSet
833.718509394 1180.7850746 m 2,0,1
 670.245471545 1135.99088785 670.245471545 1135.99088785 494.024478929 1135.07324142 c 0,2,3
 274.993632089 1135.0028895 274.993632089 1135.0028895 96.41796875 1213.06704798 c 1,4,-1
 96.41796875 1390.68235822 l 1,5,6
 288.285085873 1306.99374446 288.285085873 1306.99374446 509.82579131 1306.84281841 c 0,7,8
 531.477811982 1306.89583543 531.477811982 1306.89583543 552.887313591 1307.56675197 c 0,9,10
 574.2968152 1308.23766851 574.2968152 1308.23766851 595.556237439 1309.53095331 c 0,11,12
 616.815659678 1310.8242381 616.815659678 1310.8242381 637.958748459 1312.7431555 c 0,13,14
 702.104266008 1319.13539954 702.104266008 1319.13539954 764.285875115 1330.58047899 c 0,15,16
 827.491052924 1342.39273025 827.491052924 1342.39273025 888.673054624 1360.27979758 c 0,17,18
 940.044920766 1374.74070977 940.044920766 1374.74070977 990.818306227 1393.92688389 c 1,19,20
 1003.51820796 507.910439875 1003.51820796 507.910439875 1143.01069423 26.5537109375 c 1,21,-1
 986.137593583 26.5537109375 l 1,22,23
 868.29365019 514.992701535 868.29365019 514.992701535 856.471142786 1163.75279533 c 2,24,-1
 856.400830286 1167.61119377 l 1,25,-1
 856.049252044 1186.90404975 l 1,26,-1
 837.439212519 1181.80460585 l 1,27,-1
 833.718509394 1180.7850746 l 2,0,1
EndSplineSet
EndChar

StartChar: afii57399
Encoding: 1639 1639 66
GlifName: afii57399
Width: 1301
VWidth: 2952
GlyphClass: 2
Flags: W
LayerCount: 2
Fore
SplineSet
1182.44122549 1323.56493846 m 1,0,1
 865.184172258 696.664272723 865.184172258 696.664272723 722.119651979 26.5537109375 c 1,2,-1
 578.652499441 26.5537109375 l 1,3,4
 430.897286278 691.750682032 430.897286278 691.750682032 118.30875309 1323.48992802 c 1,5,-1
 259.673519205 1395.2949951 l 1,6,7
 524.17929478 824.572901153 524.17929478 824.572901153 635.805705858 323.866916444 c 2,8,-1
 650.468076732 258.098100844 l 1,9,-1
 665.088929638 323.876158625 l 2,10,11
 776.819457484 826.542943098 776.819457484 826.542943098 1041.20219444 1395.30422889 c 1,12,-1
 1182.44122549 1323.56493846 l 1,0,1
EndSplineSet
EndChar

StartChar: afii57400
Encoding: 1640 1640 67
GlifName: afii57400
Width: 1301
VWidth: 2952
GlyphClass: 2
Flags: W
LayerCount: 2
Fore
SplineSet
259.699251288 12.3257378048 m 1,0,-1
 118.30578879 84.1453679545 l 1,1,2
 430.897273229 716.242998289 430.897273229 716.242998289 578.651101815 1381.08105469 c 1,3,-1
 722.206860696 1381.08105469 l 1,4,5
 868.134848805 717.226411069 868.134848805 717.226411069 1182.55723736 84.1290187631 c 1,6,-1
 1041.22353111 12.3405085726 l 1,7,8
 776.818897108 583.421590861 776.818897108 583.421590861 665.091573211 1083.74472074 c 2,9,-1
 650.402909489 1149.52163144 l 1,10,-1
 635.808075908 1083.72383774 l 2,11,12
 524.178735859 580.466007051 524.178735859 580.466007051 259.699251288 12.3257378048 c 1,0,-1
EndSplineSet
EndChar

StartChar: afii57401
Encoding: 1641 1641 68
GlifName: afii57401
Width: 1179
VWidth: 2952
GlyphClass: 2
Flags: W
LayerCount: 2
Fore
SplineSet
509.536370357 630.165042469 m 0,0,1
 314.986093182 630.084475649 314.986093182 630.084475649 220.738030108 713.637753941 c 0,2,3
 126.489967034 797.191032232 126.489967034 797.191032232 126.948241211 967.602007598 c 0,4,5
 126.998455417 1106.71809974 126.998455417 1106.71809974 195.240069506 1216.58225859 c 0,6,7
 312.346329225 1405.01249543 312.346329225 1405.01249543 515.052739761 1405.31543426 c 0,8,9
 714.395683329 1405.15976912 714.395683329 1405.15976912 818.285929019 1285.44029555 c 0,10,11
 922.176174709 1165.72082197 922.176174709 1165.72082197 932.961784875 920.76498146 c 0,12,13
 942.80083317 697.306845316 942.80083317 697.306845316 951.154062638 473.339400219 c 0,14,15
 959.507292106 249.371955122 959.507292106 249.371955122 966.318614535 26.5537109375 c 1,16,-1
 824.445449118 26.5537109375 l 1,17,-1
 811.062315315 683.206039928 l 1,18,-1
 810.579265788 706.907185058 l 1,19,-1
 789.367669858 696.322015462 l 2,20,21
 656.472912778 630.003877648 656.472912778 630.003877648 509.536370357 630.165042469 c 0,0,1
793.289159093 870.651040651 m 1,22,-1
 791.351255315 893.722054471 l 2,23,24
 781.424172879 1010.3780483 781.424172879 1010.3780483 747.564630433 1088.88594731 c 0,25,26
 713.705087986 1167.39384631 713.705087986 1167.39384631 654.640915466 1206.88785964 c 0,27,28
 595.576742946 1246.38187296 595.576742946 1246.38187296 512.653145967 1243.5341314 c 0,29,30
 402.306251262 1239.74462576 402.306251262 1239.74462576 329.393626635 1142.47031816 c 0,31,32
 300.839182804 1103.90164098 300.839182804 1103.90164098 286.421768376 1061.98204505 c 0,33,34
 272.004353948 1020.06244913 272.004353948 1020.06244913 272.009008431 975.194267095 c 0,35,36
 272.507680651 882.989528048 272.507680651 882.989528048 334.709787854 836.315830323 c 0,37,38
 396.911895057 789.642132599 396.911895057 789.642132599 514.032040801 789.892308057 c 0,39,40
 652.838134725 790.188805966 652.838134725 790.188805966 785.024337633 855.966299011 c 2,41,-1
 794.141551977 860.503137879 l 1,42,-1
 793.289159093 870.651040651 l 1,22,-1
EndSplineSet
EndChar

StartChar: afii57381
Encoding: 1642 1642 69
GlifName: afii57381
Width: 1288
VWidth: 4038
GlyphClass: 2
Flags: W
LayerCount: 2
Fore
SplineSet
764.512695312 345.344726562 m 0,0,1
 764.512695312 408.93199358 764.512695312 408.93199358 810.075554852 453.650437353 c 0,2,3
 832.710344517 476.285227019 832.710344517 476.285227019 859.539357603 487.455997159 c 0,4,5
 886.368370689 498.626767299 886.368370689 498.626767299 918.599152716 498.840171462 c 0,6,7
 934.693404181 498.946559703 934.693404181 498.946559703 949.350542941 496.200011721 c 0,8,9
 964.007681702 493.453463739 964.007681702 493.453463739 977.413170298 487.872035739 c 0,10,11
 990.848272996 482.278277792 990.848272996 482.278277792 1003.12811675 473.810355541 c 0,12,13
 1015.4079605 465.342433289 1015.4079605 465.342433289 1026.78613957 453.749682399 c 0,14,15
 1049.29174964 431.243177974 1049.29174964 431.243177974 1060.39299767 404.326392658 c 0,16,17
 1071.50390625 377.388332429 1071.50390625 377.388332429 1071.50390625 345.344726562 c 0,18,19
 1071.50390625 323.868001635 1071.50390625 323.868001635 1066.59340711 304.837716377 c 0,20,21
 1061.68290796 285.807431119 1061.68290796 285.807431119 1051.78363902 268.921890369 c 0,22,23
 1041.88437008 252.036349618 1041.88437008 252.036349618 1026.83578109 236.987461093 c 0,24,25
 1004.28497726 214.436657258 1004.28497726 214.436657258 977.469736455 203.377508316 c 0,26,27
 950.654495651 192.318359375 950.654495651 192.318359375 918.48046875 192.318359375 c 0,28,29
 854.793368975 192.318359375 854.793368975 192.318359375 810.056057292 237.056561194 c 0,30,31
 764.512695312 281.755538956 764.512695312 281.755538956 764.512695312 345.344726562 c 0,0,1
215.968751495 1199.37008178 m 0,32,33
 215.968751495 1231.36930246 215.968751495 1231.36930246 227.231498686 1258.15210117 c 0,34,35
 238.494245877 1284.93489988 238.494245877 1284.93489988 261.533552894 1307.67791325 c 0,36,37
 284.072785676 1330.05285217 284.072785676 1330.05285217 310.986820013 1341.26022967 c 0,38,39
 337.900854351 1352.46760718 337.900854351 1352.46760718 370.06519346 1352.86541284 c 0,40,41
 386.150301662 1352.8963617 386.150301662 1352.8963617 400.815117471 1350.14398974 c 0,42,43
 415.47993328 1347.39161778 415.47993328 1347.39161778 428.955294204 1341.78048953 c 0,44,45
 442.430655128 1336.16936129 442.430655128 1336.16936129 454.709645917 1327.68775225 c 0,46,47
 466.988636705 1319.2061432 466.988636705 1319.2061432 478.264102808 1307.75322064 c 0,48,49
 522.996448451 1262.81092664 522.996448451 1262.81092664 522.959963366 1199.36158252 c 0,50,51
 522.996438424 1135.25533259 522.996438424 1135.25533259 478.388088166 1091.11000796 c 0,52,53
 466.911682148 1079.85965373 466.911682148 1079.85965373 454.526853594 1071.41567953 c 0,54,55
 442.14202504 1062.97170532 442.14202504 1062.97170532 428.970187947 1057.34329833 c 0,56,57
 402.047207882 1046.02974935 402.047207882 1046.02974935 369.966436139 1046.34508998 c 0,58,59
 306.216805696 1046.03082873 306.216805696 1046.03082873 261.51696382 1091.07963079 c 0,60,61
 215.968751495 1135.36723939 215.968751495 1135.36723939 215.968751495 1199.37008178 c 0,32,33
902.14840847 1432.78455415 m 1,62,-1
 1028.76818165 1367.54975658 l 1,63,-1
 348.700859644 54.2242477771 l 1,64,-1
 222.177148411 123.752951155 l 1,65,-1
 902.14840847 1432.78455415 l 1,62,-1
EndSplineSet
EndChar

StartChar: uni066B
Encoding: 1643 1643 70
GlifName: uni066B_
Width: 822
VWidth: 2952
GlyphClass: 2
Flags: W
LayerCount: 2
Fore
SplineSet
540.565346023 798.395049186 m 1,0,-1
 644.2862336 754.364547302 l 1,1,-1
 191.999617333 -289.31232562 l 1,2,-1
 86.1164082327 -243.229682638 l 1,3,-1
 540.565346023 798.395049186 l 1,0,-1
EndSplineSet
EndChar

StartChar: uni066C
Encoding: 1644 1644 71
GlifName: uni066C_
Width: 588
VWidth: 2842
GlyphClass: 2
Flags: W
LayerCount: 2
Fore
SplineSet
142.026879963 150.501587433 m 0,0,1
 142.253995055 173.1480115 142.253995055 173.1480115 146.492143347 191.503735221 c 128,-1,2
 150.730291638 209.859458941 150.730291638 209.859458941 158.744219008 224.082165445 c 0,3,4
 174.476402433 252.004337628 174.476402433 252.004337628 206.114740603 266.158308531 c 0,5,6
 239.365744915 281.033734192 239.365744915 281.033734192 290.651343062 281.182764075 c 0,7,8
 359.371444468 281.486886138 359.371444468 281.486886138 397.950982731 252.871925353 c 128,-1,9
 436.530520995 224.256964568 436.530520995 224.256964568 448.97598333 164.794911121 c 0,10,11
 462.864864266 97.0982495675 462.864864266 97.0982495675 437.241673262 -5.50889947159 c 0,12,13
 381.362927401 -219.069520972 381.362927401 -219.069520972 187.480351118 -382.507800343 c 1,14,-1
 161.052793628 -365.614669429 l 1,15,16
 325.283241506 -193.050155432 325.283241506 -193.050155432 338.478835156 -11.3340390854 c 2,17,-1
 339.001327769 -4.16856552962 l 1,18,-1
 339.241562144 -0.87266709212 l 1,19,-1
 340.442895071 15.6090346519 l 1,20,-1
 323.922204217 15.2134756927 l 1,21,-1
 320.620545936 15.1344231369 l 1,22,-1
 313.445521417 14.9636120059 l 2,23,24
 290.651863195 14.4265861955 290.651863195 14.4265861955 274.498996006 15.2651552051 c 128,-1,25
 258.346128816 16.1037242148 258.346128816 16.1037242148 250.015082578 18.0609853671 c 0,26,27
 194.080114327 29.3482132625 194.080114327 29.3482132625 167.87842179 61.5331375639 c 128,-1,28
 141.676729253 93.7180618654 141.676729253 93.7180618654 142.026879963 150.501587433 c 0,0,1
EndSplineSet
EndChar

StartChar: afii63167
Encoding: 1645 1645 72
GlifName: afii63167
Width: 1584
VWidth: 2952
GlyphClass: 2
Flags: W
LayerCount: 2
Fore
SplineSet
278.52648282 1023.65136719 m 1,0,-1
 662.741210938 1023.65136719 l 1,1,-1
 664.913085938 1023.65136719 l 1,2,-1
 675.769903702 1023.65136719 l 1,3,-1
 679.162104469 1033.96463369 l 1,4,-1
 679.842816916 1036.0341998 l 1,5,-1
 799.995220734 1401.85871741 l 1,6,-1
 920.151372094 1036.02811025 l 1,7,-1
 920.830083031 1033.96463369 l 1,8,-1
 924.222283798 1023.65136719 l 1,9,-1
 935.079101562 1023.65136719 l 1,10,-1
 937.250976562 1023.65136719 l 1,11,-1
 1321.46560048 1023.65136719 l 1,12,-1
 1011.00753195 796.695187817 l 1,13,-1
 1009.25264914 795.411984693 l 1,14,-1
 1000.47917403 788.996655649 l 1,15,-1
 1003.84286656 778.661478596 l 1,16,-1
 1004.51595174 776.593378042 l 1,17,-1
 1123.19788641 411.997298885 l 1,18,-1
 810.53751884 637.925449446 l 1,19,-1
 808.780682903 639.194980696 l 1,20,-1
 799.995117191 645.543638523 l 1,21,-1
 791.209551476 639.194980698 l 1,22,-1
 789.452862256 637.925555469 l 1,23,-1
 476.795100077 411.997396141 l 1,24,-1
 595.47549283 776.594095826 l 1,25,-1
 596.148344393 778.661478639 l 1,26,-1
 599.512036875 788.996655679 l 1,27,-1
 590.738561789 795.4119847 l 1,28,-1
 588.982257493 796.696227111 l 1,29,-1
 278.52648282 1023.65136719 l 1,0,-1
EndSplineSet
EndChar

StartChar: uni066E
Encoding: 1646 1646 73
GlifName: uni066E_
Width: 1837
VWidth: 2952
GlyphClass: 2
Flags: W
AnchorPoint: "Anchor-10" 1007.36 1415.35 basechar 0
AnchorPoint: "Anchor-7" 957.36 -257.261 basechar 0
LayerCount: 2
Fore
SplineSet
890.911132812 15 m 2,0,1
 498.946273799 15 498.946273799 15 307.014482208 132.955693842 c 128,-1,2
 115.082690616 250.911387684 115.082690616 250.911387684 115.160145714 485.889848591 c 0,3,4
 115.086418992 548.094972763 115.086418992 548.094972763 126.937406953 607.358794442 c 128,-1,5
 138.788394915 666.62261612 138.788394915 666.62261612 162.491265735 723.177853031 c 1,6,-1
 297.205116368 666.097642618 l 1,7,8
 268.021129057 587.154430915 268.021129057 587.154430915 268.42475049 514.489582922 c 0,9,10
 267.98046776 172.996514403 267.98046776 172.996514403 871.863062282 173.136719317 c 0,11,12
 1373.92283089 172.998645583 1373.92283089 172.998645583 1508.33931648 271.931206634 c 0,13,14
 1578.97467254 323.347105463 1578.97467254 323.347105463 1579.3799884 445.418032459 c 0,15,16
 1579.0112091 532.388326569 1579.0112091 532.388326569 1545.73241488 679.5880768 c 1,17,-1
 1684.95578615 713.780578398 l 1,18,19
 1707.73189541 642.593224282 1707.73189541 642.593224282 1718.84105446 579.58673174 c 128,-1,20
 1729.95021352 516.580239199 1729.95021352 516.580239199 1729.90625118 459.703043536 c 0,21,22
 1729.99690523 230.811008873 1729.99690523 230.811008873 1598.21803652 138.634620405 c 0,23,24
 1421.27864259 15 1421.27864259 15 894.356445312 15 c 2,25,-1
 890.911132812 15 l 2,0,1
EndSplineSet
Substitution2: "'init' Initial Forms in Arabic lookup 13 subtable" uni066E.init
Substitution2: "'medi' Medial Forms in Arabic lookup 11 subtable" uni066E.medi
Substitution2: "'fina' Terminal Forms in Arabic lookup 9 subtable" uni066E.fina
EndChar

StartChar: uni066F
Encoding: 1647 1647 74
GlifName: uni066F_
Width: 1511
VWidth: 2952
GlyphClass: 2
Flags: W
AnchorPoint: "Anchor-10" 121.809 1352.22 basechar 0
AnchorPoint: "Anchor-7" 335.219 -771.353 basechar 0
LayerCount: 2
Fore
SplineSet
1381.69133236 12.6012125347 m 0,0,1
 1357.08520491 -145.207731034 1357.08520491 -145.207731034 1279.21390135 -249.756135614 c 0,2,3
 1201.34259779 -354.304540193 1201.34259779 -354.304540193 1068.51001825 -406.672588613 c 0,4,5
 935.677438715 -459.040637034 935.677438715 -459.040637034 746.881102502 -459.060547449 c 0,6,7
 638.846954118 -459.030662484 638.846954118 -459.030662484 550.72323816 -443.798544035 c 0,8,9
 462.599522201 -428.566425587 462.599522201 -428.566425587 394.711950782 -398.439773152 c 0,10,11
 374.757955314 -389.52743814 374.757955314 -389.52743814 356.278422429 -379.369862152 c 0,12,13
 337.798889544 -369.212286163 337.798889544 -369.212286163 320.786641356 -357.809083577 c 0,14,15
 303.774393167 -346.405880991 303.774393167 -346.405880991 288.209640049 -333.740267106 c 0,16,17
 272.644886931 -321.074653221 272.644886931 -321.074653221 258.528186118 -307.159375834 c 0,18,19
 244.411485305 -293.244098448 244.411485305 -293.244098448 231.714796374 -278.048363879 c 0,20,21
 219.018107443 -262.85262931 219.018107443 -262.85262931 207.750238426 -246.403194336 c 0,22,23
 196.482369409 -229.953759363 196.482369409 -229.953759363 186.607544761 -212.206696884 c 0,24,25
 169.293120087 -181.089164428 169.293120087 -181.089164428 156.212118694 -145.918401794 c 0,26,27
 143.1311173 -110.74763916 143.1311173 -110.74763916 134.256927313 -71.3996174025 c 0,28,29
 125.382737326 -32.0515956448 125.382737326 -32.0515956448 120.798511954 11.5506923792 c 0,30,31
 116.214286582 55.1529804031 116.214286582 55.1529804031 115.95787795 102.835854246 c 0,32,33
 115.044203678 322.408267236 115.044203678 322.408267236 208.665441592 529.95109304 c 1,34,-1
 344.301060171 475.419928585 l 1,35,36
 336.416530831 455.183724619 336.416530831 455.183724619 329.39240259 435.64578474 c 0,37,38
 322.368274348 416.107844861 322.368274348 416.107844861 316.162580894 397.151768522 c 0,39,40
 309.95688744 378.195692182 309.95688744 378.195692182 304.556165114 359.763315318 c 0,41,42
 299.155442789 341.330938453 299.155442789 341.330938453 294.542672902 323.389817707 c 0,43,44
 289.929903014 305.448696962 289.929903014 305.448696962 286.066674287 287.856711078 c 0,45,46
 264.990620541 193.614881281 264.990620541 193.614881281 265.460256301 110.655868226 c 0,47,48
 266.767042489 -97.5778230344 266.767042489 -97.5778230344 385.846106512 -203.12397257 c 0,49,50
 504.925170534 -308.670122106 504.925170534 -308.670122106 736.354494986 -308.326113089 c 0,51,52
 977.62426941 -307.650635714 977.62426941 -307.650635714 1109.23677988 -207.909881451 c 0,53,54
 1240.84929035 -108.169127188 1240.84929035 -108.169127188 1257.27921827 88.9464271041 c 2,55,-1
 1257.64738233 93.3634192916 l 1,56,-1
 1259.47803501 115.326395632 l 1,57,-1
 1238.37468877 108.972467997 l 2,58,59
 1193.66423648 95.5107650459 1193.66423648 95.5107650459 1142.48772217 88.5820118444 c 0,60,61
 1091.31120786 81.6532586429 1091.31120786 81.6532586429 1033.63510408 81.3179771415 c 0,62,63
 875.822407609 80.1913402017 875.822407609 80.1913402017 798.97728788 144.416095033 c 0,64,65
 722.132168151 208.640849865 722.132168151 208.640849865 720.424083505 340.827752281 c 0,66,67
 720.014851795 382.559038334 720.014851795 382.559038334 727.751995653 420.501811703 c 0,68,69
 759.81700123 577.68649164 759.81700123 577.68649164 837.223829398 657.126063132 c 0,70,71
 915.384597391 738.020539693 915.384597391 738.020539693 1043.98088007 738.433933769 c 0,72,73
 1070.74558818 738.614148662 1070.74558818 738.614148662 1095.03564345 734.3985699 c 0,74,75
 1119.32569872 730.182991137 1119.32569872 730.182991137 1141.16275276 721.625062262 c 0,76,77
 1162.99980681 713.067133387 1162.99980681 713.067133387 1182.75471732 700.092606099 c 0,78,79
 1347.91542243 594.211608362 1347.91542243 594.211608362 1383.86474028 282.990172337 c 0,80,81
 1400.86605974 137.275860771 1400.86605974 137.275860771 1381.69133236 12.6012125347 c 0,0,1
854.452599413 367.894703567 m 0,82,83
 854.75959372 297.832572555 854.75959372 297.832572555 907.180098971 262.972291339 c 0,84,85
 959.600604222 228.112010124 959.600604222 228.112010124 1056.7611586 228.233483689 c 0,86,87
 1085.65000153 228.496139951 1085.65000153 228.496139951 1114.68776574 231.574234316 c 0,88,89
 1143.72552995 234.65232868 1143.72552995 234.65232868 1172.86996464 240.529538672 c 0,90,91
 1202.01439933 246.406748664 1202.01439933 246.406748664 1231.38003287 255.093704549 c 2,92,-1
 1243.54229854 258.691551851 l 1,93,-1
 1242.01599047 271.282643749 l 2,94,95
 1234.83301857 330.537692411 1234.83301857 330.537692411 1221.77045756 380.649720149 c 0,96,97
 1208.70789655 430.761747887 1208.70789655 430.761747887 1189.70262431 471.586976262 c 0,98,99
 1136.67817958 589.015357958 1136.67817958 589.015357958 1037.41127401 588.857410224 c 0,100,101
 975.07387155 588.935107135 975.07387155 588.935107135 932.04875271 551.766949515 c 0,102,103
 889.023633871 514.598791895 889.023633871 514.598791895 867.187098259 443.648428619 c 0,104,105
 855.036227919 404.385033718 855.036227919 404.385033718 854.452599413 367.894703567 c 0,82,83
EndSplineSet
Substitution2: "'init' Initial Forms in Arabic lookup 13 subtable" uni066F.init
Substitution2: "'medi' Medial Forms in Arabic lookup 11 subtable" uni066F.medi
Substitution2: "'fina' Terminal Forms in Arabic lookup 9 subtable" uni066F.fina
EndChar

StartChar: uni0670
Encoding: 1648 1648 75
GlifName: uni0670
Width: -29
VWidth: 2574
GlyphClass: 4
Flags: W
AnchorPoint: "Anchor-10" 636.984 1500.61 mark 0
AnchorPoint: "Anchor-9" 636.984 1500.61 mark 0
AnchorPoint: "Anchor-1" 636.984 2087.18 basemark 0
AnchorPoint: "Anchor-1" 636.984 1500.61 mark 0
LayerCount: 2
Fore
SplineSet
593.435546875 1568.26757812 m 1,0,-1
 593.435546875 2019.51660156 l 1,1,-1
 680.533203125 2019.51660156 l 1,2,-1
 680.533203125 1568.26757812 l 1,3,-1
 593.435546875 1568.26757812 l 1,0,-1
EndSplineSet
EndChar

StartChar: uni0674
Encoding: 1652 1652 76
GlifName: uni0674
Width: 711
VWidth: 2537
GlyphClass: 2
Flags: W
LayerCount: 2
Fore
SplineSet
259.217884269 1996.42995646 m 2,0,1
 168.492512438 2066.68385072 168.492512438 2066.68385072 168.283180612 2170.50017828 c 0,2,3
 168.492684848 2256.00527403 168.492684848 2256.00527403 225.134510373 2315.83615455 c 0,4,5
 292.221728444 2386.50046633 292.221728444 2386.50046633 397.012438145 2386.5156251 c 0,6,7
 442.216003121 2386.50818923 442.216003121 2386.50818923 483.320638155 2376.50332283 c 0,8,9
 524.425273189 2366.49845643 524.425273189 2366.49845643 560.38688354 2347.03832743 c 1,10,-1
 561.004126786 2231.41724987 l 1,11,12
 473.601251718 2268.50946516 473.601251718 2268.50946516 410.968853663 2268.76156682 c 0,13,14
 378.22670947 2268.6255926 378.22670947 2268.6255926 352.550075203 2259.53645909 c 0,15,16
 326.873440936 2250.44732559 326.873440936 2250.44732559 308.650705306 2232.18690507 c 0,17,18
 278.462787375 2200.99665393 278.462787375 2200.99665393 278.993702706 2157.84924921 c 0,19,20
 280.606499099 2077.62725247 280.606499099 2077.62725247 398.478231731 2036.71681276 c 0,21,22
 411.112068733 2032.37455742 411.112068733 2032.37455742 425.805236286 2033.8370585 c 0,23,24
 473.083779247 2039.34262579 473.083779247 2039.34262579 587.247070312 2059.59141989 c 1,25,-1
 587.247070312 1939.01851511 l 1,26,-1
 165.786132812 1844.39783012 l 1,27,-1
 165.786132812 1962.30399543 l 1,28,-1
 256.312222684 1983.19201984 l 1,29,-1
 271.721621819 1986.74759046 l 1,30,-1
 259.217884269 1996.42995646 l 2,0,1
EndSplineSet
EndChar

StartChar: uni06A1
Encoding: 1697 1697 80
GlifName: uni06A_1
Width: 1851
VWidth: 2952
GlyphClass: 2
Flags: W
AnchorPoint: "Anchor-10" 670.853 1630.62 basechar 0
AnchorPoint: "Anchor-7" 653.182 -352.248 basechar 0
LayerCount: 2
Fore
SplineSet
1732.55916977 473.295664381 m 0,0,1
 1731.7948906 334.449063215 1731.7948906 334.449063215 1699.06336222 241.714516015 c 0,2,3
 1666.33183384 148.979968815 1666.33183384 148.979968815 1603.19645443 101.611619659 c 0,4,5
 1487.02381389 15 1487.02381389 15 1190.20996094 15 c 2,6,-1
 859.911132812 15 l 2,7,8
 483.03418072 15 483.03418072 15 298.558398725 132.843618395 c 0,9,10
 114.08261673 250.68723679 114.08261673 250.68723679 114.160145714 485.889848591 c 0,11,12
 114.086418992 548.094972763 114.086418992 548.094972763 125.937406953 607.358794442 c 0,13,14
 137.788394915 666.62261612 137.788394915 666.62261612 161.491265735 723.177853031 c 1,15,-1
 296.304512531 666.055527024 l 1,16,17
 292.567972086 655.727094756 292.567972086 655.727094756 289.337658593 645.655552375 c 0,18,19
 286.1073451 635.584009995 286.1073451 635.584009995 283.357709685 625.675851972 c 0,20,21
 280.60807427 615.76769395 280.60807427 615.76769395 278.349032286 606.058428094 c 0,22,23
 276.089990302 596.349162238 276.089990302 596.349162238 274.301024186 586.738974404 c 0,24,25
 272.51205807 577.12878657 272.51205807 577.12878657 271.197716443 567.659913756 c 0,26,27
 269.883374815 558.191040942 269.883374815 558.191040942 269.028506846 548.756939813 c 0,28,29
 268.173638876 539.322838684 268.173638876 539.322838684 267.777426453 529.972475429 c 0,30,31
 267.38121403 520.622112174 267.38121403 520.622112174 267.433537634 511.242634842 c 0,32,33
 266.980431423 173.420319003 266.980431423 173.420319003 846.14265073 173.159181213 c 2,34,-1
 1201.35062373 172.999023438 l 2,35,36
 1603.84913225 173.000037408 1603.84913225 173.000037408 1605.92129297 377.999697028 c 0,37,38
 1606.00651571 387.673543696 1606.00651571 387.673543696 1605.03176052 397.535897712 c 2,39,-1
 1603.23246151 415.740800859 l 1,40,-1
 1585.73296963 410.409407126 l 2,41,42
 1495.75110432 382.995539579 1495.75110432 382.995539579 1381.15815893 382.769527435 c 0,43,44
 1224.08353409 382.881553048 1224.08353409 382.881553048 1147.19075717 447.147885361 c 0,45,46
 1070.29798026 511.414217673 1070.29798026 511.414217673 1067.82726682 642.422234151 c 0,47,48
 1067.55955587 656.247772744 1067.55955587 656.247772744 1068.27708614 669.593245011 c 0,49,50
 1068.9946164 682.938717278 1068.9946164 682.938717278 1070.71290666 696.008070568 c 0,51,52
 1072.43119692 709.077423859 1072.43119692 709.077423859 1075.17169466 722.019102537 c 0,53,54
 1103.9104351 875.78072211 1103.9104351 875.78072211 1184.62506412 958.573056653 c 0,55,56
 1263.35608011 1039.99457757 1263.35608011 1039.99457757 1391.30580389 1039.88477984 c 0,57,58
 1470.58900167 1039.993914 1470.58900167 1039.993914 1530.17724547 1001.53287065 c 0,59,60
 1692.84933573 896.289472851 1692.84933573 896.289472851 1725.25065104 594.61619912 c 0,61,62
 1728.63280042 562.344836964 1728.63280042 562.344836964 1730.45801262 532.040565326 c 0,63,64
 1732.28322482 501.736293688 1732.28322482 501.736293688 1732.55916977 473.295664381 c 0,0,1
1201.85836286 669.281785624 m 0,65,66
 1201.93764888 599.14646125 1201.93764888 599.14646125 1254.4163045 564.237646203 c 0,67,68
 1306.89496012 529.328831156 1306.89496012 529.328831156 1404.14525317 529.684676292 c 0,69,70
 1447.20980758 529.846559924 1447.20980758 529.846559924 1490.89790316 536.573530337 c 0,71,72
 1534.58599873 543.30050075 1534.58599873 543.30050075 1578.83586464 556.559929348 c 2,73,-1
 1590.99016815 560.201954386 l 1,74,-1
 1589.4141042 572.791929073 l 2,75,76
 1585.72338318 602.274288673 1585.72338318 602.274288673 1580.63458109 629.467698405 c 0,77,78
 1575.545779 656.661108137 1575.545779 656.661108137 1569.02459268 681.702191638 c 0,79,80
 1562.50340636 706.74327514 1562.50340636 706.74327514 1554.52265631 729.587129479 c 0,81,82
 1546.54190626 752.430983817 1546.54190626 752.430983817 1537.11460846 773.022889983 c 0,83,84
 1511.00022697 830.144104479 1511.00022697 830.144104479 1472.66966877 860.140558578 c 0,85,86
 1434.33911057 890.137012676 1434.33911057 890.137012676 1384.75752947 890.308539554 c 0,87,88
 1343.04807635 890.196418322 1343.04807635 890.196418322 1309.72236469 873.325918293 c 0,89,90
 1276.39665302 856.455418264 1276.39665302 856.455418264 1252.66896992 824.239788525 c 0,91,92
 1228.94128681 792.024158786 1228.94128681 792.024158786 1214.59900189 745.121572932 c 0,93,94
 1202.00972169 705.347986098 1202.00972169 705.347986098 1201.85836286 669.281785624 c 0,65,66
EndSplineSet
Substitution2: "'init' Initial Forms in Arabic lookup 13 subtable" uni06A1.init
Substitution2: "'medi' Medial Forms in Arabic lookup 11 subtable" uni06A1.medi
Substitution2: "'fina' Terminal Forms in Arabic lookup 9 subtable" uni06A1.fina
EndChar

StartChar: uni06A9
Encoding: 1705 1705 81
GlifName: uni06A_9
Width: 1898
VWidth: 2952
GlyphClass: 2
Flags: W
AnchorPoint: "Anchor-7" 750.268 -236.468 basechar 0
AnchorPoint: "Anchor-10" 693.878 1374.89 basechar 0
LayerCount: 2
Fore
SplineSet
862.553710938 15 m 2,0,1
 484.346083178 15 484.346083178 15 299.214352867 132.852457633 c 128,-1,2
 114.082622557 250.704915266 114.082622557 250.704915266 114.160145714 485.889848591 c 0,3,4
 114.086418992 548.094972763 114.086418992 548.094972763 125.937406953 607.358794442 c 128,-1,5
 137.788394915 666.62261612 137.788394915 666.62261612 161.491265735 723.177853031 c 1,6,-1
 296.304512531 666.055527024 l 1,7,8
 267.021458836 585.11219424 267.021458836 585.11219424 267.433769834 511.20173334 c 0,9,10
 269.072538613 172.993164062 269.072538613 172.993164062 862.553710938 172.993164062 c 2,11,-1
 1043.27464993 172.993164064 l 2,12,13
 1493.06288538 173.000236858 1493.06288538 173.000236858 1492.21676009 375.151387236 c 0,14,15
 1491.98564013 479.499962759 1491.98564013 479.499962759 1383.89517804 581.109164747 c 0,16,17
 1223.74206884 729.422263722 1223.74206884 729.422263722 1109.68360436 818.854022785 c 0,18,19
 1055.10513951 861.173278518 1055.10513951 861.173278518 1028.39493647 907.406528319 c 128,-1,20
 1001.68473342 953.639778121 1001.68473342 953.639778121 1001.41080872 1004.5566113 c 0,21,22
 1001.03343505 1061.96312482 1001.03343505 1061.96312482 1035.18080509 1106.58895233 c 0,23,24
 1070.16133698 1152.2901716 1070.16133698 1152.2901716 1132.14278307 1176.90479339 c 2,25,-1
 1824.86328125 1452.00410355 l 1,26,-1
 1824.86328125 1289.70605581 l 1,27,-1
 1145.65786668 1024.30198006 l 1,28,-1
 1141.08961687 1022.31740403 l 1,29,-1
 1118.82735753 1012.64605329 l 1,30,-1
 1137.43467409 997.060451405 l 2,31,32
 1397.65402767 779.099133017 1397.65402767 779.099133017 1518.23182906 649.493145466 c 0,33,34
 1643.92042776 513.224854469 1643.92042776 513.224854469 1641.71271111 350.644645591 c 0,35,36
 1635.28452571 15 1635.28452571 15 1044.10449219 15 c 2,37,-1
 862.553710938 15 l 2,0,1
EndSplineSet
Substitution2: "'init' Initial Forms in Arabic lookup 13 subtable" uniFB90
Substitution2: "'medi' Medial Forms in Arabic lookup 11 subtable" uniFB91
Substitution2: "'fina' Terminal Forms in Arabic lookup 9 subtable" uniFB8F
EndChar

StartChar: afii57514
Encoding: 1722 1722 83
GlifName: afii57514
Width: 1475
VWidth: 2952
GlyphClass: 2
Flags: W
AnchorPoint: "Anchor-10" 727.479 1187.75 basechar 0
AnchorPoint: "Anchor-7" 758.023 -733.042 basechar 0
LayerCount: 2
Fore
SplineSet
716.485939951 -304.695231648 m 0,0,1
 959.195745335 -303.830007578 959.195745335 -303.830007578 1082.86329027 -188.371147463 c 128,-1,2
 1206.53083521 -72.9122873486 1206.53083521 -72.9122873486 1206.0371091 153.432593173 c 0,3,4
 1206.00085973 340.563263667 1206.00085973 340.563263667 1121.75622222 521.450165502 c 1,5,-1
 1265.52372734 571.680397339 l 1,6,7
 1356.98617151 338.607354252 1356.98617151 338.607354252 1356.67881392 152.221596865 c 0,8,9
 1356.00229972 -30.3515758827 1356.00229972 -30.3515758827 1290.92293279 -162.362450489 c 0,10,11
 1145.69054942 -455.988179133 1145.69054942 -455.988179133 707.032221319 -455.431644468 c 0,12,13
 410.426983094 -455.219335497 410.426983094 -455.219335497 264.52215076 -320.605919266 c 128,-1,14
 118.617318426 -185.992503035 118.617318426 -185.992503035 118.249989707 86.6113221068 c 0,15,16
 118.010766668 290.818089381 118.010766668 290.818089381 211.681026799 523.970588739 c 1,17,-1
 346.657604834 469.704354508 l 1,18,19
 267.014335119 262.529739489 267.014335119 262.529739489 267.753197466 84.9679887598 c 0,20,21
 268.084696854 29.4900317306 268.084696854 29.4900317306 277.71457742 -18.3136684096 c 128,-1,22
 287.344457986 -66.1173685499 287.344457986 -66.1173685499 306.12863843 -105.861380157 c 128,-1,23
 324.912818875 -145.605391764 324.912818875 -145.605391764 352.734483568 -177.54694283 c 128,-1,24
 380.556148261 -209.488493897 380.556148261 -209.488493897 417.321070914 -233.368470389 c 128,-1,25
 454.085993568 -257.248446881 454.085993568 -257.248446881 499.624179874 -273.189338008 c 128,-1,26
 545.162366181 -289.130229134 545.162366181 -289.130229134 599.43276853 -297.007659645 c 128,-1,27
 653.703170878 -304.885090155 653.703170878 -304.885090155 716.485939951 -304.695231648 c 0,0,1
EndSplineSet
Substitution2: "'init' Initial Forms in Arabic lookup 13 subtable" uni06BA.init
Substitution2: "'medi' Medial Forms in Arabic lookup 11 subtable" uni06BA.medi
Substitution2: "'fina' Terminal Forms in Arabic lookup 9 subtable" uniFB9F
EndChar

StartChar: uni06F4
Encoding: 1780 1780 90
GlifName: uni06F_4
Width: 1244
VWidth: 2952
GlyphClass: 2
Flags: W
LayerCount: 2
Fore
SplineSet
1065.71833843 1371.77386077 m 1,0,-1
 1029.87014177 1228.04072514 l 1,1,2
 1005.26339228 1236.81206703 1005.26339228 1236.81206703 980.589399829 1242.5662784 c 128,-1,3
 955.915407375 1248.32048978 955.915407375 1248.32048978 930.970862016 1251.13502899 c 128,-1,4
 906.026316657 1253.94956821 906.026316657 1253.94956821 880.245993581 1253.92675404 c 0,5,6
 772.095632165 1254.00348327 772.095632165 1254.00348327 698.133714004 1199.78443314 c 0,7,8
 576.782242345 1109.10090238 576.782242345 1109.10090238 561.742301032 968.732897556 c 0,9,10
 558.696371962 939.212582264 558.696371962 939.212582264 581.866852228 913.592376082 c 128,-1,11
 605.037332495 887.972169901 605.037332495 887.972169901 650.573118323 864.360097008 c 0,12,13
 724.308991912 826.012295386 724.308991912 826.012295386 852.986205271 825.590884326 c 0,14,15
 985.383399632 825.977684014 985.383399632 825.977684014 1102.78010759 869.630787732 c 1,16,-1
 1122.07628562 725.171587147 l 1,17,18
 1082.47269943 708.558976005 1082.47269943 708.558976005 1042.22738407 697.701329923 c 128,-1,19
 1001.98206872 686.843683841 1001.98206872 686.843683841 959.939528448 681.483860057 c 128,-1,20
 917.896988177 676.124036273 917.896988177 676.124036273 873.22395447 676.181688145 c 0,21,22
 604.049829051 676.979179076 604.049829051 676.979179076 488.713156632 815.595071628 c 2,23,-1
 454.739253971 856.426168468 l 1,24,-1
 462.336853733 803.85544459 l 1,25,-1
 463.861681066 793.304603139 l 2,26,27
 499.115234375 548.125690276 499.115234375 548.125690276 499.115234375 308.771484375 c 2,28,-1
 499.115234375 26.5537109375 l 1,29,-1
 349.796631157 26.5537109375 l 1,30,-1
 349.791991445 311.913249038 l 2,31,32
 349.996850335 962.987502839 349.996850335 962.987502839 165.71145984 1349.34774551 c 1,33,-1
 300.332958413 1396.80200536 l 1,34,35
 327.1169002 1319.3491654 327.1169002 1319.3491654 356.309366648 1233.32122745 c 128,-1,36
 385.501833097 1147.29328949 385.501833097 1147.29328949 417.309074602 1052.08491107 c 2,37,-1
 432.233891681 1007.41056758 l 1,38,-1
 461.089107808 1102.64779987 l 6,39,40
 504.045352521 1244.32910964 504.045352521 1244.32910964 605.602765995 1328.47668081 c 0,41,42
 709.406211101 1414.97955173 709.406211101 1414.97955173 854.994321565 1414.43173614 c 0,43,44
 966.284500241 1414.03457608 966.284500241 1414.03457608 1065.71833843 1371.77386077 c 1,0,-1
EndSplineSet
EndChar

StartChar: uni06F5
Encoding: 1781 1781 91
GlifName: uni06F_5
Width: 1328
VWidth: 2952
GlyphClass: 2
Flags: W
LayerCount: 2
Fore
SplineSet
268.965820096 339.40923793 m 0,0,1
 268.965820096 264.367596139 268.965820096 264.367596139 301.771739915 223.649384055 c 0,2,3
 334.577659735 182.93117197 334.577659735 182.93117197 398.066849638 182.844735168 c 0,4,5
 552.13851794 183.009780816 552.13851794 183.009780816 621.813087373 497.572737663 c 1,6,-1
 721.407632149 497.48823671 l 1,7,8
 778.433705356 178.995007394 778.433705356 178.995007394 939.245508009 179.079105839 c 0,9,10
 998.692679974 179.034211605 998.692679974 179.034211605 1028.84131853 220.976221998 c 0,11,12
 1058.98995709 262.91823239 1058.98995709 262.91823239 1058.97877212 339.67510086 c 0,13,14
 1059.00040559 670.196210088 1059.00040559 670.196210088 639.62661196 1091.15686615 c 2,15,-1
 627.46721706 1103.36227081 l 1,16,-1
 617.051574697 1089.63867138 l 2,17,18
 268.965820096 631.002583711 268.965820096 631.002583711 268.965820096 339.40923793 c 0,0,1
383.447130746 26.9833984731 m 0,19,20
 252.434854261 26.9833984731 252.434854261 26.9833984731 188.27962405 103.565621562 c 0,21,22
 124.124393838 180.147844652 124.124393838 180.147844652 124.242183983 339.354998745 c 0,23,24
 124.003541612 687.833482452 124.003541612 687.833482452 505.845211217 1200.60561058 c 2,25,-1
 507.445797154 1202.75502465 l 1,26,-1
 515.45074033 1213.5047989 l 1,27,-1
 505.66615554 1222.66442019 l 1,28,-1
 503.708686201 1224.49686153 l 1,29,-1
 459.67965823 1265.71035132 l 1,30,-1
 564.828803875 1394.19971332 l 1,31,-1
 678.279510558 1286.57703872 l 1,32,33
 1204.44199613 769.260797802 1204.44199613 769.260797802 1204.44199613 349.269371024 c 0,34,35
 1204.33438677 184.872567642 1204.33438677 184.872567642 1142.26439178 105.921431677 c 0,36,37
 1080.19439679 26.9702957122 1080.19439679 26.9702957122 954.31385457 26.9433587632 c 0,38,39
 766.120917171 26.9971099037 766.120917171 26.9971099037 686.343922252 248.352420779 c 2,40,-1
 671.652353831 289.116762659 l 1,41,-1
 657.996773358 247.993790083 l 2,42,43
 584.606524577 26.9833984731 584.606524577 26.9833984731 383.447130746 26.9833984731 c 0,19,20
EndSplineSet
EndChar

StartChar: uni06F6
Encoding: 1782 1782 92
GlifName: uni06F_6
Width: 1104
VWidth: 2952
GlyphClass: 2
Flags: W
LayerCount: 2
Fore
SplineSet
739.704856535 1241.13280711 m 1,0,1
 714.973446553 1243.16890778 714.973446553 1243.16890778 690.231129311 1244.21363015 c 0,2,3
 665.488812068 1245.25835251 665.488812068 1245.25835251 637.711654809 1245.46595654 c 0,4,5
 439.242919016 1244.98362272 439.242919016 1244.98362272 357.779380251 1153.20282927 c 0,6,7
 297.030645371 1084.72936319 297.030645371 1084.72936319 296.594650324 1003.791873 c 0,8,9
 297.028231408 774.025241592 297.028231408 774.025241592 688.739337891 773.364279166 c 2,10,-1
 690.457177733 773.361380531 l 1,11,-1
 692.131195665 773.74692701 l 1,12,-1
 693.445648789 774.049661386 l 1,13,-1
 695.445829432 774.510327064 l 1,14,-1
 697.248729079 775.491391964 l 2,15,16
 874.869689933 872.145518297 874.869689933 872.145518297 959.786065029 909.485338298 c 1,17,-1
 966.15455173 755.076472843 l 1,18,19
 548.814057846 561.048089609 548.814057846 561.048089609 309.758192733 -9.74488844511 c 1,20,-1
 168.908790776 37.4281408261 l 1,21,22
 323.918709986 416.618597564 323.918709986 416.618597564 535.183643117 624.991451265 c 2,23,-1
 558.035228922 647.530213733 l 1,24,-1
 526.085977758 650.60204339 l 2,25,26
 331.033993411 669.355737087 331.033993411 669.355737087 236.44246112 758.290257151 c 0,27,28
 141.850928829 847.224777216 141.850928829 847.224777216 142.644645902 1008.83539526 c 0,29,30
 142.987034926 1099.53713112 142.987034926 1099.53713112 179.877487106 1175.83399715 c 0,31,32
 292.289796804 1402.9540327 292.289796804 1402.9540327 605.93560638 1401.40820957 c 0,33,34
 677.995561037 1401.04063512 677.995561037 1401.04063512 761.353011566 1389.52732594 c 1,35,-1
 739.704856535 1241.13280711 l 1,0,1
EndSplineSet
EndChar

StartChar: uniFB8F
Encoding: 64399 64399 107
GlifName: uniF_B_8F_
Width: 1954
VWidth: 2952
GlyphClass: 2
Flags: W
AnchorPoint: "Anchor-10" 743.878 1374.89 basechar 0
AnchorPoint: "Anchor-7" 750.268 -236.468 basechar 0
LayerCount: 2
Fore
SplineSet
860.911132812 15 m 2,0,1
 483.531099375 15 483.531099375 15 298.806859335 132.847510004 c 128,-1,2
 114.082619295 250.695020008 114.082619295 250.695020008 114.160145714 485.889848591 c 0,3,4
 114.086418992 548.094972763 114.086418992 548.094972763 125.937406953 607.358794442 c 128,-1,5
 137.788394915 666.62261612 137.788394915 666.62261612 161.491265735 723.177853031 c 1,6,-1
 296.304512531 666.055527024 l 1,7,8
 267.021458836 585.11219424 267.021458836 585.11219424 267.433769834 511.20173334 c 0,9,10
 269.072538613 172.993164062 269.072538613 172.993164062 860.911132812 172.993164062 c 2,11,-1
 1042.63207255 172.993164064 l 2,12,13
 1490.9540278 173.000235883 1490.9540278 173.000235883 1491.57407684 375.052915405 c 0,14,15
 1492.02836207 479.487463343 1492.02836207 479.487463343 1383.23361824 581.126701785 c 0,16,17
 1223.73702135 729.428681972 1223.73702135 729.428681972 1109.08781431 818.817595763 c 0,18,19
 1072.469283 847.443511169 1072.469283 847.443511169 1048.33205163 877.792901353 c 128,-1,20
 1024.19482027 908.142291537 1024.19482027 908.142291537 1012.51728026 939.569134129 c 128,-1,21
 1000.83974024 970.99597672 1000.83974024 970.99597672 1000.76845198 1004.40249861 c 0,22,23
 1000.98146888 1061.96469885 1000.98146888 1061.96469885 1034.54022572 1106.5907053 c 0,24,25
 1052.38222134 1129.51049998 1052.38222134 1129.51049998 1076.59260111 1147.1122697 c 128,-1,26
 1100.80298089 1164.71403942 1100.80298089 1164.71403942 1131.50020495 1176.90479339 c 2,27,-1
 1824.22070312 1452.00410355 l 1,28,-1
 1824.22070312 1289.70605581 l 1,29,-1
 1145.01528855 1024.30198006 l 1,30,-1
 1140.44703874 1022.31740403 l 1,31,-1
 1118.15462032 1012.63295134 l 1,32,-1
 1136.80602235 997.048800908 l 2,33,34
 1397.6441308 779.105918374 1397.6441308 779.105918374 1517.61775906 649.462324372 c 0,35,36
 1556.66177556 607.368838981 1556.66177556 607.368838981 1588.21821957 552.511882392 c 128,-1,37
 1619.77466358 497.654925803 1619.77466358 497.654925803 1643.79500925 429.840614183 c 0,38,39
 1735.4278359 172.993164062 1735.4278359 172.993164062 1945.76367188 172.993164062 c 2,40,-1
 1959.47734727 172.993164062 l 1,41,42
 1967.17382812 158.69550758 1967.17382812 158.69550758 1967.17382812 107.174804688 c 2,43,-1
 1967.17385718 88.334215001 l 2,44,45
 1967.06045805 30.7274536787 1967.06045805 30.7274536787 1959.02456287 15 c 1,46,-1
 1945.65722656 15 l 2,47,48
 1746.51455735 15 1746.51455735 15 1618.86356455 185.752847369 c 2,49,-1
 1605.93253278 203.050092349 l 1,50,-1
 1594.23877725 184.893486161 l 2,51,52
 1484.81894009 15 1484.81894009 15 1043.46191406 15 c 2,53,-1
 860.911132812 15 l 2,0,1
EndSplineSet
EndChar

StartChar: uniFB9F
Encoding: 64415 64415 115
GlifName: uniF_B_9F_
Width: 1549
VWidth: 2952
GlyphClass: 2
Flags: W
AnchorPoint: "Anchor-10" 703.458 1366.61 basechar 0
AnchorPoint: "Anchor-7" 595.902 -800.086 basechar 0
LayerCount: 2
Fore
SplineSet
1354.92025491 56.1497579027 m 2,0,1
 1354.02283588 -78.5231132298 1354.02283588 -78.5231132298 1290.37020062 -210.443715181 c 0,2,3
 1145.60577545 -508.994226757 1145.60577545 -508.994226757 707.323253982 -508.724610927 c 0,4,5
 409.627349758 -508.860045567 409.627349758 -508.860045567 263.2507605 -372.34360602 c 128,-1,6
 116.874171241 -235.827166472 116.874171241 -235.827166472 116.753303113 41.0260863536 c 0,7,8
 116.989100775 236.935494246 116.989100775 236.935494246 211.268360794 470.645448042 c 1,9,-1
 346.188809275 416.403570358 l 1,10,11
 267.004466603 210.184132921 267.004466603 210.184132921 267.268668165 42.8703701945 c 0,12,13
 267.130242381 -155.938764748 267.130242381 -155.938764748 380.281015578 -257.019122562 c 128,-1,14
 493.431788774 -358.099480375 493.431788774 -358.099480375 714.407041529 -358.203455631 c 0,15,16
 956.683821217 -358.099593489 956.683821217 -358.099593489 1080.72079563 -242.146228211 c 128,-1,17
 1204.75777004 -126.192862932 1204.75777004 -126.192862932 1205.55488882 101.897377653 c 0,18,19
 1205.98975517 281.744914448 1205.98975517 281.744914448 1121.19590528 463.128897554 c 1,20,-1
 1263.58339749 512.876124164 l 1,21,-1
 1331.99278427 303.475474016 l 2,22,23
 1374.07754628 172.999023438 1374.07754628 172.999023438 1539.02050781 172.999023438 c 2,24,-1
 1555.77667055 172.999023438 l 1,25,26
 1563.21875 159.591624582 1563.21875 159.591624582 1563.21875 111.889648438 c 2,27,-1
 1563.21879602 88.3486787238 l 2,28,29
 1563.14884049 60.1069461779 1563.14884049 60.1069461779 1560.65741352 40.6078779544 c 128,-1,30
 1558.16598655 21.1088097309 1558.16598655 21.1088097309 1555.04824935 15 c 1,31,-1
 1543.41894531 15 l 2,32,33
 1434.98322423 15 1434.98322423 15 1380.24377738 66.9318085251 c 2,34,-1
 1355.1507391 90.7378009984 l 1,35,-1
 1354.92025491 56.1497579027 l 2,0,1
EndSplineSet
EndChar

StartChar: uniFBE8
Encoding: 64488 64488 118
GlifName: uniF_B_E_8
Width: 646
VWidth: 2952
GlyphClass: 2
Flags: W
AnchorPoint: "Anchor-10" 311.384 1353 basechar 0
AnchorPoint: "Anchor-7" 303.422 -223.625 basechar 0
LayerCount: 2
Fore
SplineSet
68.673828125 15 m 2,0,-1
 -6.9384765625 15 l 2,1,2
 -39.9067846907 15 -39.9067846907 15 -54.8425525016 31.9500101536 c 0,3,4
 -69.7783203125 48.9000203072 -69.7783203125 48.9000203072 -69.7783203125 88.3134765625 c 2,5,-1
 -69.7783767331 107.21789923 l 2,6,7
 -69.8751069416 142.485221865 -69.8751069416 142.485221865 -55.1724803374 157.739192963 c 0,8,9
 -40.4698537333 172.993164062 -40.4698537333 172.993164062 -6.9384765625 172.993164062 c 2,10,-1
 68.6852262879 172.993164076 l 2,11,12
 228.966732085 173.000173458 228.966732085 173.000173458 289.031328244 207.1538601 c 0,13,14
 381.987604334 261.377115154 381.987604334 261.377115154 382.221653646 425.062130485 c 0,15,16
 382.008260607 539.580867834 382.008260607 539.580867834 348.498342581 678.647580268 c 1,17,-1
 487.226182462 712.717571232 l 1,18,19
 531.013519408 566.150569186 531.013519408 566.150569186 531.223638846 428.341579121 c 0,20,21
 531.006738345 186.519304759 531.006738345 186.519304759 399.494246088 88.1971753288 c 0,22,23
 302.956285484 15 302.956285484 15 68.673828125 15 c 2,0,-1
EndSplineSet
EndChar

StartChar: uniFBE9
Encoding: 64489 64489 119
GlifName: uniF_B_E_9
Width: 717
VWidth: 2952
GlyphClass: 2
Flags: W
AnchorPoint: "Anchor-10" 315.665 1297.09 basechar 0
AnchorPoint: "Anchor-7" 350.537 -177.742 basechar 0
LayerCount: 2
Fore
SplineSet
729.731445312 88.3408203125 m 2,0,1
 729.731445312 60.0234456991 729.731445312 60.0234456991 727.244987615 40.4955253266 c 0,2,3
 724.758529917 20.9676049542 724.758529917 20.9676049542 721.651669 15 c 1,4,-1
 715.006835938 15 l 2,5,6
 526.038711915 15 526.038711915 15 455.686763389 148.122856204 c 2,7,-1
 444.254840277 169.754812225 l 1,8,-1
 430.162707123 149.75375799 l 2,9,10
 335.219316733 15 335.219316733 15 95.759765625 15 c 2,11,-1
 -8.1171875 15 l 2,12,13
 -40.4165802567 15 -40.4165802567 15 -55.0974502846 31.9134486695 c 0,14,15
 -69.7783203125 48.8268973389 -69.7783203125 48.8268973389 -69.7783203125 88.3134765625 c 2,16,-1
 -69.7783767468 107.227669828 l 2,17,18
 -69.8753057832 142.563214092 -69.8753057832 142.563214092 -55.4306223384 157.778189077 c 0,19,20
 -40.9859388936 172.993164062 -40.9859388936 172.993164062 -8.1171875 172.993164062 c 2,21,-1
 91.013139229 172.993164069 l 2,22,23
 334.399482825 173.000366949 334.399482825 173.000366949 361.301857421 313.460466016 c 0,24,25
 364.681655384 331.707381922 364.681655384 331.707381922 366.411847595 353.043903482 c 0,26,27
 368.142039805 374.380425042 368.142039805 374.380425042 368.292905641 399.261957138 c 0,28,29
 368.147412881 424.48616178 368.147412881 424.48616178 367.319634544 448.263591265 c 0,30,31
 366.491856207 472.041020749 366.491856207 472.041020749 364.971174315 494.685710657 c 2,32,-1
 360.43713384 562.202750944 l 1,33,-1
 495.448326956 578.05253797 l 1,34,-1
 510.432056944 362.533371012 l 2,35,36
 513.76069485 316.165540388 513.76069485 316.165540388 528.740090415 280.634330236 c 0,37,38
 543.71948598 245.103120084 543.71948598 245.103120084 569.699841799 221.249868579 c 0,39,40
 595.680197617 197.396617075 595.680197617 197.396617075 632.61561317 185.194890569 c 0,41,42
 669.551028722 172.993164062 669.551028722 172.993164062 716.57421875 172.993164062 c 2,43,-1
 721.590343481 172.993164062 l 1,44,45
 729.731445312 157.341688216 729.731445312 157.341688216 729.731445312 98.322265625 c 2,46,-1
 729.731445312 88.3408203125 l 2,0,1
EndSplineSet
EndChar

StartChar: uniFE73
Encoding: 65139 65139 127
GlifName: uniF_E_73
Width: 742
VWidth: 2952
GlyphClass: 2
Flags: W
AnchorPoint: "Anchor-10" 274.943 1718.47 basechar 0
AnchorPoint: "Anchor-7" 274.943 -172.304 basechar 0
LayerCount: 2
Fore
SplineSet
355.483543643 447.69140625 m 1,0,1
 357.178513933 400.770378594 357.178513933 400.770378594 377.398281315 357.107181169 c 0,2,3
 399.19029088 310.046611761 399.19029088 310.046611761 442.249729504 266.989215609 c 0,4,5
 462.616986457 246.617769372 462.616986457 246.617769372 488.660549647 231.447613035 c 0,6,7
 514.412152945 216.443686561 514.412152945 216.443686561 545.612633113 206.568267466 c 0,8,9
 560.936460404 201.718477139 560.936460404 201.718477139 577.563798835 198.094765795 c 0,10,11
 580.879704686 197.372354622 580.879704686 197.372354622 584.247031351 196.698671371 c 128,-1,12
 587.614358015 196.024988121 587.614358015 196.024988121 591.027558803 195.400977229 c 128,-1,13
 594.440759591 194.776966337 594.440759591 194.776966337 597.905828121 194.201392314 c 128,-1,14
 601.370896652 193.625818291 601.370896652 193.625818291 604.881799535 193.099522346 c 128,-1,15
 608.392702418 192.573226402 608.392702418 192.573226402 611.955919973 192.095076272 c 0,16,17
 647.383182187 187.342773438 647.383182187 187.342773438 688.00390625 187.342773438 c 2,18,-1
 743.674804688 187.342773438 l 1,19,-1
 743.674804688 26.5537109375 l 1,20,-1
 608.006835938 26.5537109375 l 2,21,22
 423.602816866 26.5537109375 423.602816866 26.5537109375 305.437701329 144.71788492 c 0,23,24
 194.544921875 255.61160372 194.544921875 255.61160372 194.544921875 438.563476562 c 2,25,-1
 194.544921875 447.69140625 l 1,26,-1
 355.483543643 447.69140625 l 1,0,1
EndSplineSet
EndChar

StartChar: uniFE8E
Encoding: 65166 65166 153
GlifName: uniF_E_8E_
Width: 571
VWidth: 2952
GlyphClass: 2
Flags: W
AnchorPoint: "Anchor-10" 256.697 1633.11 basechar 0
AnchorPoint: "Anchor-7" 316.078 -239.903 basechar 0
LayerCount: 2
Fore
SplineSet
583.618164062 88.1931980916 m 2,0,1
 583.753722306 79.529924566 583.753722306 79.529924566 583.604671586 71.4344973259 c 0,2,3
 583.455620866 63.3390700858 583.455620866 63.3390700858 583.07815684 56.6991279574 c 0,4,5
 582.700692815 50.0591858289 582.700692815 50.0591858289 582.12854965 44.1274120088 c 0,6,7
 581.556406486 38.1956381887 581.556406486 38.1956381887 580.863307788 33.5990744499 c 0,8,9
 580.170209091 29.002510711 580.170209091 29.002510711 579.371192551 25.2718104401 c 0,10,11
 578.572176011 21.5411101692 578.572176011 21.5411101692 577.75966171 19.0253449493 c 0,12,13
 576.94714741 16.5095797293 576.94714741 16.5095797293 576.118645092 15 c 2,14,-1
 557.658203125 15 l 2,15,16
 369.898714581 15 369.898714581 15 277.590958853 119.456815888 c 0,17,18
 185.283203125 223.913631776 185.283203125 223.913631776 185.283203125 438.395507812 c 2,19,-1
 185.283203125 1453.171875 l 1,20,-1
 328.598632812 1453.171875 l 1,21,-1
 328.59865177 440.426347043 l 2,22,23
 328.736819908 353.521949919 328.736819908 353.521949919 354.722649847 293.981381867 c 0,24,25
 380.708479785 234.440813815 380.708479785 234.440813815 432.5748706 203.716988939 c 0,26,27
 484.441261415 172.993164062 484.441261415 172.993164062 560.712890625 172.993164062 c 2,28,-1
 575.920255267 172.993164062 l 1,29,30
 583.618164062 158.694902676 583.618164062 158.694902676 583.618164062 107.174804688 c 2,31,-1
 583.618164062 88.1931980916 l 2,0,1
EndSplineSet
EndChar

StartChar: uniFEA2
Encoding: 65186 65186 173
GlifName: uniF_E_A_2
Width: 1366
VWidth: 2952
GlyphClass: 2
Flags: W
AnchorPoint: "Anchor-10" 633.478 1366.07 basechar 0
AnchorPoint: "Anchor-7" 536.833 -922.619 basechar 0
LayerCount: 2
Fore
SplineSet
1241.81524868 646.630100725 m 1,0,-1
 1230.915196 500.813019865 l 1,1,2
 1181.73704741 496.878187136 1181.73704741 496.878187136 1136.63375449 492.049810699 c 0,3,4
 1091.53046158 487.221434262 1091.53046158 487.221434262 1047.72735552 481.216472672 c 2,5,-1
 1034.76464844 479.439416998 l 1,6,-1
 1034.76464844 466.35546875 l 1,7,-1
 1034.76465409 458.123698484 l 2,8,9
 1034.8872312 316.908763013 1034.8872312 316.908763013 1110.0646207 244.619232562 c 0,10,11
 1185.24201021 172.329702112 1185.24201021 172.329702112 1330.69560539 173.061713388 c 2,12,-1
 1371.45544648 173.266841788 l 1,13,14
 1374.37504248 168.230057872 1374.37504248 168.230057872 1376.67677905 151.912762952 c 0,15,16
 1378.97851562 135.595468032 1378.97851562 135.595468032 1378.97851562 111.889648438 c 2,17,-1
 1378.97851606 88.3078742457 l 2,18,19
 1378.98540282 59.9998565134 1378.98540282 59.9998565134 1376.50163008 40.4823604419 c 0,20,21
 1374.01785734 20.9648643704 1374.01785734 20.9648643704 1370.90967166 15 c 1,22,-1
 1331.49511719 15 l 2,23,24
 1119.55590421 15 1119.55590421 15 1015.63835351 116.221501516 c 0,25,26
 911.72080282 217.443003033 911.72080282 217.443003033 911.192333738 424.040322501 c 2,27,-1
 911.162060301 435.875283438 l 1,28,-1
 911.112928663 455.082584457 l 1,29,-1
 892.490008434 450.380492531 l 2,30,31
 259.993217353 290.681690286 259.993217353 290.681690286 260.249026859 -149.292603161 c 0,32,33
 259.989861226 -533.006125551 259.989861226 -533.006125551 806.37278341 -532.782714588 c 0,34,35
 1035.85623663 -532.993446298 1035.85623663 -532.993446298 1232.37366801 -443.925517818 c 1,36,-1
 1262.35426732 -592.605744368 l 1,37,38
 1068.69932273 -683.009766813 1068.69932273 -683.009766813 791.538009226 -683.249026567 c 0,39,40
 412.556065653 -683.004231616 412.556065653 -683.004231616 245.005922903 -502.114993994 c 0,41,42
 203.290542525 -457.066703274 203.290542525 -457.066703274 175.547673243 -404.766822905 c 0,43,44
 147.804803961 -352.466942535 147.804803961 -352.466942535 133.895815135 -292.433016531 c 0,45,46
 119.986826309 -232.399090526 119.986826309 -232.399090526 119.980468742 -164.545410527 c 0,47,48
 119.990045855 129.440338524 119.990045855 129.440338524 300.006951266 315.897957156 c 0,49,50
 480.023856677 502.355575788 480.023856677 502.355575788 844.247748275 583.132182979 c 2,51,-1
 854.247748275 585.349956416 l 1,52,-1
 902.8232028 596.12289169 l 1,53,-1
 856.387434384 613.99326741 l 2,54,55
 847.817452825 617.2913455 847.817452825 617.2913455 832.273296747 623.403144186 c 0,56,57
 816.72914067 629.514942871 816.72914067 629.514942871 794.2222539 638.436511334 c 0,58,59
 771.71536713 647.358079797 771.71536713 647.358079797 742.507187659 658.986261356 c 0,60,61
 544.89080966 739.012605716 544.89080966 739.012605716 469.539547519 738.687663144 c 0,62,63
 349.182105412 739.021759214 349.182105412 739.021759214 271.790213212 639.335307083 c 2,64,-1
 251.270924154 612.904952839 l 1,65,-1
 123.048538882 676.207598892 l 1,66,-1
 131.268959381 689.782514848 l 2,67,68
 253.437368498 890.994139201 253.437368498 890.994139201 471.808841422 890.841808659 c 0,69,70
 594.558668269 890.995674535 594.558668269 890.995674535 768.420795875 806.544874533 c 0,71,72
 1069.08694961 660.042386307 1069.08694961 660.042386307 1241.81524868 646.630100725 c 1,0,-1
EndSplineSet
EndChar

StartChar: uniFEA3
Encoding: 65187 65187 174
GlifName: uniF_E_A_3
Width: 1337
VWidth: 2952
GlyphClass: 2
Flags: W
AnchorPoint: "Anchor-10" 581.825 1372.07 basechar 0
AnchorPoint: "Anchor-7" 513.524 -234.745 basechar 0
LayerCount: 2
Fore
SplineSet
-6.9384765625 15 m 2,0,1
 -39.9067846907 15 -39.9067846907 15 -54.8425525016 31.9500101536 c 0,2,3
 -69.7783203125 48.9000203072 -69.7783203125 48.9000203072 -69.7783203125 88.3134765625 c 2,4,-1
 -69.7783767468 107.227669828 l 2,5,6
 -69.8751126483 142.492806664 -69.8751126483 142.492806664 -55.1726109125 157.745915051 c 0,7,8
 -40.4701091767 172.999023438 -40.4701091767 172.999023438 -6.9384765625 172.999023438 c 2,9,-1
 52.54301203 172.999023438 l 2,10,11
 394.595525241 173.000010374 394.595525241 173.000010374 875.881893595 421.508765633 c 2,12,-1
 949.709042033 459.628882821 l 1,13,-1
 983.926870198 477.297012326 l 1,14,-1
 946.773492816 487.42860221 l 2,15,16
 935.301103236 490.557080814 935.301103236 490.557080814 880.057631336 512.05268309 c 0,17,18
 824.814159435 533.548285365 824.814159435 533.548285365 732.49282976 570.966315617 c 0,19,20
 632.478976395 611.274111835 632.478976395 611.274111835 565.49960109 631.058387043 c 0,21,22
 498.520225785 650.842662251 498.520225785 650.842662251 460.305650336 650.657336581 c 0,23,24
 420.245772302 650.778511507 420.245772302 650.778511507 384.555933547 639.638456419 c 0,25,26
 348.866094792 628.498401331 348.866094792 628.498401331 318.099799538 606.347364557 c 0,27,28
 287.333504284 584.196327784 287.333504284 584.196327784 261.799002275 551.306010208 c 2,29,-1
 241.279713217 524.875655963 l 1,30,-1
 113.057327944 588.178302017 l 1,31,-1
 121.289243828 601.772182481 l 2,32,33
 145.721338973 642.14632566 145.721338973 642.14632566 173.884050212 674.303748496 c 0,34,35
 202.046761452 706.461171331 202.046761452 706.461171331 234.01431925 730.515516386 c 0,36,37
 265.981877048 754.569861442 265.981877048 754.569861442 301.891655973 770.576143518 c 0,38,39
 337.801434897 786.582425594 337.801434897 786.582425594 377.601418438 794.618924412 c 0,40,41
 417.401401979 802.655423231 417.401401979 802.655423231 461.355211678 802.812516434 c 0,42,43
 584.559368799 802.99489054 584.559368799 802.99489054 758.430458651 718.515151967 c 0,44,45
 1060.31650235 571.442464009 1060.31650235 571.442464009 1232.76766333 558.532156481 c 1,46,-1
 1231.23139462 412.354832007 l 1,47,48
 1199.88964411 407.80086315 1199.88964411 407.80086315 1158.42468957 394.740170649 c 0,49,50
 1116.95973504 381.679478147 1116.95973504 381.679478147 1064.8652752 359.935273233 c 0,51,52
 1012.77081536 338.191068318 1012.77081536 338.191068318 950.694485355 308.267165385 c 0,53,54
 888.618155346 278.343262452 888.618155346 278.343262452 814.68360514 239.41838759 c 0,55,56
 389.285948104 15 389.285948104 15 40.767578125 15 c 2,57,-1
 -6.9384765625 15 l 2,0,1
EndSplineSet
EndChar

StartChar: uniFEA4
Encoding: 65188 65188 175
GlifName: uniF_E_A_4
Width: 1351
VWidth: 2952
GlyphClass: 2
Flags: W
AnchorPoint: "Anchor-7" 513.524 -234.745 basechar 0
AnchorPoint: "Anchor-10" 581.825 1372.07 basechar 0
LayerCount: 2
Fore
SplineSet
946.514657596 487.496710621 m 2,0,1
 923.688530325 493.285803434 923.688530325 493.285803434 732.49282976 570.966315617 c 0,2,3
 632.478976395 611.274111835 632.478976395 611.274111835 565.49960109 631.058387043 c 0,4,5
 498.520225785 650.842662251 498.520225785 650.842662251 460.305650336 650.657336581 c 0,6,7
 420.245772302 650.778511507 420.245772302 650.778511507 384.555933547 639.638456419 c 0,8,9
 348.866094792 628.498401331 348.866094792 628.498401331 318.099799538 606.347364557 c 0,10,11
 287.333504284 584.196327784 287.333504284 584.196327784 261.799002275 551.306010208 c 2,12,-1
 241.279713217 524.875655963 l 1,13,-1
 113.057327944 588.178302017 l 1,14,-1
 121.289243828 601.772182481 l 2,15,16
 145.721338973 642.14632566 145.721338973 642.14632566 173.884050212 674.303748496 c 0,17,18
 202.046761452 706.461171331 202.046761452 706.461171331 234.01431925 730.515516386 c 0,19,20
 265.981877048 754.569861442 265.981877048 754.569861442 301.891655973 770.576143518 c 0,21,22
 337.801434897 786.582425594 337.801434897 786.582425594 377.601418438 794.618924412 c 0,23,24
 417.401401979 802.655423231 417.401401979 802.655423231 461.355211678 802.812516434 c 0,25,26
 584.559368799 802.99489054 584.559368799 802.99489054 758.430458651 718.515151967 c 0,27,28
 1060.31650235 571.442464009 1060.31650235 571.442464009 1232.76766333 558.532156481 c 1,29,-1
 1231.23034003 412.254487085 l 1,30,31
 1161.96998333 401.511422224 1161.96998333 401.511422224 1022.01346411 340.592462645 c 2,32,-1
 1012.71414608 336.544742809 l 1,33,-1
 1013.00622141 326.406890786 l 2,34,35
 1017.417885 173.279296875 1017.417885 173.279296875 1316.61132812 173.279296875 c 2,36,-1
 1357.96647583 173.279296875 l 1,37,38
 1365.50585938 160.288462979 1365.50585938 160.288462979 1365.50585938 111.889648438 c 2,39,-1
 1365.50609411 88.2432332037 l 2,40,41
 1365.82901746 30.5210016948 1365.82901746 30.5210016948 1357.63634483 15 c 1,42,-1
 1301.09667969 15 l 2,43,44
 1122.39924509 15 1122.39924509 15 1028.27185319 78.6368565473 c 0,45,46
 934.144461297 142.273713095 934.144461297 142.273713095 918.894523868 270.188799526 c 2,47,-1
 916.374295723 291.328243703 l 1,48,-1
 897.315747528 281.841442833 l 2,49,50
 884.25809394 275.341715877 884.25809394 275.341715877 870.722440084 268.460515385 c 0,51,52
 857.186786228 261.579314893 857.186786228 261.579314893 843.179489616 254.320001119 c 0,53,54
 829.172193004 247.060687346 829.172193004 247.060687346 814.68360514 239.41838759 c 0,55,56
 389.285948104 15 389.285948104 15 40.767578125 15 c 2,57,-1
 -6.9384765625 15 l 2,58,59
 -39.9067846907 15 -39.9067846907 15 -54.8425525016 31.9500101536 c 0,60,61
 -69.7783203125 48.9000203072 -69.7783203125 48.9000203072 -69.7783203125 88.3134765625 c 2,62,-1
 -69.7783767468 107.227669828 l 2,63,64
 -69.8751126483 142.492806664 -69.8751126483 142.492806664 -55.1726109125 157.745915051 c 0,65,66
 -40.4701091767 172.999023438 -40.4701091767 172.999023438 -6.9384765625 172.999023438 c 2,67,-1
 52.54301203 172.999023438 l 2,68,69
 394.595525241 173.000010374 394.595525241 173.000010374 875.881893595 421.508765633 c 2,70,-1
 949.709042033 459.628882821 l 1,71,-1
 984.850719758 477.774035402 l 1,72,-1
 946.514657596 487.496710621 l 2,0,1
EndSplineSet
EndChar

StartChar: uniFEAA
Encoding: 65194 65194 181
GlifName: uniF_E_A_A_
Width: 1121
VWidth: 2952
GlyphClass: 2
Flags: W
AnchorPoint: "Anchor-7" 437.24 -239.316 basechar 0
AnchorPoint: "Anchor-10" 598.848 1381.53 basechar 0
LayerCount: 2
Fore
SplineSet
387.565651812 15.8193414343 m 0,0,1
 260.941018319 15.99062471 260.941018319 15.99062471 117.096679688 42.0269032123 c 1,2,-1
 117.096679688 199.921248714 l 1,3,4
 250.345380932 174.003780209 250.345380932 174.003780209 392.978384615 174.068359687 c 0,5,6
 563.876916081 174.033488434 563.876916081 174.033488434 653.457425541 211.432245001 c 128,-1,7
 743.037935001 248.831001568 743.037935001 248.831001568 743.088853564 329.083693075 c 0,8,9
 742.995497265 398.350988804 742.995497265 398.350988804 650.631371224 614.306827535 c 2,10,-1
 523.535657276 911.468319569 l 1,11,-1
 660.63141242 974.458217164 l 1,12,-1
 858.665409361 486.214922282 l 2,13,14
 900.514081038 383.197993972 900.514081038 383.197993972 940.332671909 315.082152464 c 128,-1,15
 980.15126278 246.966310956 980.15126278 246.966310956 1022.74370458 209.979737509 c 128,-1,16
 1065.33614638 172.993164062 1065.33614638 172.993164062 1108.87988281 172.993164062 c 2,17,-1
 1125.90020745 172.993164062 l 1,18,19
 1129.04541918 167.150895435 1129.04541918 167.150895435 1131.32153771 149.852062489 c 128,-1,20
 1133.59765625 132.553229543 1133.59765625 132.553229543 1133.59765625 107.174804688 c 2,21,-1
 1133.59765625 88.2329227839 l 2,22,23
 1133.91150734 60.6825865115 1133.91150734 60.6825865115 1130.98594854 40.0838327439 c 0,24,25
 1128.53816893 22.8491049495 1128.53816893 22.8491049495 1125.04610732 15 c 1,26,-1
 1108.53222656 15 l 2,27,28
 981.864859595 16.473092702 981.864859595 16.473092702 875.908293395 182.6658276 c 2,29,-1
 864.791255557 200.193905906 l 1,30,-1
 851.637709781 184.137558473 l 2,31,32
 713.894322427 15.996152217 713.894322427 15.996152217 387.565651812 15.8193414343 c 0,0,1
EndSplineSet
EndChar

StartChar: uniFEAE
Encoding: 65198 65198 185
GlifName: uniF_E_A_E_
Width: 914
VWidth: 2144
GlyphClass: 2
Flags: W
AnchorPoint: "Anchor-7" 364.969 -769.998 basechar 0
AnchorPoint: "Anchor-10" 459.256 1370.2 basechar 0
LayerCount: 2
Fore
SplineSet
628.317518885 512.364988307 m 1,0,-1
 690.587451003 308.189612742 l 2,1,2
 731.899307588 172.999023438 731.899307588 172.999023438 895.31640625 172.999023438 c 2,3,-1
 920.230096232 172.999023438 l 1,4,5
 927.638671875 159.714927665 927.638671875 159.714927665 927.638671875 112.322265625 c 2,6,-1
 927.638797719 88.147540788 l 2,7,8
 927.721418927 31.2010274218 927.721418927 31.2010274218 919.72557421 15 c 1,9,-1
 905.80078125 15 l 2,10,11
 840.186955377 15 840.186955377 15 799.097520977 27.4182195823 c 128,-1,12
 758.008086577 39.8364391645 758.008086577 39.8364391645 741.333880249 62.19958406 c 2,13,-1
 717.852835157 93.6919383804 l 1,14,-1
 714.367742441 54.5641734557 l 2,15,16
 672.58151459 -414.577348271 672.58151459 -414.577348271 40.7291197487 -503.474041886 c 1,17,-1
 5.4636010589 -362.410349071 l 1,18,19
 284.709679953 -321.595534263 284.709679953 -321.595534263 426.67072334 -199.993138358 c 128,-1,20
 568.631766727 -78.3907424536 568.631766727 -78.3907424536 568.249981378 123.366409269 c 0,21,22
 568.20082112 154.564930492 568.20082112 154.564930492 564.754160392 187.075386628 c 128,-1,23
 561.307499664 219.585842765 561.307499664 219.585842765 554.541900148 253.054805242 c 128,-1,24
 547.776300632 286.523767719 547.776300632 286.523767719 537.700955737 321.146874956 c 128,-1,25
 527.625610841 355.769982193 527.625610841 355.769982193 514.349522433 391.243170284 c 128,-1,26
 501.073434026 426.716358376 501.073434026 426.716358376 484.575355328 463.185901074 c 1,27,-1
 628.317518885 512.364988307 l 1,0,-1
EndSplineSet
PairPos2: "'kern' Horizontal Kerning lookup 15-2" uniFBFE dx=60 dy=0 dh=60 dv=0 dx=0 dy=0 dh=0 dv=0
PairPos2: "'kern' Horizontal Kerning lookup 15-1" uniFEE7 dx=-178 dy=0 dh=-178 dv=0 dx=0 dy=0 dh=0 dv=0
PairPos2: "'kern' Horizontal Kerning lookup 15-2" uniFB90 dx=-226 dy=0 dh=-226 dv=0 dx=0 dy=0 dh=0 dv=0
PairPos2: "'kern' Horizontal Kerning lookup 15-2" uniFB8E dx=-226 dy=0 dh=-226 dv=0 dx=0 dy=0 dh=0 dv=0
PairPos2: "'kern' Horizontal Kerning lookup 15-2" uni06A9 dx=-226 dy=0 dh=-226 dv=0 dx=0 dy=0 dh=0 dv=0
PairPos2: "'kern' Horizontal Kerning lookup 15-2" uni064A dx=-60 dy=0 dh=-60 dv=0 dx=0 dy=0 dh=0 dv=0
PairPos2: "'kern' Horizontal Kerning lookup 15-2" afii57414 dx=-60 dy=0 dh=-60 dv=0 dx=0 dy=0 dh=0 dv=0
PairPos2: "'kern' Horizontal Kerning lookup 15-2" uni0649 dx=-60 dy=0 dh=-60 dv=0 dx=0 dy=0 dh=0 dv=0
PairPos2: "'kern' Horizontal Kerning lookup 15-2" uniFEEB dx=-178 dy=0 dh=-178 dv=0 dx=0 dy=0 dh=0 dv=0
PairPos2: "'kern' Horizontal Kerning lookup 15-2" uni0647 dx=-178 dy=0 dh=-178 dv=0 dx=0 dy=0 dh=0 dv=0
PairPos2: "'kern' Horizontal Kerning lookup 15-2" uni0646 dx=-60 dy=0 dh=-60 dv=0 dx=0 dy=0 dh=0 dv=0
PairPos2: "'kern' Horizontal Kerning lookup 15-2" uniFEE3 dx=-178 dy=0 dh=-178 dv=0 dx=0 dy=0 dh=0 dv=0
PairPos2: "'kern' Horizontal Kerning lookup 15-2" uni0645 dx=-178 dy=0 dh=-178 dv=0 dx=0 dy=0 dh=0 dv=0
PairPos2: "'kern' Horizontal Kerning lookup 15-2" uniFEFB dx=-143 dy=0 dh=-143 dv=0 dx=0 dy=0 dh=0 dv=0
PairPos2: "'kern' Horizontal Kerning lookup 15-2" uniFEDF dx=-143 dy=0 dh=-143 dv=0 dx=0 dy=0 dh=0 dv=0
PairPos2: "'kern' Horizontal Kerning lookup 15-2" uni0644 dx=-60 dy=0 dh=-60 dv=0 dx=0 dy=0 dh=0 dv=0
PairPos2: "'kern' Horizontal Kerning lookup 15-2" uniFEDB dx=-226 dy=0 dh=-226 dv=0 dx=0 dy=0 dh=0 dv=0
PairPos2: "'kern' Horizontal Kerning lookup 15-2" uni0643 dx=-143 dy=0 dh=-143 dv=0 dx=0 dy=0 dh=0 dv=0
PairPos2: "'kern' Horizontal Kerning lookup 15-2" uniFED7 dx=-178 dy=0 dh=-178 dv=0 dx=0 dy=0 dh=0 dv=0
PairPos2: "'kern' Horizontal Kerning lookup 15-2" uni0642 dx=-60 dy=0 dh=-60 dv=0 dx=0 dy=0 dh=0 dv=0
PairPos2: "'kern' Horizontal Kerning lookup 15-2" uniFED3 dx=-178 dy=0 dh=-178 dv=0 dx=0 dy=0 dh=0 dv=0
PairPos2: "'kern' Horizontal Kerning lookup 15-2" uni0641 dx=-178 dy=0 dh=-178 dv=0 dx=0 dy=0 dh=0 dv=0
PairPos2: "'kern' Horizontal Kerning lookup 15-2" uniFECF dx=-178 dy=0 dh=-178 dv=0 dx=0 dy=0 dh=0 dv=0
PairPos2: "'kern' Horizontal Kerning lookup 15-2" uniFECB dx=-178 dy=0 dh=-178 dv=0 dx=0 dy=0 dh=0 dv=0
PairPos2: "'kern' Horizontal Kerning lookup 15-2" uniFEC7 dx=-178 dy=0 dh=-178 dv=0 dx=0 dy=0 dh=0 dv=0
PairPos2: "'kern' Horizontal Kerning lookup 15-2" uni0638 dx=-178 dy=0 dh=-178 dv=0 dx=0 dy=0 dh=0 dv=0
PairPos2: "'kern' Horizontal Kerning lookup 15-2" uniFEC3 dx=-178 dy=0 dh=-178 dv=0 dx=0 dy=0 dh=0 dv=0
PairPos2: "'kern' Horizontal Kerning lookup 15-2" uni0637 dx=-178 dy=0 dh=-178 dv=0 dx=0 dy=0 dh=0 dv=0
PairPos2: "'kern' Horizontal Kerning lookup 15-2" uniFEBF dx=-178 dy=0 dh=-178 dv=0 dx=0 dy=0 dh=0 dv=0
PairPos2: "'kern' Horizontal Kerning lookup 15-2" uni0636 dx=-178 dy=0 dh=-178 dv=0 dx=0 dy=0 dh=0 dv=0
PairPos2: "'kern' Horizontal Kerning lookup 15-2" uniFEBB dx=-178 dy=0 dh=-178 dv=0 dx=0 dy=0 dh=0 dv=0
PairPos2: "'kern' Horizontal Kerning lookup 15-2" uni0635 dx=-178 dy=0 dh=-178 dv=0 dx=0 dy=0 dh=0 dv=0
PairPos2: "'kern' Horizontal Kerning lookup 15-2" uniFEB7 dx=-178 dy=0 dh=-178 dv=0 dx=0 dy=0 dh=0 dv=0
PairPos2: "'kern' Horizontal Kerning lookup 15-2" uni0634 dx=-178 dy=0 dh=-178 dv=0 dx=0 dy=0 dh=0 dv=0
PairPos2: "'kern' Horizontal Kerning lookup 15-2" uniFEB3 dx=-178 dy=0 dh=-178 dv=0 dx=0 dy=0 dh=0 dv=0
PairPos2: "'kern' Horizontal Kerning lookup 15-2" uni0633 dx=-178 dy=0 dh=-178 dv=0 dx=0 dy=0 dh=0 dv=0
PairPos2: "'kern' Horizontal Kerning lookup 15-2" uni0630 dx=-178 dy=0 dh=-178 dv=0 dx=0 dy=0 dh=0 dv=0
PairPos2: "'kern' Horizontal Kerning lookup 15-2" uni062F dx=-178 dy=0 dh=-178 dv=0 dx=0 dy=0 dh=0 dv=0
PairPos2: "'kern' Horizontal Kerning lookup 15-2" uniFEA7 dx=-178 dy=0 dh=-178 dv=0 dx=0 dy=0 dh=0 dv=0
PairPos2: "'kern' Horizontal Kerning lookup 15-2" uniFEA3 dx=-178 dy=0 dh=-178 dv=0 dx=0 dy=0 dh=0 dv=0
PairPos2: "'kern' Horizontal Kerning lookup 15-2" uniFE9F dx=-178 dy=0 dh=-178 dv=0 dx=0 dy=0 dh=0 dv=0
PairPos2: "'kern' Horizontal Kerning lookup 15-2" uniFE9B dx=-178 dy=0 dh=-178 dv=0 dx=0 dy=0 dh=0 dv=0
PairPos2: "'kern' Horizontal Kerning lookup 15-2" uni062B dx=-178 dy=0 dh=-178 dv=0 dx=0 dy=0 dh=0 dv=0
PairPos2: "'kern' Horizontal Kerning lookup 15-2" uniFE97 dx=-178 dy=0 dh=-178 dv=0 dx=0 dy=0 dh=0 dv=0
PairPos2: "'kern' Horizontal Kerning lookup 15-2" uni062A dx=-178 dy=0 dh=-178 dv=0 dx=0 dy=0 dh=0 dv=0
PairPos2: "'kern' Horizontal Kerning lookup 15-2" uni0629 dx=-178 dy=0 dh=-178 dv=0 dx=0 dy=0 dh=0 dv=0
PairPos2: "'kern' Horizontal Kerning lookup 15-2" uni0628 dx=-178 dy=0 dh=-178 dv=0 dx=0 dy=0 dh=0 dv=0
PairPos2: "'kern' Horizontal Kerning lookup 15-2" uni0627 dx=-143 dy=0 dh=-143 dv=0 dx=0 dy=0 dh=0 dv=0
PairPos2: "'kern' Horizontal Kerning lookup 15-2" uni0623 dx=-143 dy=0 dh=-143 dv=0 dx=0 dy=0 dh=0 dv=0
PairPos2: "'kern' Horizontal Kerning lookup 15-2" uni0622 dx=-143 dy=0 dh=-143 dv=0 dx=0 dy=0 dh=0 dv=0
PairPos2: "'kern' Horizontal Kerning lookup 15-2" uni0621 dx=-178 dy=0 dh=-178 dv=0 dx=0 dy=0 dh=0 dv=0
PairPos2: "'kern' Horizontal Kerning lookup 15-2" uniFB94 dx=-226 dy=0 dh=-226 dv=0 dx=0 dy=0 dh=0 dv=0
PairPos2: "'kern' Horizontal Kerning lookup 15-2" uniFB92 dx=-226 dy=0 dh=-226 dv=0 dx=0 dy=0 dh=0 dv=0
PairPos2: "'kern' Horizontal Kerning lookup 15-2" uni06AF dx=-226 dy=0 dh=-226 dv=0 dx=0 dy=0 dh=0 dv=0
PairPos2: "'kern' Horizontal Kerning lookup 15-2" afii57506 dx=-178 dy=0 dh=-178 dv=0 dx=0 dy=0 dh=0 dv=0
PairPos2: "'kern' Horizontal Kerning lookup 15-2" afii57440 dx=-178 dy=0 dh=-178 dv=0 dx=0 dy=0 dh=0 dv=0
PairPos2: "'kern' Horizontal Kerning lookup 15-2" uniFE8B dx=-178 dy=0 dh=-178 dv=0 dx=0 dy=0 dh=0 dv=0
EndChar

StartChar: uniFEB2
Encoding: 65202 65202 189
GlifName: uniF_E_B_2
Width: 2589
VWidth: 2952
GlyphClass: 2
Flags: W
AnchorPoint: "Anchor-7" 595.902 -799.086 basechar 0
AnchorPoint: "Anchor-10" 1794.53 1378.1 basechar 0
LayerCount: 2
Fore
SplineSet
1318.72904067 342.380506548 m 2,0,1
 1373.55877396 172.995507521 1373.55877396 172.995507521 1554.0820441 173.073243327 c 0,2,3
 1653.08083792 173.034656733 1653.08083792 173.034656733 1705.03286315 222.330370846 c 0,4,5
 1756.98488837 271.626084958 1756.98488837 271.626084958 1756.96777218 366.360063474 c 0,6,7
 1756.98395911 405.856654425 1756.98395911 405.856654425 1756.52017249 432.471473227 c 0,8,9
 1756.05638588 459.086292029 1756.05638588 459.086292029 1755.07761089 473.659473626 c 2,10,-1
 1750.54272601 541.180304495 l 1,11,-1
 1885.55381856 557.030079715 l 1,12,-1
 1900.53395969 341.566678547 l 2,13,14
 1903.31556276 300.882273762 1903.31556276 300.882273762 1915.83544177 269.523160207 c 0,15,16
 1928.35532077 238.164046653 1928.35532077 238.164046653 1950.07017343 216.909571398 c 0,17,18
 1971.78502609 195.655096142 1971.78502609 195.655096142 2002.80359411 184.652069994 c 0,19,20
 2033.82216212 173.649043847 2033.82216212 173.649043847 2073.26058067 173.52058676 c 0,21,22
 2153.94410891 173.782361052 2153.94410891 173.782361052 2195.57362788 228.726531207 c 0,23,24
 2237.20314684 283.670701362 2237.20314684 283.670701362 2238.51128488 386.689623239 c 0,25,26
 2239.01084245 452.368455431 2239.01084245 452.368455431 2233.3901636 515.523083813 c 2,27,-1
 2229.26412643 561.883737141 l 1,28,-1
 2364.21922952 577.827219672 l 1,29,-1
 2378.90160096 404.181871735 l 2,30,31
 2385.1424781 329.420287023 2385.1424781 329.420287023 2409.37552817 278.084619927 c 0,32,33
 2433.60857824 226.748952832 2433.60857824 226.748952832 2476.43939956 199.880968049 c 0,34,35
 2519.27022089 173.012983266 2519.27022089 173.012983266 2579.3551573 173.00000035 c 2,36,-1
 2594.81968745 172.996658835 l 1,37,38
 2597.97278725 167.138240009 2597.97278725 167.138240009 2600.24957722 149.830702804 c 0,39,40
 2602.52636719 132.523165599 2602.52636719 132.523165599 2602.52636719 107.1171875 c 2,41,-1
 2602.52636719 88.4343170733 l 2,42,43
 2602.2767443 73.9929222591 2602.2767443 73.9929222591 2601.36616945 61.0722355391 c 0,44,45
 2600.4555946 48.1515488191 2600.4555946 48.1515488191 2599.18524867 39.1039793057 c 0,46,47
 2597.91490275 30.0564097924 2597.91490275 30.0564097924 2596.53360425 23.8971875141 c 0,48,49
 2595.15230575 17.7379652359 2595.15230575 17.7379652359 2593.79790026 14.943359375 c 2,50,-1
 2581.12438401 14.9433587681 l 2,51,52
 2392.61859264 14.9969800998 2392.61859264 14.9969800998 2345.9184679 147.494079361 c 2,53,-1
 2334.21329509 180.703871696 l 1,54,-1
 2318.3745956 149.254913428 l 2,55,56
 2250.75953469 15 2250.75953469 15 2082.5 15 c 0,57,58
 1900.98058917 15 1900.98058917 15 1845.7937961 146.782326664 c 2,59,-1
 1835.27737445 171.894829798 l 1,60,-1
 1819.66813555 149.58822542 l 2,61,62
 1772.69867795 82.4658554713 1772.69867795 82.4658554713 1706.42582614 49.2119328767 c 0,63,64
 1640.15297434 15.9580102822 1640.15297434 15.9580102822 1552.81713933 15.9189416384 c 0,65,66
 1442.37155762 15.9962440458 1442.37155762 15.9962440458 1379.43567729 67.6450795444 c 2,67,-1
 1355.13440412 87.5881144806 l 1,68,-1
 1354.92026986 56.1519781643 l 2,69,70
 1354.02288426 -75.589371937 1354.02288426 -75.589371937 1290.31865133 -210.551110468 c 0,71,72
 1148.522578 -508.994214296 1148.522578 -508.994214296 707.32813685 -508.724610927 c 0,73,74
 409.629759417 -508.8600456 409.629759417 -508.8600456 263.251867293 -372.343626208 c 0,75,76
 116.873975169 -235.827206815 116.873975169 -235.827206815 116.752918789 41.0258631339 c 0,77,78
 116.9890838 236.935474623 116.9890838 236.935474623 211.268360582 470.645448128 c 1,79,-1
 346.188809024 416.40357046 l 1,80,81
 267.00446475 210.184151744 267.00446475 210.184151744 267.268558321 42.8707913999 c 0,82,83
 267.130189478 -155.938065625 267.130189478 -155.938065625 380.271242787 -257.018691657 c 0,84,85
 493.412296096 -358.099317689 493.412296096 -358.099317689 714.368724057 -358.203123626 c 0,86,87
 875.694875424 -358.134082809 875.694875424 -358.134082809 984.863250357 -306.393636855 c 0,88,89
 1094.03162529 -254.653190902 1094.03162529 -254.653190902 1149.52841496 -151.74976068 c 0,90,91
 1205.02520464 -48.8463304582 1205.02520464 -48.8463304582 1205.55682283 103.698858143 c 0,92,93
 1205.98977818 282.754467037 1205.98977818 282.754467037 1121.22841399 463.14025542 c 1,94,-1
 1263.54423089 512.862440167 l 1,95,-1
 1318.72904067 342.380506548 l 2,0,1
EndSplineSet
EndChar

StartChar: uniFEB3
Encoding: 65203 65203 190
GlifName: uniF_E_B_3
Width: 1613
VWidth: 2952
GlyphClass: 2
Flags: W
AnchorPoint: "Anchor-10" 859.961 1380.67 basechar 0
AnchorPoint: "Anchor-7" 769.534 -236.974 basechar 0
LayerCount: 2
Fore
SplineSet
861.866349552 328.055282004 m 0,0,1
 868.001655894 358.512439353 868.001655894 358.512439353 867.953116695 401.439293506 c 0,2,3
 867.977086963 424.21803971 867.977086963 424.21803971 866.918933286 447.628445553 c 0,4,5
 865.860779609 471.038851396 865.860779609 471.038851396 863.722265173 495.081863693 c 2,6,-1
 859.613956538 541.270990773 l 1,7,-1
 994.233415884 557.070594972 l 1,8,-1
 1009.21481292 341.577804984 l 2,9,10
 1014.96852512 259.898663139 1014.96852512 259.898663139 1058.9268005 216.842422618 c 0,11,12
 1102.88507589 173.786182097 1102.88507589 173.786182097 1181.54501865 173.538162573 c 0,13,14
 1261.11407232 173.792510806 1261.11407232 173.792510806 1301.05374074 232.107862999 c 0,15,16
 1340.99340917 290.423215193 1340.99340917 290.423215193 1340.98632799 399.396438718 c 0,17,18
 1340.99959011 498.922969983 1340.99959011 498.922969983 1300.59985971 643.670885856 c 1,19,-1
 1446.86178935 681.910440756 l 1,20,21
 1491.93832691 533.50180406 1491.93832691 533.50180406 1491.01983923 406.143972626 c 0,22,23
 1491.00014491 403.070673909 1491.00014491 403.070673909 1491.00014491 400.565933429 c 0,24,25
 1490.5112485 289.342001628 1490.5112485 289.342001628 1461.22121217 209.121234534 c 0,26,27
 1431.93117583 128.90046744 1431.93117583 128.90046744 1374.42080198 78.4916853453 c 0,28,29
 1350.82953199 57.7500369556 1350.82953199 57.7500369556 1322.18362813 43.9128787271 c 0,30,31
 1293.53772426 30.0757204985 1293.53772426 30.0757204985 1259.11736049 23.0355416097 c 0,32,33
 1224.69699672 15.995362721 1224.69699672 15.995362721 1184.72614103 15.9931640522 c 0,34,35
 1095.9019399 15.9964510722 1095.9019399 15.9964510722 1039.12614775 48.5851724955 c 0,36,37
 982.350355592 81.1738939188 982.350355592 81.1738939188 954.532115173 146.890270914 c 2,38,-1
 944.085431954 171.568976771 l 1,39,-1
 928.51167439 149.760038502 l 2,40,41
 831.326383099 15.4862177888 831.326383099 15.4862177888 656.440088866 14.9998367979 c 0,42,43
 451.92083925 15.9538841824 451.92083925 15.9538841824 395.917759804 146.969961026 c 2,44,-1
 384.025069323 174.792246254 l 1,45,-1
 369.081928463 148.48220666 l 2,46,47
 293.268913843 15 293.268913843 15 58.849609375 15 c 2,48,-1
 -6.9384765625 15 l 2,49,50
 -39.9067846907 15 -39.9067846907 15 -54.8425525016 31.9500101536 c 0,51,52
 -69.7783203125 48.9000203072 -69.7783203125 48.9000203072 -69.7783203125 88.3134765625 c 2,53,-1
 -69.7783767468 107.227669828 l 2,54,55
 -69.8751126483 142.492806664 -69.8751126483 142.492806664 -55.1726109125 157.745915051 c 0,56,57
 -40.4701091767 172.999023438 -40.4701091767 172.999023438 -6.9384765625 172.999023438 c 2,58,-1
 61.0039773602 172.999023438 l 2,59,60
 279.186481873 173.000057772 279.186481873 173.000057772 311.599255791 327.921401754 c 0,61,62
 318.010620688 358.49478613 318.010620688 358.49478613 317.717353749 401.471145978 c 0,63,64
 317.757949943 407.572354544 317.757949943 407.572354544 317.699998789 413.857095772 c 0,65,66
 317.642047636 420.141837 317.642047636 420.141837 317.485820201 426.593452749 c 0,67,68
 317.329592765 433.045068499 317.329592765 433.045068499 317.075574029 439.665275929 c 0,69,70
 316.821555292 446.28548336 316.821555292 446.28548336 316.469770496 453.06461648 c 0,71,72
 316.117985699 459.843749599 316.117985699 459.843749599 315.669182036 466.776067276 c 0,73,74
 315.220378372 473.708384953 315.220378372 473.708384953 314.674318871 480.791679487 c 0,75,76
 314.128259371 487.87497402 314.128259371 487.87497402 313.485937048 495.09651213 c 2,77,-1
 309.377628413 541.285639211 l 1,78,-1
 443.997087762 557.08524341 l 1,79,-1
 458.979611169 341.57658347 l 2,80,81
 464.907913015 258.67354358 464.907913015 258.67354358 515.917915401 215.854110269 c 0,82,83
 566.927917788 173.034676958 566.927917788 173.034676958 658.057626587 173.073243741 c 0,84,85
 742.866166595 173.034647153 742.866166595 173.034647153 794.835145155 212.298529833 c 0,86,87
 846.804123716 251.562412513 846.804123716 251.562412513 861.866349552 328.055282004 c 0,0,1
EndSplineSet
EndChar

StartChar: uniFEB4
Encoding: 65204 65204 191
GlifName: uniF_E_B_4
Width: 1698
VWidth: 2945
GlyphClass: 2
Flags: W
AnchorPoint: "Anchor-7" 769.534 -236.974 basechar 0
AnchorPoint: "Anchor-10" 839.961 1380.67 basechar 0
LayerCount: 2
Fore
SplineSet
1009.21385283 341.591523842 m 2,0,1
 1012.04470875 300.872404272 1012.04470875 300.872404272 1024.6946847 269.500426223 c 0,2,3
 1037.34466065 238.128448175 1037.34466065 238.128448175 1059.25563375 216.891130804 c 0,4,5
 1081.16660686 195.653813433 1081.16660686 195.653813433 1112.42555551 184.67283534 c 0,6,7
 1143.68450416 173.691857248 1143.68450416 173.691857248 1183.4103573 173.579160904 c 0,8,9
 1264.94073291 173.808497179 1264.94073291 173.808497179 1306.32371192 228.159854828 c 0,10,11
 1347.70669092 282.511212477 1347.70669092 282.511212477 1347.38738273 384.293976002 c 0,12,13
 1347.19301362 423.803201495 1347.19301362 423.803201495 1345.93805277 456.584710834 c 0,14,15
 1344.68309193 489.366220173 1344.68309193 489.366220173 1342.35012453 515.579724438 c 2,16,-1
 1338.22408737 561.940377766 l 1,17,-1
 1473.17919045 577.883860297 l 1,18,-1
 1487.86176327 404.236102259 l 2,19,20
 1497.29230544 291.483736107 1497.29230544 291.483736107 1547.81481145 232.23603076 c 0,21,22
 1598.33731747 172.988325413 1598.33731747 172.988325413 1688.31997995 172.998046963 c 2,23,-1
 1703.78199255 172.999717448 l 1,24,25
 1706.93299986 167.148681577 1706.93299986 167.148681577 1709.20966399 149.853815798 c 0,26,27
 1711.48632812 132.55895002 1711.48632812 132.55895002 1711.48632812 107.173828125 c 2,28,-1
 1711.48655531 88.4438847306 l 2,29,30
 1711.16896252 30.740207292 1711.16896252 30.740207292 1703.20056051 15 c 1,31,-1
 1690.08007812 15 l 2,32,33
 1500.68665609 15 1500.68665609 15 1454.90871466 147.463946337 c 2,34,-1
 1443.30259655 181.047636609 l 1,35,-1
 1427.3319686 149.30641306 l 2,36,37
 1359.75556429 15 1359.75556429 15 1189 15 c 0,38,39
 1102.53398852 15 1102.53398852 15 1044.51134975 47.961955132 c 0,40,41
 986.488710976 80.923910264 986.488710976 80.923910264 954.219837985 147.579070281 c 2,42,-1
 943.203691617 170.334218846 l 1,43,-1
 928.51167439 149.760038502 l 2,44,45
 831.326383099 15.4862177888 831.326383099 15.4862177888 656.440088865 14.9998367979 c 0,46,47
 552.500297245 15.4846981815 552.500297245 15.4846981815 488.161218156 48.5869611271 c 0,48,49
 423.822139068 81.6892240728 423.822139068 81.6892240728 395.917759804 146.969961026 c 2,50,-1
 384.025069323 174.792246254 l 1,51,-1
 369.081928463 148.48220666 l 2,52,53
 293.268913843 15 293.268913843 15 58.849609375 15 c 2,54,-1
 -6.9384765625 15 l 2,55,56
 -39.9067846907 15 -39.9067846907 15 -54.8425525016 31.9500101536 c 0,57,58
 -69.7783203125 48.9000203072 -69.7783203125 48.9000203072 -69.7783203125 88.3134765625 c 2,59,-1
 -69.7783767468 107.227669827 l 2,60,61
 -69.8434671122 130.956405564 -69.8434671122 130.956405564 -63.3413438688 145.340138241 c 0,62,63
 -56.8392206254 159.723870918 -56.8392206254 159.723870918 -43.1439130027 166.361447178 c 0,64,65
 -29.4486053799 172.999023438 -29.4486053799 172.999023438 -6.9384765625 172.999023438 c 2,66,-1
 61.0039770167 172.999023438 l 2,67,68
 280.186409545 173.000057493 280.186409545 173.000057493 312.593679148 327.893203119 c 0,69,70
 318.009573699 353.474795369 318.009573699 353.474795369 317.717101233 401.465492882 c 0,71,72
 318.002450076 444.318001377 318.002450076 444.318001377 313.485937048 495.09651213 c 2,73,-1
 309.377628413 541.285639211 l 1,74,-1
 443.997087761 557.08524341 l 1,75,-1
 458.979611169 341.57658347 l 2,76,77
 464.90791361 258.673535252 464.90791361 258.673535252 515.917912924 215.854106085 c 0,78,79
 566.927912237 173.034676919 566.927912237 173.034676919 658.057668742 173.073243722 c 0,80,81
 714.714381287 173.047618332 714.714381287 173.047618332 756.961556801 190.4144644 c 0,82,83
 799.208732316 207.781310469 799.208732316 207.781310469 826.019494122 242.43477911 c 0,84,85
 852.830255929 277.088247751 852.830255929 277.088247751 862.859041541 328.019006413 c 0,86,87
 868.00147987 353.50937145 868.00147987 353.50937145 867.953116695 401.439293506 c 0,88,89
 867.977086963 424.218039709 867.977086963 424.218039709 866.918933286 447.628445552 c 0,90,91
 865.860779609 471.038851395 865.860779609 471.038851395 863.722265173 495.081863693 c 2,92,-1
 859.613956538 541.270990774 l 1,93,-1
 994.233415886 557.070594973 l 1,94,-1
 1009.21385283 341.591523842 l 2,0,1
EndSplineSet
EndChar

StartChar: uniFEBA
Encoding: 65210 65210 197
GlifName: uniF_E_B_A_
Width: 2666
VWidth: 2952
GlyphClass: 2
Flags: W
AnchorPoint: "Anchor-10" 2084.53 1377.1 basechar 0
AnchorPoint: "Anchor-7" 595.902 -800.086 basechar 0
LayerCount: 2
Fore
SplineSet
2671.77348815 173 m 1,0,1
 2679.49316406 158.688634717 2679.49316406 158.688634717 2679.49316406 107.174804688 c 2,2,-1
 2679.49339798 88.3894338372 l 2,3,4
 2679.17135769 30.7250907122 2679.17135769 30.7250907122 2671.20712172 15 c 1,5,-1
 2650.2265625 15 l 2,6,7
 2403.30645835 15 2403.30645835 15 2306.41097101 93.3633332052 c 2,8,-1
 2298.46438465 99.7900617483 l 1,9,-1
 2289.57562128 94.746158491 l 2,10,11
 2220.43171491 55.5106473419 2220.43171491 55.5106473419 2090.7113743 35.255323671 c 128,-1,12
 1960.9910337 15 1960.9910337 15 1773.15136719 15 c 2,13,-1
 1722.34082031 15 l 2,14,15
 1486.51352202 15 1486.51352202 15 1376.58147362 69.4894374379 c 2,16,-1
 1355.08370452 80.1451230266 l 1,17,-1
 1354.92026986 56.1519781643 l 2,18,19
 1354.02288426 -75.589371937 1354.02288426 -75.589371937 1290.31865133 -210.551110468 c 0,20,21
 1148.52257592 -508.994218689 1148.52257592 -508.994218689 706.552218719 -508.724620222 c 0,22,23
 207.889230779 -508.124926647 207.889230779 -508.124926647 131.145462435 -118.158618003 c 0,24,25
 117.18245519 -46.1474452932 117.18245519 -46.1474452932 116.758687305 38.0552512559 c 0,26,27
 116.033346724 234.974483696 116.033346724 234.974483696 211.260130938 470.64875668 c 1,28,-1
 346.210074305 416.395021208 l 1,29,30
 267.004441646 209.183205509 267.004441646 209.183205509 267.269557728 41.7364642599 c 0,31,32
 267.645978693 -158.599503768 267.645978693 -158.599503768 383.000896827 -259.361586769 c 128,-1,33
 498.355814961 -360.123669769 498.355814961 -360.123669769 723.046177948 -358.165416467 c 0,34,35
 961.067786612 -356.037916996 961.067786612 -356.037916996 1082.91220479 -240.543693502 c 128,-1,36
 1204.75662298 -125.049470008 1204.75662298 -125.049470008 1205.55269049 100.07992347 c 0,37,38
 1205.6982186 160.236099752 1205.6982186 160.236099752 1196.21818927 221.08957818 c 128,-1,39
 1186.73815994 281.943056607 1186.73815994 281.943056607 1167.94525246 342.438182796 c 128,-1,40
 1149.15234499 402.933308985 1149.15234499 402.933308985 1121.1637468 463.11766205 c 1,41,-1
 1263.51832491 512.853389158 l 1,42,-1
 1326.74091815 316.343973274 l 2,43,44
 1361.78655987 209.016695504 1361.78655987 209.016695504 1432.33982418 202.177406283 c 2,45,-1
 1441.83644166 201.256823597 l 1,46,-1
 1446.69584655 209.467755348 l 2,47,48
 1798.57274695 804.033814979 1798.57274695 804.033814979 2149.87257166 805.42388558 c 0,49,50
 2350.2457758 805.978480333 2350.2457758 805.978480333 2457.98697175 653.441809501 c 0,51,52
 2522.00240963 562.25695255 2522.00240963 562.25695255 2522.06152536 445.615987152 c 128,-1,53
 2522.00248302 328.911782042 2522.00248302 328.911782042 2442.80884145 220.861444477 c 2,54,-1
 2435.02954151 210.247511749 l 1,55,-1
 2444.54061134 201.152863537 l 2,56,57
 2456.57357624 189.646735982 2456.57357624 189.646735982 2485.61929879 183.332288308 c 128,-1,58
 2514.66502134 177.017840634 2514.66502134 177.017840634 2553.54010258 175.008920317 c 128,-1,59
 2592.41518381 173 2592.41518381 173 2655.73828125 173 c 2,60,-1
 2671.77348815 173 l 1,0,1
1624.65625 173.416992188 m 1,61,-1
 1778.73257188 173.417006002 l 2,62,63
 2089.19433647 172.995650869 2089.19433647 172.995650869 2212.68160158 228.283203972 c 0,64,65
 2369.0973421 297.264174916 2369.0973421 297.264174916 2367.6681475 441.298260144 c 0,66,67
 2367.3113052 475.89529336 2367.3113052 475.89529336 2357.88531616 505.718540322 c 128,-1,68
 2348.45932711 535.541787284 2348.45932711 535.541787284 2329.86591928 560.118943221 c 0,69,70
 2266.43733296 642.960326893 2266.43733296 642.960326893 2152.14106112 643.573335121 c 0,71,72
 2022.23353199 643.273202011 2022.23353199 643.273202011 1887.74424176 531.011959787 c 128,-1,73
 1753.25495153 418.750717563 1753.25495153 418.750717563 1611.99623115 196.462110126 c 2,74,-1
 1597.35164855 173.416992187 l 1,75,-1
 1624.65625 173.416992188 l 1,61,-1
EndSplineSet
EndChar

StartChar: uniFEBB
Encoding: 65211 65211 198
GlifName: uniF_E_B_B_
Width: 1720
VWidth: 2952
GlyphClass: 2
Flags: W
AnchorPoint: "Anchor-10" 1160.91 1376.52 basechar 0
AnchorPoint: "Anchor-7" 699.209 -240.348 basechar 0
LayerCount: 2
Fore
SplineSet
707.638671875 173.416992188 m 1,0,-1
 861.714994918 173.417006001 l 2,1,2
 1172.19464282 172.995650702 1172.19464282 172.995650702 1295.65400501 228.279766666 c 0,3,4
 1449.9526408 296.192599367 1449.9526408 296.192599367 1450.65212521 440.515709208 c 0,5,6
 1451.02736486 510.028854294 1451.02736486 510.028854294 1412.84965354 560.117228902 c 0,7,8
 1349.43866718 642.960326226 1349.43866718 642.960326226 1235.12340503 643.573335489 c 0,9,10
 979.763545364 642.980932828 979.763545364 642.980932828 694.99192246 196.482953336 c 2,11,-1
 680.280699808 173.416992188 l 1,12,-1
 707.638671875 173.416992188 l 1,0,-1
336.248973838 154.042943539 m 2,13,14
 234.39407627 15 234.39407627 15 9.984375 15 c 2,15,-1
 -6.9384765625 15 l 2,16,17
 -39.9067846907 15 -39.9067846907 15 -54.8425525016 31.9500101536 c 0,18,19
 -69.7783203125 48.9000203072 -69.7783203125 48.9000203072 -69.7783203125 88.3134765625 c 2,20,-1
 -69.7783767468 107.227669828 l 2,21,22
 -69.8749424739 142.430769475 -69.8749424739 142.430769475 -54.9526890279 157.715384738 c 0,23,24
 -40.0304355818 173 -40.0304355818 173 -5.9384765625 173 c 2,25,-1
 10.1103515625 173 l 2,26,27
 247.688563384 173 247.688563384 173 271.339279631 313.670859584 c 0,28,29
 278.004828883 352.758520791 278.004828883 352.758520791 277.810669179 403.822522945 c 0,30,31
 278.006511444 449.486074626 278.006511444 449.486074626 274.971174315 494.685710657 c 2,32,-1
 270.43713384 562.202750944 l 1,33,-1
 405.562305683 578.065918627 l 1,34,-1
 422.211294107 361.504253948 l 2,35,36
 432.869227867 223.13846775 432.869227867 223.13846775 513.043323624 202.577611941 c 2,37,-1
 523.948130769 199.781045728 l 1,38,-1
 529.679824223 209.470384796 l 2,39,40
 882.546646213 805.986285615 882.546646213 805.986285615 1232.28511563 805.425811881 c 0,41,42
 1435.16664374 805.015800125 1435.16664374 805.015800125 1540.90781881 653.529319806 c 0,43,44
 1603.97752884 562.350155449 1603.97752884 562.350155449 1603.45266985 453.351630189 c 0,45,46
 1603.01365635 400.700353623 1603.01365635 400.700353623 1589.85925984 341.209890121 c 0,47,48
 1514.08494202 15 1514.08494202 15 856.133789062 15 c 2,49,-1
 805.323242188 15 l 2,50,51
 623.18673346 15 623.18673346 15 512.306844075 50.2589698717 c 0,52,53
 401.42695469 85.5179397434 401.42695469 85.5179397434 361.229849811 152.866324762 c 2,54,-1
 349.627317832 172.305829006 l 1,55,-1
 336.248973838 154.042943539 l 2,13,14
EndSplineSet
EndChar

StartChar: uniFEBC
Encoding: 65212 65212 199
GlifName: uniF_E_B_C_
Width: 1749
VWidth: 2952
GlyphClass: 2
Flags: W
AnchorPoint: "Anchor-7" 699.209 -240.348 basechar 0
AnchorPoint: "Anchor-10" 1160.91 1376.52 basechar 0
LayerCount: 2
Fore
SplineSet
422.211124214 361.506461691 m 2,0,1
 432.848268232 223.143842903 432.848268232 223.143842903 513.043323624 202.577611941 c 2,2,-1
 523.934215909 199.78461423 l 1,3,-1
 529.670453152 209.454565278 l 2,4,5
 883.534478505 805.98634361 883.534478505 805.98634361 1234.28550537 805.425813079 c 0,6,7
 1433.24706238 805.015939712 1433.24706238 805.015939712 1540.97046119 653.44028903 c 0,8,9
 1573.04523022 607.764383965 1573.04523022 607.764383965 1589.03399376 555.95457662 c 0,10,11
 1605.02275731 504.144769276 1605.02275731 504.144769276 1605.04394627 445.613774739 c 0,12,13
 1605.00177222 327.947218051 1605.00177222 327.947218051 1525.83025483 220.914399918 c 2,14,-1
 1517.9670549 210.284056118 l 1,15,-1
 1527.52682596 201.149238125 l 2,16,17
 1545.04543584 184.409369392 1545.04543584 184.409369392 1594.25328723 178.704684696 c 0,18,19
 1643.46113862 173 1643.46113862 173 1738.72070312 173 c 2,20,-1
 1754.75591002 173 l 1,21,22
 1762.47558594 158.688634716 1762.47558594 158.688634716 1762.47558594 107.174804688 c 2,23,-1
 1762.47580348 88.3864480724 l 2,24,25
 1762.16525885 30.7252626398 1762.16525885 30.7252626398 1754.19699773 15 c 1,26,-1
 1733.20898438 15 l 2,27,28
 1486.3057405 15 1486.3057405 15 1389.39240068 93.3641355715 c 2,29,-1
 1381.44554652 99.7899625768 l 1,30,-1
 1372.55735943 94.745770491 l 2,31,32
 1232.0402427 15 1232.0402427 15 856.133789062 15 c 2,33,-1
 805.323242188 15 l 2,34,35
 447.317907229 15 447.317907229 15 361.072982145 153.123255315 c 2,36,-1
 349.340097839 171.913742674 l 1,37,-1
 336.248973838 154.042943539 l 2,38,39
 234.39407627 15 234.39407627 15 9.984375 15 c 2,40,-1
 -6.9384765625 15 l 2,41,42
 -39.9067846907 15 -39.9067846907 15 -54.8425525016 31.9500101536 c 0,43,44
 -69.7783203125 48.9000203072 -69.7783203125 48.9000203072 -69.7783203125 88.3134765625 c 2,45,-1
 -69.7783767468 107.227669828 l 2,46,47
 -69.8751141456 142.493352479 -69.8751141456 142.493352479 -55.1725814897 157.746676239 c 0,48,49
 -40.4700488338 173 -40.4700488338 173 -6.9384765625 173 c 2,50,-1
 9.1103515625 173 l 2,51,52
 247.688563384 173 247.688563384 173 271.339279631 313.670859584 c 0,53,54
 278.004828883 352.758520791 278.004828883 352.758520791 277.810663881 403.823916193 c 0,55,56
 277.857463478 415.229991029 277.857463478 415.229991029 277.703056465 426.632576915 c 0,57,58
 277.548649452 438.0351628 277.548649452 438.0351628 277.193749993 449.402741476 c 0,59,60
 276.838850535 460.770320153 276.838850535 460.770320153 276.282777319 472.102664741 c 0,61,62
 275.726704104 483.43500933 275.726704104 483.43500933 274.971174315 494.685710657 c 2,63,-1
 270.43713384 562.202750944 l 1,64,-1
 405.562305683 578.065918627 l 1,65,-1
 422.211124214 361.506461691 l 2,0,1
707.736011313 173.417308024 m 1,66,-1
 861.811149499 174.4171837 l 2,67,68
 1178.22309039 176.0160956 1178.22309039 176.0160956 1295.65400501 228.279766666 c 0,69,70
 1449.9526408 296.192599367 1449.9526408 296.192599367 1450.65212521 440.515709208 c 0,71,72
 1451.02736486 510.028854294 1451.02736486 510.028854294 1412.84965354 560.117228902 c 0,73,74
 1349.43866718 642.960326226 1349.43866718 642.960326226 1235.12340503 643.573335489 c 0,75,76
 979.763545364 642.980932828 979.763545364 642.980932828 694.99192246 196.482953336 c 2,77,-1
 680.16679528 173.238399457 l 1,78,-1
 707.736011313 173.417308024 l 1,66,-1
EndSplineSet
EndChar

StartChar: uniFEC2
Encoding: 65218 65218 205
GlifName: uniF_E_C_2
Width: 1556
VWidth: 2952
GlyphClass: 2
Flags: W
AnchorPoint: "Anchor-7" 641.602 -236.453 basechar 0
AnchorPoint: "Anchor-10" 475.36 1632.58 basechar 0
LayerCount: 2
Fore
SplineSet
515.197265625 173.533203125 m 1,0,-1
 663.860397669 173.533221508 l 2,1,2
 969.297782799 174.011406849 969.297782799 174.011406849 1099.42767303 231.654449698 c 0,3,4
 1174.45045471 264.886948482 1174.45045471 264.886948482 1213.39767638 317.214696597 c 128,-1,5
 1252.34489806 369.542444712 1252.34489806 369.542444712 1252.74191316 439.282326885 c 0,6,7
 1253.01895798 485.089168425 1253.01895798 485.089168425 1236.95653602 521.868500182 c 0,8,9
 1221.55069978 558.881611491 1221.55069978 558.881611491 1189.42185869 587.834140985 c 0,10,11
 1127.77900727 644.029206157 1127.77900727 644.029206157 1034.34428919 643.556829119 c 0,12,13
 776.210643978 640.910687973 776.210643978 640.910687973 499.955177249 201.107499061 c 2,14,-1
 497.068458499 196.511795936 l 1,15,-1
 482.634816266 173.533203125 l 1,16,-1
 509.770507812 173.533203125 l 1,17,-1
 515.197265625 173.533203125 l 1,0,-1
658.232414891 14.9990234375 m 2,18,-1
 116.302734375 14.9999736979 l 1,19,-1
 116.302734375 173.232237665 l 1,20,-1
 321.834651241 173.376955522 l 1,21,-1
 323.562190303 173.377932084 l 1,22,-1
 332.201743337 173.382815947 l 1,23,-1
 336.532782958 180.858375878 l 1,24,-1
 337.412283775 182.376478842 l 2,25,26
 360.386596893 222.193444302 360.386596893 222.193444302 376.577061003 249.999315429 c 128,-1,27
 392.767525113 277.805186556 392.767525113 277.805186556 402.103172573 293.479587689 c 2,28,-1
 404.638671875 297.736650021 l 1,29,-1
 404.638671875 302.69140625 l 1,30,-1
 404.638671875 1453.87304688 l 1,31,-1
 553.950195312 1453.87304688 l 1,32,-1
 553.950195312 556.758789062 l 1,33,-1
 553.950195312 548.208984375 l 1,34,-1
 553.950195312 505.454593682 l 1,35,-1
 580.662224486 538.83730509 l 1,36,-1
 586.013305316 545.524700531 l 2,37,38
 690.192639939 675.985182405 690.192639939 675.985182405 802.624109054 740.601087506 c 128,-1,39
 915.055578169 805.216992608 915.055578169 805.216992608 1036.35490264 805.420955642 c 0,40,41
 1238.26679577 805.978585626 1238.26679577 805.978585626 1347.28742345 652.354901732 c 0,42,43
 1376.28306279 611.414579259 1376.28306279 611.414579259 1390.17210163 562.92364867 c 0,44,45
 1397.62364135 538.711679407 1397.62364135 538.711679407 1401.22845944 513.025743844 c 128,-1,46
 1404.83327752 487.339808282 1404.83327752 487.339808282 1404.6765589 459.419747796 c 0,47,48
 1404.98944856 393.197739351 1404.98944856 393.197739351 1387.15633919 334.621516757 c 0,49,50
 1380.88325958 314.279740706 1380.88325958 314.279740706 1372.62646529 294.833566777 c 128,-1,51
 1364.36967101 275.387392847 1364.36967101 275.387392847 1354.11176907 256.801774339 c 128,-1,52
 1343.85386713 238.216155831 1343.85386713 238.216155831 1331.58609397 220.47883922 c 2,53,-1
 1325.41880789 211.561890365 l 1,54,-1
 1331.95109072 202.908759399 l 2,55,56
 1346.15697907 184.090619474 1346.15697907 184.090619474 1394.52395343 178.545309737 c 128,-1,57
 1442.89092778 173 1442.89092778 173 1544.70800781 173 c 2,58,-1
 1560.74316336 173 l 1,59,60
 1563.90481812 167.138595532 1563.90481812 167.138595532 1566.18385437 149.853412555 c 128,-1,61
 1568.46289062 132.568229577 1568.46289062 132.568229577 1568.46289062 107.173828125 c 2,62,-1
 1568.46309667 88.3920972246 l 2,63,64
 1568.16084685 30.7267862431 1568.16084685 30.7267862431 1560.18926878 14.9990234375 c 1,65,-1
 1539.19634493 14.9990234374 l 2,66,67
 1410.37879621 14.9995032245 1410.37879621 14.9995032245 1321.62958498 34.9774304729 c 128,-1,68
 1232.88037375 54.9553577214 1232.88037375 54.9553577214 1185.37741182 93.357387863 c 2,69,-1
 1177.67037325 99.5878609791 l 1,70,-1
 1168.91612029 94.9424015008 l 2,71,72
 1017.15075476 15.1600374807 1017.15075476 15.1600374807 658.232414891 14.9990234375 c 2,18,-1
EndSplineSet
EndChar

